<mxfile host="app.diagrams.net" agent="Mozilla/5.0 (Windows NT 10.0; Win64; x64) AppleWebKit/537.36 (KHTML, like Gecko) Chrome/130.0.0.0 Safari/537.36" version="24.8.3" pages="2">
  <diagram id="Ht1M8jgEwFfnCIfOTk4-" name="Architecture-Prod">
    <mxGraphModel dx="1631" dy="1832" grid="1" gridSize="10" guides="1" tooltips="1" connect="1" arrows="1" fold="1" page="1" pageScale="1" pageWidth="1169" pageHeight="827" math="0" shadow="0">
      <root>
        <mxCell id="0" />
        <mxCell id="1" parent="0" />
        <mxCell id="vetfrE1PC7fe9fAgu2xR-10" value="AWS Cloud" style="points=[[0,0],[0.25,0],[0.5,0],[0.75,0],[1,0],[1,0.25],[1,0.5],[1,0.75],[1,1],[0.75,1],[0.5,1],[0.25,1],[0,1],[0,0.75],[0,0.5],[0,0.25]];outlineConnect=0;gradientColor=none;html=1;whiteSpace=wrap;fontSize=12;fontStyle=0;container=1;pointerEvents=0;collapsible=0;recursiveResize=0;shape=mxgraph.aws4.group;grIcon=mxgraph.aws4.group_aws_cloud_alt;strokeColor=#232F3E;fillColor=none;verticalAlign=top;align=left;spacingLeft=30;fontColor=#232F3E;dashed=0;" vertex="1" parent="1">
          <mxGeometry x="260" y="-698" width="120" height="268" as="geometry" />
        </mxCell>
        <mxCell id="UEzPUAAOIrF-is8g5C7q-158" value="Amazon S3&lt;br&gt;Bucket&lt;br&gt;" style="outlineConnect=0;fontColor=#232F3E;gradientColor=none;fillColor=#277116;strokeColor=none;dashed=0;verticalLabelPosition=bottom;verticalAlign=top;align=center;html=1;fontSize=12;fontStyle=0;aspect=fixed;pointerEvents=1;shape=mxgraph.aws4.bucket_with_objects;labelBackgroundColor=#ffffff;" parent="vetfrE1PC7fe9fAgu2xR-10" vertex="1">
          <mxGeometry x="30" y="151.5" width="63.94" height="66.5" as="geometry" />
        </mxCell>
        <mxCell id="vetfrE1PC7fe9fAgu2xR-24" value="EC2" style="outlineConnect=0;dashed=0;verticalLabelPosition=bottom;verticalAlign=top;align=center;html=1;shape=mxgraph.aws3.ec2;fillColor=#F58534;gradientColor=none;" vertex="1" parent="vetfrE1PC7fe9fAgu2xR-10">
          <mxGeometry x="30" y="43" width="62.93" height="76.5" as="geometry" />
        </mxCell>
        <mxCell id="vetfrE1PC7fe9fAgu2xR-23" value="EC2 instance contents" style="points=[[0,0],[0.25,0],[0.5,0],[0.75,0],[1,0],[1,0.25],[1,0.5],[1,0.75],[1,1],[0.75,1],[0.5,1],[0.25,1],[0,1],[0,0.75],[0,0.5],[0,0.25]];outlineConnect=0;gradientColor=none;html=1;whiteSpace=wrap;fontSize=12;fontStyle=0;container=1;pointerEvents=0;collapsible=0;recursiveResize=0;shape=mxgraph.aws4.group;grIcon=mxgraph.aws4.group_ec2_instance_contents;strokeColor=#D86613;fillColor=none;verticalAlign=top;align=left;spacingLeft=30;fontColor=#D86613;dashed=0;" vertex="1" parent="1">
          <mxGeometry x="440" y="-730" width="950" height="760" as="geometry" />
        </mxCell>
        <mxCell id="vetfrE1PC7fe9fAgu2xR-6" value="Docker compose" style="points=[[0,0],[0.25,0],[0.5,0],[0.75,0],[1,0],[1,0.25],[1,0.5],[1,0.75],[1,1],[0.75,1],[0.5,1],[0.25,1],[0,1],[0,0.75],[0,0.5],[0,0.25]];outlineConnect=0;gradientColor=none;html=1;whiteSpace=wrap;fontSize=12;fontStyle=0;container=1;pointerEvents=0;collapsible=0;recursiveResize=0;shape=mxgraph.aws4.group;grIcon=mxgraph.aws4.group_aws_cloud_alt;strokeColor=#232F3E;fillColor=none;verticalAlign=top;align=left;spacingLeft=30;fontColor=#232F3E;dashed=0;editable=1;movable=1;resizable=1;rotatable=1;deletable=1;locked=0;connectable=1;" vertex="1" parent="vetfrE1PC7fe9fAgu2xR-23">
          <mxGeometry x="20" y="38" width="910" height="702" as="geometry" />
        </mxCell>
        <mxCell id="vetfrE1PC7fe9fAgu2xR-7" value="" style="image;sketch=0;aspect=fixed;html=1;points=[];align=center;fontSize=12;image=img/lib/mscae/Docker.svg;imageBackground=#232F3E;spacingTop=0;labelBorderColor=none;editable=0;" vertex="1" parent="vetfrE1PC7fe9fAgu2xR-6">
          <mxGeometry x="1" y="4" width="21.94" height="18" as="geometry" />
        </mxCell>
        <mxCell id="vetfrE1PC7fe9fAgu2xR-11" value="skillup-nginx" style="fillColor=none;strokeColor=#5A6C86;verticalAlign=top;fontStyle=0;fontColor=#5A6C86;whiteSpace=wrap;html=1;" vertex="1" parent="vetfrE1PC7fe9fAgu2xR-6">
          <mxGeometry x="150" y="32" width="150" height="140" as="geometry" />
        </mxCell>
        <mxCell id="vetfrE1PC7fe9fAgu2xR-21" value="NgInx" style="shape=image;verticalLabelPosition=bottom;labelBackgroundColor=default;verticalAlign=top;aspect=fixed;imageAspect=0;image=https://cdn.icon-icons.com/icons2/2699/PNG/512/nginx_logo_icon_169915.png;" vertex="1" parent="vetfrE1PC7fe9fAgu2xR-6">
          <mxGeometry x="185" y="62" width="80" height="80" as="geometry" />
        </mxCell>
        <mxCell id="vetfrE1PC7fe9fAgu2xR-44" value="REST API" style="points=[[0,0],[0.25,0],[0.5,0],[0.75,0],[1,0],[1,0.25],[1,0.5],[1,0.75],[1,1],[0.75,1],[0.5,1],[0.25,1],[0,1],[0,0.75],[0,0.5],[0,0.25]];outlineConnect=0;gradientColor=none;html=1;whiteSpace=wrap;fontSize=12;fontStyle=0;container=1;pointerEvents=0;collapsible=0;recursiveResize=0;shape=mxgraph.aws4.group;grIcon=mxgraph.aws4.group_aws_cloud_alt;strokeColor=#5A6C86;fillColor=none;verticalAlign=top;align=left;spacingLeft=30;fontColor=#232F3E;editable=1;movable=1;resizable=1;rotatable=1;deletable=1;locked=0;connectable=1;" vertex="1" parent="vetfrE1PC7fe9fAgu2xR-6">
          <mxGeometry x="20" y="212" width="870" height="468" as="geometry" />
        </mxCell>
        <mxCell id="vetfrE1PC7fe9fAgu2xR-112" style="edgeStyle=orthogonalEdgeStyle;rounded=0;orthogonalLoop=1;jettySize=auto;html=1;exitX=0;exitY=0.75;exitDx=0;exitDy=0;entryX=1;entryY=0.75;entryDx=0;entryDy=0;" edge="1" parent="vetfrE1PC7fe9fAgu2xR-44" source="vetfrE1PC7fe9fAgu2xR-107" target="vetfrE1PC7fe9fAgu2xR-89">
          <mxGeometry relative="1" as="geometry" />
        </mxCell>
        <mxCell id="vetfrE1PC7fe9fAgu2xR-107" value="&lt;h2&gt;&lt;br&gt;&lt;/h2&gt;" style="rounded=0;whiteSpace=wrap;html=1;dashed=1;dashPattern=1 4;fillColor=none;" vertex="1" parent="vetfrE1PC7fe9fAgu2xR-44">
          <mxGeometry x="330" y="70" width="520" height="380" as="geometry" />
        </mxCell>
        <mxCell id="vetfrE1PC7fe9fAgu2xR-59" value="" style="shape=image;verticalLabelPosition=bottom;labelBackgroundColor=default;verticalAlign=top;aspect=fixed;imageAspect=0;image=data:image/png,iVBORw0KGgoAAAANSUhEUgAAAgAAAAGjCAYAAABaGK0nAAAACXBIWXMAAAsTAAALEwEAmpwYAAAAIGNIUk0AAHolAACAgwAA+f8AAIDpAAB1MAAA6mAAADqYAAAXb5JfxUYAADNaSURBVHja7J0rTGw924a3QJAgMAgMggSFGYfBYEhQCAwCgUFhRmAwJCQIDIIEQ4LBYFAIDGrUKBIEhoQEQYJAYEaMGHV/ouV72WwOc1hdfdpeT3Ll//73tNesdrVXT0//SPoDAADmmZC0ImlH0r6kpqRVSQ3/93hHMBC8BAAA20xKOpLU0c/xIqkt6VzSnqQNSYuSpniHgAAAAKRFQ9KTRo+OpDtJl5IOJW1LWpY0K2mM94wAAACAHeYkvSl8dCW1JG0iAwgAAADEZcyP2OuOBz/rQBkgAAAAEIENxYuupCXKAAEAAID6aSluvEmaoRwQAAAAqHf6v6v4cUFZIAAAAFDv5j8L0WMWAAEAAID6WJGd2KI8EAAAgNyYlcuo15ZLovPqd96fyiXQifVc24YE4IR6ggAAAOTCuFxmvd4vnd9NpCnwI0MCcE59QQAAAHJZXx/kfP2r6j8Xf2VIAI6pMwgAAEDqrOn3fPpfxYuk6Rqf896QADSpNwgAAEDKx+qOR+wIW6ovTW7XkACsUn8QAACAFJnxm/yqiIManndatmKeOoQAAACkeJyu6st0VgI/86IxARinHiEAABCeSbmjaQu+o9n0a7C7fvR5LOlMLkPbpd8sdiXp2nPj//9L/8+cyx1pO/H//o7cue41uatgG37EmdsNcGP+94aI0ClyNw11/i98kwgAAFTTKc35jn1b7k72C7+2/KTfj6SFjJ5v7G+9SJx4WVjzkjCZ0HueVvg8+u2A0nRgSABafLcIAAAM1tE3/EjuyHeoj5E7+KpGvm0/o9CUuy1uyti7X5I7tldHHAX6DReGyvyM7xkBAIDvE8os+A7xQu74Vuod/aCxbKQs9iK8+6p3yI/5WRgrscs3jgAAwH/Ty+t+ivy2wM7+q4i9PDDl9z7EiI7fszFMMqJ1uTTEF74uvRos23W+eQQAoFSm/Dr4iaQH+vp/4ily+Sz4vQsx404/75Qf90sT+15UOgmV7wJtAAIAUBILfjq5zQj/17iOWE7LspMw5/SLmaJt/366CZfvFO0BAgCQ+zr+qtyRuVf69IHiOFKZzRgcSW972pmU7RttAwIAkCMTfmr/IrEpWWuxE6n8Lnn1weOWdgIBAMjpeN6K7/S7tO+VxEak0T9LM+HjKpKYN+T2TDREFkIEAGBEGnJntl9o0yuPlQjlucVrry1ufGdcx36Omy/ErutFZJF2DAEAGGQksSVbZ6pzjKUIZXvEa689WgpzImBygOWcM2YEEACA30b7J2Jdv66IMTI75bVHiwsNl/fgu2/1aYgZiTHaOQQA4COrCp//nbAxA3DIa48aXbljsqOMxrc1/D6cY9o7BABgwjckj7TJUeLNj+LqLvd1Xr2JeBxiBmhC1dx1sEb7hwBAmUzKZVV7ow2O1vBv+8Y8VvlzisNOHPc5GzCv6rJpduTSKdMeIgBQCFNyV6Wyvh8nnuU2VlpYg2UjoK24/2U2aDOAtP2WghkQAMik4z+k448WPS9eE7K1/MPSj63oekH8nGXzLOCfyXXFCABkyoTcZiM6/nhx56durZ74YCnAXpz7jn/O15/QsUFbiQBAXhn7tkXinthxJPtHrkgKZFcc6xL3rmFJRQAABmBVXLsbOzpKa5f1BUVWfDwYW6JCAAAGYF4uyQcRN14V52jfqEtFSCNxQTuKAEB6R/qOxOUuFuJZ6R6tmhf7AYh/NyECAgBG2fAjTsJG5z+beH3apBiLj26CM1gIABTFLNP95qb9c9lEdUZxFh+PfmaRthYBAEOMSdphqtZU9JTXVavjqufoGWE7LmlvEQCwtUbL1bz2Isc10zmRO4KQmrS7CADEZ5Sbv4hwkfOuaS4MInpiPwACANGYEWv9VuNZea+TrlDEhJ91pC1GAKBm1sRtfZZjOeO6N0fdIz7EEu0xAgD1bcI6oc0JPrX5Jrd7/1nSk9zO50f/v5/l0ii/fbP0cpl5/WMTIPExjmiXEQCoZ+RF4ztcvPjpyku5+9V35c61r0ha8O92SsPl5h/z0/2zcmuiOU/9n1KViE9xQ9uMAED4TVfsvP45ur6TP/Md/Krc6QjuNK9u2YkgPkebbwMBgHBn+w9pY77s7Nt++nHdd/Rj1JdgTIt1f4IZAAQAas3jzy5/F29++n7bT9nT2dfLJVWQ+CbYA4AAQMXMy206KzV6Xn6a4qwxU/+E5VjkG0EAoNoz1iWu97/Krd+virvHrTAhd+oht+Wje0nXvr4dSTqQtO+X2078jEdbXKb1W7D+jwBAhWyrrKt7X3yDu8S0vkly2H/y7Dv6DQ13KdOUXF6HPUktcbX2R5Fidg4BABrbgaIj6VwkELHOrNJNMf3sv6cQHdSkl4mbgmWgJ7f5lu8EAYARGZfLG5973PiGk+n9NEixTrb9ElJds0kzXjRKOiHxirwjAFDdaKKVcWPx5tdY5yjrpGgk2PEvRf6O95T/3p2W3JFQvhEEAEZkSvle4Xsvl2mPJDz1bdbb9EsrLd8hXnr52vZr2LMDjIxTOfb3bGwqetqXQY5xIPbpIABQWUNxn+k0/zLlW/vG0X6noHty9xncyG2+3PFT5o0PSzPzidS1U9lNu7ysfE5PvMmdTOJbQwCgonXD3M74X4odwTGyRFY9Un9JoON689KSwvJe6gmU2r694ntDAKACZv0IjI4fRiXXqebflpZmEyunnUTf9RFT/ggAVDvyz6Xzv6bjj8pqgZ1/S+netLimdI5UpjLDggBAUmv+OUz7x95tDY7bwjr/a6W/oXQ5AQm4TXCGBQEA87v9HxJvgF9E4g8rzBXW+d8on9Mky7KbPOhEnNpBAKDyzj/l3f49ueM/JO+xw0ZBnf9thnVv3ei7JlcHAgAVMuGnzFMeedEo2GO/kM7/Rfkmndkz+L73+bYQAKjuiNZ1og3vqx9lUo7s/o8585T7NbPW2ocHvi0EAKrhLNGG99wvW1CGdmkXIAB7hSwPWrtueJ7vCwGA/Kb3+hn1c/QnDXK/o/5W5Zw/XzP27nf5vhAAKGuD1pW44COlfSW5T/03CivTK0Pvv8U3hgDAcCwqrfvTu3J55Cm7dGhkLgBnBZbprOwcDeyJEz8IAAyV5S+lqdkHkcmPKWN7QlrqTNSJoXLgMi8EAAZgXGllZrvA8pNlJ2MBOC64XKcNzQIc8J0hAJDfsayepCbllTSnGa/9l56C1srJoRu+MwQA+qOZSAP7xtReFtxkKgBXlK2Z/R1vlAUCAL+zILt5vT9Gileowtc8ZSoAHEF1WFlKnKEsEAD4OYnHcwIN6zXr/Vlll+xl2Pl3xL3z1vZ4IGQIACiNs7vfxRkNa1bkegvgBWVrrox3KAsEANJd99+nnLJjOVMB4N6Jv7Fwdfgp5YAAwNcbdSxPw/YkbVFOWbKdqQCw3mzvpAcnARAA0L/n/e+Nd/6MpvLlKMPO/4Vy/YdNA+XCzYAIACTUAPfkssRRTuw7SSmuKVeTxwHf04Sv+H0J7CVCAIpm0Xjnz67d/LnLUAAOKdcvZxottjFPfmngVO7WwDUvK5wyQgCyZkLSI50/ROYxQwHgMqqveU6sHF8lteVOHq17iaEcEQCm/gPHOuVDkpiEA3nNs6xfxX4kBCADLGf7Y/RUFmcZCsAi5fol15mU7ykCQGVOOfOa1V3/u5RPcaxkKAANyvVLLjMq4wMEAFJk1+gHdUzZsBEwk5inTL/kIrNyXkAAICVm5I7CWIsrcSSHJSkEgBmAtOIaAQDOXI8Wd+LIDbiNn7lIwALlmfUegPfoSZpEACAFLOZcfxEpU+HvvBQ5HAtcpiy/pJ3hfo8lBADY+Dd4dBkpwTd1dcPPVr0k2ilsUo5Z5AHoJzYQALBO0+CHw+U+0G/Cqobc2fodSSdymdseDS8Z7FNuX4pdL0MBWEMAwDKTkt6MfTRnlAtU1KnM+in3bbkUvBaSzVxQNv8wrzxjAQEAyxwa+2BuRUpNCLuZMHZw65zNcgkRUwgAcOyvv+j4ERtlAyE3ElqIScriL3K89rlTanlSoUmzOkyQ4x/qkF4LwX0AeSd7ep/NRADAJHPGNt2w7g91YWHW64Ry+D9TmU7/XyIAQNrN3+NJJPuB+rBw5PWZcvg/W5kKwCECAFZ33Foa/XM7GpQov9R7x02mArCFAAAN4M9xTHlAzVi58IplLzt7MkLEEgIArP0z9Q+2sJL2uitOAxxkLAAzCACw8//7ICc6xEp+ZSV2Cy6HCdlLQlZV9Er+xmhk7E63WRn9n1MeEBErx85eC54F28l49P+AAABZ/76ONxWaIQvMcGKos9grdBbmLWMBuEYAwNp0W8fIx7FNeUBkVg11Ft0C14uPlHccIwBgiaaRD+Ne7pIWygRiC7Glo7BXBb37hvK8+e9jNBEAsMSjkQ+DjX/A+fOvo4RU2GPKM+3v51hFAMAKK6yLAfzDtrFOo1PAUsCRyoh5BAAY6fwXvdI/CjDHtMGp6Jyvw15TOTGOAIAFZo18EGQ9A+S4v7jI8D0vyNbV4yGj+HseaFg4+vcxStzlDGnMANwa7USOMnrPc3L5DkqJKwSAxsXKhhsLHx5Xn4I1lhPolA4z6fyfVVZsIgA0MJx1/m/0P01ZgCH2lM4xtJTluSHppbDO/7n09X8EwA5XNGAA/2dKaV49e6n00gWvyE7isTpjhe8MAbDS2MUe5fRY+wcjLCY+Gr3z0+kpvOtd5Z/o56sgwykCwBnnD3FOOYABdjLpkDqStgy/55lEZlhafkZl3i+T7viZymu5hGmD1pVnRv4IgDXaBj40zv1DTCaNLINVHTfGZgPG/IAjlSn/5T5+z6ykJS9ch34Z5k7uAqOe3AbSa//3x/nWEADO/v/bSFEWEPPc+VPG0809uQtnYt+quSp3v0cq0ebbQAByZzcBywYIufxVyhp0Vy5nQJ17bcbksvrdJvi+lvg+EIDciX3ZxiNlAJE4VZnR81PSawp3YmBO0r7SPdfPXSQIQPbMGfjQmpQDRGBfxPuswJWfCRllH86k3Oa2w8Sm+b8TJPYkIQBM/9fQ+ExSDlAzDZV59Kyf6Pi173MvSdtyVw+vetbkstft+OWEK9m5PryqOOYbQQDY/R8+OPoHMbignye+iRcGJQhACUwb+NgWKQeomXGVc9McMXis8o0gACWwFflDY/MfxJr+J4iv4oLvAwEohcvIH9seZQARWKafI5j6RwBKZkzxM3HNUg4QgUX6OuKLyPnM/6bl9pZGqX6WIn9sZNiCkve+ELZiP/P63vEzHPMIAPyRdBD5g2tSBhCRO/o8wkfuacg/LvW+ye2BQQAKJ/bxv2nKACKyRb9HyG1Eznndf/WL3/wmd/cFAlAok4qbBIXpf7CwB+aW/q/4uMp86v/1m9/dsSQBNEj1MS+XqjNm7FAOYIA5pXMlLcFy5KCCe/PL7zazHEBjFLbD3/brQK9GPrg5ygWMsEb/V3z0lF9CsqM+f/urhfaYhqg6puTydp/L7fq0uOZGOYEljukDi49n33bmUJ+3h/jtUfdk0QiNPsrf9Wvr1i84OaK8wOB0aZs+sPjI4frf9SH7gDtF3AxJIzQ4C74zTe0WrmXKDgwy49dEibJjt8DO/z1uvAwjAEZp+E7/OdGPqyt3EQtlCRZZof8rPnpKMyPgdkWzv+cIgL2Rya6khww+rhvKE4xzSB9YfLwqnTwlY+p/w5/ZWRAann8Ldd13mL2MPqxdyhYS+PZaNX4TLDvYjFas6fABmNbvR/2GnQVZQQDqZ9aPQF4z/agWKGNIgOmavsFLSRNyWQl79Lnm4sD4clXIOtpRjccDS29wluV2oOYcnQSMGuCdpYCdcs+v2X7e1PtMn2suVozVyym5dfo64kE1nQwosYEZ9+Z/X8iHxPo/pMZegO/g6YeZsKkCBgKpxYufpbHQX+xEWDK6RACqZcIX5EthH9I+HQokSJVrrFfqL9nMttyJGcJGNCP3F9uR+4stBKCaC3j2VO6mnxXRmUCamTVHbXx7GnwD7Jzq3YxIfB+3kerermzcVdFV4DsDch/x74rdvpOiM4E0WdTw+wFeNFqe+S3ajujRU5z9SzeG3sFDyKWQXI8TbSvfHf2DBPn/obT86vINeBX55acknYiTAjEjRl6AG2Pv4BQB6I9VpZeiN2Rc0oFAJhLQTyfc88t9Ie78uKQ5iRIxLgq6Mfgegizl5nQpD+t2/8YOnQdk9I1f/iACNwqf72JBbkMhUU+8RaprFvuSlxAylMM6/xFTdN8GFwBBjpsDV+V2iDclrUWYJubugrxnMO+Mvo8LBODv6f4XvhFz02cAJSQQI8JHrMuBLPcrq6ULwDTrcX3FMw01gJmNiVbjTjbzo1xFHlz2DLfrlZ0KSO3DWxdHc1L4gABy5ijhdqEnqS13RPpjzvklQ53eg4HZyxXZTQp1WJoATKq+PMy5BBkAAcKQ2kbAe7njjGv6OS/IroFnbcvOlcArRmcCenKbYosQgEVxWUf0tSIA+D9W7xF58x3omZ/WX9LgicBi3olwJHsXl60ZlYBWCQKwK3b4DxszNNQAQegY+s53/WhwsqLfNhVhwNUxPmDZynWQZ3nKn9u5RhsJ0FADhNmEbCkaAX7jQo0DrztJswmU+4HBdv5h1BkTqwk/yOY3WnAFMEC4JUlLESpPfLOGZz+Ru243lbK3uA9tOycBWDU2vZZqHNJQAwRhw9B3/hL4t4Y6bt3x7zHFe2baxtr611Ek0NLL3aHfHji6fgrt3K8FrsjODlqAHNk39P23a1iKfar4me9V0Q72iEtA1jal76YsAGN+Koj4OZ7kjh/ty+VDmJe9HbMAuXNhqE04r+H3NlTdefjzgEsWdVLlO6ki3oZ9r7Ff5LjI6vdVPPiPpenXHCdpeAFMYGkKeK+m3zxq5sOu3E56skEamwWI+QInxA1+7+thN/5jXqKzBzDNq6G2o8519GFnPh4V5qSCBSwNXoeaBYh5zK9dcId/LbfnoUGDCpAME8bakgXVO1s76IDtMvMBTYg9EqPEdgoCMCnptrBO/05uZ/4S6/YAyTJrrF2pO1/+hFyWwX6m/LcLqROWjoU+WheAUjr/nrflptJIcgEAaSUB6kR8Dwtye5Rev+iAjlReFlJLl0OtWRWAiQKm/VvefKdoLAFIAxx4VtHC+5jyg5yS9y6Ny23cthBtiwIwJrfRLcd4kNuBSe59gPyxsvHrkrIwxZKhPqlhTQByO+rX9VNgi1R8ABr6CHFAWZAq+Js4tSQARxl1/E9yu/cnqewAzAJEDK77tseU3HE8C/tDJiwIwHYmHX/bb65gBz8ATMqltI0Vb0rrEp2SsNLnbcUWgGXVd6VkqGj5KT8qNgB8Hu3F2tfU5P2bZUw2brO9jSkAM7KVMWuYET8dPwD8xrrqPd10w0ykeVaN9GPzMQRgXOme9b+Xu1GPSgwAg84ILPmp1wO/T+BO1R4bbLH/KBks9IEHMQTgPMGO/9V/uJg1AISQgwW53P17vo1sSXoZYFPXLu1TUqwY6Nee6haAzcQ6/p7cVcRYNQDEYMJP1a7KnTA6kbv2+9r/7w3lcYUuswBxYrEuAZiTnSxZ/U73L1BJAQAgAGsG+rmTOgRgLKF1/56fhmM6DQAAQp4IiH1b4HMdAnCQSOf/wKgfAABqommg31sIKQANpXHe/1QkzwAAgHr3eMReGj8MJQBjckddLEdH7qwulREAAOrm1MDMdxAB2DXe+T9pgJuRAAAAKqZhoC+crVoA5oxP/bfkzt9SAQEAoOQjgdtVC8C14c7/QuzyBwAANgNKLrdEZQKwYrjzP6ayAQCAIaYiz5h3vhoUD7vx79Fo579PRQMAAIPcRO4fF6sQgKbRzn+XCgYAAEbZtNZHDnOm0eI1v4z8AQCAZYDv42ZUAdhjzR8AAGAoWpb2AQxqL9Yu+7mgQgEAQCLEXkJfGFYADo11/m2R2hcAANJhLnK/2RxGACaNjf5fRJIfAABIj5g3BF4MIwCWUv72xI1+AACQJjHvBngYVADG/YjbSmxRgQAAIFHWIvehk4MIwJahzv+KygMAAAkzFbkfXR5EAKxc98u6PwAA5MBDxL50p18BWDA0+l+h0gAAQAacRexLz/sVgHMjnf85FQYAADJhM2J/etuPAExK6hro/F+Z+gcAgIxoROxTu/0IgJXNf+z6BwCAnBiLPMCe/U0A2gY6/1sqCgAAZEjMPnblJwGYNTL6X6KSAABAhsRMCLT9kwBYuPXvhgoCAACZsh2xfz3+SQAsnP0n3S8AAOTKUsT+9eo7AbAw/X9F5QAAgIyZjtjHPnwnAE0DArBI5QAAgMyJdctu5zsBaEXu/FtUCgAAKICYy+2Tnx9mQu663ZixRqUAAIACuIzY185/fpjVyJ3/i1yCBCoGAADkzlHE/nb588McRxaAAyoEQHYbnRYlbUja9Q3emR/53Pglv3duJF37v3ciaV/uqNSKpHkGB5AhMffcbX5+mIfIAjBHhQjKgm98rXDqG/ojSYdeAHfkLspY9R3HdI3vZ9vY+wlByPc5Jne0ac935q8Vtw9dueygJ75+TFT8/PMFlP9vcPy6XtYj9rc7Hx9kKnLn36YyBGdDaUbHN/xnXg5mAr2fK+Uf8wHF8q3m39LzZbZa0ezAsogN2slaWYw5425p/X+byoAADCiMW5LGEYBoArAsG3eGSNKzb0PGhQAgAOkwF7GsTz8+yEHkijdNZUAAhogXPyuAANQnAHN+it9iPMlfdIIAIAAJMBmxrC+tnP9n+h8BGDWu5ZaxEICwArCtuNeY9j26GWI2AAFAAGIQ6+j9jYWMRJLbHUxFQACqGP2NspEUAfh5g99FYr+17UdYCAACYJm3WN+HhXUIiZ2nCEC1SwLDbhJEAL5m3PCU/29xq/5PCyAACEAMHiOV9b2FDYBvVAAEoOqKreGOiCEA9rKVVRFXCAACYJhY6YCf3h9gL2KFu6QCIAAB4hQBqEQAdjP53U0EAAEwSqyTNC8WDH+HCoAABIpBb5VEAP6mofh3g1QVXf2+NIQAIAAxaEUq646FG4m4+hcBCBUtBGAkAWhn9tt/m21EABCAGFzHkuLYJwB6qjaRCyAAn2OQDaYIwH+sZPr75xAABMAYsdqdbuwUwPcUPgIQOE4QgKEEIMS05JPcfqMlucRf43LHC6e8qG350VAvUn1AABCA4gRgIWJlu6DwEYDA8YIADCwAswH+3EP1n69/LuC06NsPz4EAIAAlCUAv9m1EexR+8gLQkztG2g9rfpS3J+nczwDFnvZFAP5lp+I/82jI+hrqrvQVBAABQACcADQjVrZ1Cj8LARg1r/ypkXoW4kO8kMtGZ4V+RuFVjr7fNNo+nxAnlI4RAATAEFE3AR5GrGxkAEQA6lie6HemKYQAnCdYT14q/P2j5vmYVvWblO8QAATAELGybHb++AYqVkxR+AjAB44D1bN+kwIhAG60XmWcGKwX350+mpFboqqaVoB61Q70rHO0k8XkAXiNOv1AwSMAX4z2QuwA73ezKQLgyqDqjmrUZ2oEKJdGje/0JGKdBvvcRuqDn2PaxxMFjwConrzY/U5DIwBuFFx1rBlYlujJ7Ud49A3uEgIARniI1Ac/xswC2KbgEQDVs+mLGYD+CZEXpFvB2vK5HzTc+UHLlS/XE0kHcicXtuQ2fK7I7S+a9zMaE5HfKQIAde25GSTu/viPKkZcU/AIQE0CwB6A/hlTuEQ8t76TLm3vDwIAP9GN1Ae3/vhpsRjBLYAIQF355zkFYOt+8p4v5wM/Wp9EABCAQhlXvLiKeQ/AGYWPAHwx/Rxi9LmOAESfhfktHnybkONOdAQA6txz03fbFHP64YTCRwA+ESonxRwCMBBbih+vXkS25VITIwAIQI7ETMV//Efx7vs+pvARgA8sBaqLzwM8AwIQ9jjmKPHkO9IVpXeDKAIA3xHz1s3dmAJwROEjAHKbzrYCzkQNUs9C5eTuRWaYb+1SdqPjn29d8Xf4IwCQ6mzbFgKAANQtAGNySVi2/Jpv6CMw84ovALFjmNm2RiK/reNnWSynFUcAoO5lz35ihT0ACEAVcdkH13IbveoUzqsB3w8C8Ddnif3OW1WTdAgBgLq4iPi9LMQ8BsgpgHwEwGL0Bhz9IwD/Mim3hyK1uNf3V/4iAGCJdsTvZOaP3G7bGEEFRgBCxsEQ7wcB+HopoJPo776UjaRDCAB8R6wBeE/SHzIBIgA5Rlv93XuPAPTHsuItFY4ar/75EQAoIe12v/H4LgDcBYAA5BSPI4z6EICfj2m+Jfr7e3L5BBAAsMRixG/i5l0AWjENBBCAiuvUzAjvBwH4mdmIA4YqYgcBAEPEPAJ49i4AsRq9DhUAAagwWhp9vRcB6O8Y557sJQrqNzaEAEC+m0P7jd13ATiP+BCTVAIEoILp3T0Nt+aPAAzPnOIeYRo2uhr8dAgCALmdAFh9F4CYiQjmqQQIwAhxqWovjkEAhjslcJHYjMAtAgCRGVPcjbVz7wLQjG0hgAAMEC9yWSRD3BiHAIx2q9m+wmd2rCo2EQCISCPyrOnYuwCsRXyQHSoCAtBHtP00f+h0rwhANSObFblNRpZPDdS5CRkBgM9sR6z79+/PEfs6wlMqAgLQR7zne19EAMwLwGcZWPYzNg8G30td2QIRAPhMzL13Fx8FYCbyyI7KgAAMErcBG+4QAnAud31tTMaM1L8ZXwdPjQjBOQIAkXiKWO93PgpAzAuBOAqYx22Aq551X7muaqhTF6r+KtirhDuZVDOhrfkO8j5C+/OGAEAEZiOL79JnAbiP+DBzVIgsrwOe9FO/IXeHt/wIFwHIgzkvkHUej5pHAKBmtiILwORnAbiM+DDrVIgsBeCdlcAScFXhFDcCYEsGTmqYSVpHAKBmYva3Tx+f5f1/xMwFcEyFyFoA6jDeIwQg6+nSkDMCuwgA1MiY4t6uefGVAMTcHHZLpcheAOrYYb+BAARj0nfEDb9+uCp3jr4pd/b/2P/OK78sc+f/XlV//rjC3VlyhABAjSxHnv7f/koA5iM+UE+kBC5BAKYDm28VKV5LFoDmpw78acTyuqz4+aYUJq/ACQIANXIcWQDmvxKA2GkJyQiYvwD88dOtIeNuxP0AJQvAaci1xorYS3QJEgGAd54j9rP/nHr5+P/EvOaTfQBlCMB4DR/AHgIwFCHkrOod9o0Az3iAAEBNLEYe/V//JACnER/sgcpRhAD88WvHIaPrlxsQgMFYDfDbq95gNxV6TRQBgIRm2QaN5k8CsBn54cgHUIYAjCl83olhZ5RKFoDpAL/9UdVmIQyRtXQZAYAaGFP8uzHmfxKAucgPx8VAZQhAqNHm52eaQQBMpCfdNF5/pxAAqIH1yP3r81fP9fkvxDQU7gUoRwD+KNyxrvc4QwBMdFRvckcIq3i+qvMBPCT8XhGAtLiJLABn/QjAVeSHnKWiFCMAoW+h7A2xrBSi/rf9OrMlvtsjsRKoLB40/L6Md3YCPNeREACoJ6tl7FjrRwCakR9yl8pSjADUkRJz0EbySmXEwg/rlC+B/synH/7cfnIUhIgGAgA1EPvsf1ffXJz2+S/MR37QeypLUQIwp7D3BEiDHUUrXQD+yB2LCzkrczrAzMx8wDKpc8kRASiXScVN/Sv/Df3pRwD+SHo13DhBXgJQx9GYKwRgoG9sWvUkBbv1U/Bbfulhyf/fLf/Xb2NMiSIAUDG7Br73zUEE4CLyw55RaYoSgDo6nH6lEgGwMWVZh3ykvrkSAbDPhIEBdU8/nHSxeFyhI+4GKEkAQk87S24HLgLQvwCEyrufyu9HAKAKdgzU9R/bvu/WLHqRH5qcAGUJwGQNpryEAAzUAW5m+tuPInx3CACj/1ixMagAWDiz+KRqM4iBbQGo4wRKP5u+EIB6T2nUHe1I7QoCUB77Bup7R9/s/v9NAJoGHn6dSlSUAIwpTCa6j7GCAAwkAJNyZ/hziGeNnosAAYB+U1Z3DdT5X5OQ1ZkXfNC4oyIVJQB17D/5bfMXAvAvswqXG6CueFHcu0YQgLI4N1Lvf73nImaq1n5ilcpUlAD8UdzjXwjA1zSU7qbAew13LwQCAMOwZKTeP/bzvD/9zS1mARCACAKwHLhOPej7dWAE4OekTY+J/c4L/bIGigBAhYwbWjLrayP9b0eBegZ+CHsByhKAOjahbiAAQ+9sPkvg970aazcQgDI4MFL/u+rzlssUdkVXfac4AmBfABqB69R3p0wQgP5YlI0lwq8avkPZyyOCAOTPopEBszTADaS//QMrRn5QkwpWlADUkZFyCwGopNG7UPwdz8+S9vod9SAAUDGTCn+CaZBoVCUAIW8HGyQ6hj9uBCDMs84GNuoXv2aHAFTTAK77kUdd7cWj71iXEpghRADy5sLQt30zyLOntK5xSkWrJDvVXABCnqedC8hnAZgO/OdZYTxwPZuVO22x7xvHtheDYYSuI7eT/9K3RWuKv6t/UKYClOE07Rnpfr+IpaoFYMbQ2sYiFQ4g+enSOT9NueAbrOUPLPm/PifuBAHbLBvqG6UhLrnq9x+0khL0QWwIBACAuMzJXm6M1VACsGjoR+5T+QAAIOKSjrWcGENdcW0pQ9sgm84WqIQAABBhH9Wt7MVKaAFYN/RjH2QjwxcAAJTBmOLflPtVtIf9TYP+C5ZuBuNUAAAA1JXm91o2Y7EuAdg09sNJEwwAAKV2/iPlgxhmCsRSxqOOpHkqKAAAFNb5dzViToxh/iVrswAP4rwwAABUv9u/Lbsx8om4YTdCPBh7EdciPwAAAFTDrMF+7mM8qoKMnsP+i2sGX8gxlRYAAEZkQe5KacuxVMVvHeVftjg10qTyAgDAkGwq/u2Wv8VZVb93lH950ejL4WQAAAAMurR9LPvxqgpvxh31P3Bh8AX1NEROZAAAKJIZSS2lEStV/vYqXpzF6ZKu3E1NVG4AAPhpP9tbIp3/SdW/v4r/yK7Rl9Wt2pYAACALJuSyyaYS96pg138IAbB4LPDjcsAalR0AADxLsneb32+D2UaId1HVf2jR8MvrSdqi0gMAFM1kYqP+99gM9U6q/I+dGH+JB3wAAADFrvW/JNj5B730rmq7ejb+Mi/FNcIAAKUwL5tX+PYT7RDr/qEE4H1tJYXNFHN8GAAAWU/3H/sl4BTjWdJ06PcU4j96lMDL7YiEQQAAOe7u31U6R/u+658adbyvEP/RcT/KTiHOWBIAAEieMUnbia7zf4yeasxhE+o/3JD9fMrv8aSKLlYAAIBaGfcd/5PyiFpPrIX8j28luNtykg+qVqYk3RqlmdF7vjH8nqumLZfW9Vpu0++Z3AmgptxO8EZCs35NQ+91x+BU/04GI/6PsVv3ewz9B1wkVgCvImdAnWwbnxnK5T2/ifiqfC99J7Lgp5CtlZul/VQnRt7JjBe63Or0UYz3WYel3SdYGLfiLoE6uDVeD3JZGkIAfo+OF4J1QzMECMDfyeYulO6ufpPvto4/ZC7hBujGVzw66zDnc63HOQJQZHT90sECAhC1k5r0M7K3Gde105h1rK4/aCVxc2uJi4VKPC7aVR6nRBCANAcBpQrAkpfvbuZ1K/qySt0bWlKPB7l160k68JGP7LwmUuabCAAh6UrSLAIQnM1C6tOxhbah7j/wJJPC63pD5fjgcKwmNvuDABDv330TAQjKVgH1aM9K2xBj5HeVWWE++w91QXTs/XKZWBnPCgEg/ovrmmYBEYD8YttS2xArcUM708J9lds8tMYywY9n/1PbD7KPABCf4lHh7xRBAPKaPVqz1jbEvKjhPvMGoie3e3WeTj/5vSCp5wRAAMIJf8jvGwHIp56YPE0W8w+flttUl3tweuBv7hItx5T3eyAAYRv3UDMBCED6cS/DS4gWsjo9Zd5AIAB/3xGRaqScEwABCL8cMIUAIACf4krGjxFbSe2YswQgAGmd/f8uUs4JgACEj2sEAAH4EHsptA1WHmQm4+UABCC9s//fxSYCQPwQVV+YgwCkF28ptfmWHmZaeW4MRADSO/v/XbQQAOKH6Kna/QAIQHrtw0xKbYO1B5pUfkcEEQBHLvkfUswJgADUFzcIQHEC0JM7KjyWWttg8aEmlFeyIAQgzbP/30WKOQEQgHqjqptEEQD78aSEL4yzvF6cS9pgBCCPeyA+fvAIAPFTtBGAIgTgVIlfFpZCx5H6yBEBSPfs/3eRWk4ABKD+qGJUiADYjOcKZ3kQAP1+lXDKDVjpAtDIsHFPLScAAlB/XCAAWQrAsfK4IjwZAfgjt7M21RMCpQvAcYaNe2o5ARCAOHVkEgHIRgDulPBaf+oC8L458BwBSO7sf66dzyYCQPwSGwhA8gLQkVuKHsuxjU7xoTd9oSAA9lnLuHFvIQDEL3GJACQrAD25TX5TObfRqT74nNxNewgAZ/9jRio5ASwJwI5cUqjfWJO07oV/R9Kh3Lr6ndLZGPyGACQpADdye5eyb6NTn17eS6AxKFUAppXP2f/vIpWcAJYEYKGC3zMudxLjWPbTS4/SkSAA9cadMtndX4IAfNxlbnk2oFQB2ClgijeVnAC5CcBnGdiW3WXBLQTAvAA8+tmm4trpnH6M1UagVAHI8V6HryKFnAA5C8DHC8Us5psYpeNEAMJ3/JvKdINfaQLwPu1s7aRAiQKwoHIihZwAJQjA+10i1m4VbSEA5gTgofSOP1cB+NgBWblUqEQByCWNcz/Rkf2cAKUIwPsGYUszgS8IgBkBaMttMOVytswF4J11P82DANTHeKQOJ2ajv4kAmBEAi/tPhh1pIgCjR0/uNNKS6PCLE4D30wJbcvmbEYB6pCtG7EeUgJYQAEsCMOZH3lZiGgGoXQA6/v3Nio6+aAH4LAJ1zwiUJgDXkRqoebnEK7HCckNTmgD88UJoJRoIQG0CcCe3IXxCdPAIwDcisK769giUJACxzv6/H8fbjNhAWs4JUKIANAz95mFzyCMA/Y/2z2qsWwhAJizIZRcL2WmVJAC7kRqnI//nTyle8iHLOQFKFIA/srMZcNjkMgjA70tvm4z2EYAqRq67vhFHAIYn1hGsjxt8WhEbSasbjUoVACt5AYZtAxCAf+Pet9Uz9FsIQAiW5C6B6ET++Dn731+86e9d1jF3gFvNCVCqALSM/GYEYDQBePBLbPP0TwhAncfZVv0SQSfCx58ap5Eapgv9ew48VljNCYAAsASQmgDc+06/QV+EAFiQgRX/EQx6nHClkPcTq5NZN7QUIdnMCcASQNxgE+BgiZzm6HMQAMvMS2rKHXnrIADRzv735NK/Wmo4WwiAGQGwsgmwgQAAApDvscIFLwQX+ncjYQkCcBOpUbrR9/s4YsYsAhBdABqGfvMMAgAIQFmnClYk7Sn/jSszinf0bvsHKYvZ6e0jANEF4NDQbyYVMCAAwNn/GkdW5xGf6wkBiCoAk4Z+M5cBAQIAnP2vOO5+ea61yA3mEgIQTQCODf3eFgIACADkyKLhafbJiEsTkq2cACUJwKpsxQkCAAgAcPa//o7kJuLzWcoJUIoALEvqGhOALQQAEADI8ex/rGNW/a6rbkduNDcRgNoEoBl5xue7mEcAAAGA3NiI2Bid9vmMMwmv/yIA/Y/627IZbyP+NgQAEADg7P+nGCS3QuxscLMIQKUCMCG3wfJQYS7vqjIuEABAACDHs/8x19bHB3jWg8gN5z4C8M/72PiFTb980/T//KkXzgej0/zfxToCAAgA5MZexIbocsBnXYjccFrICfAmou7oavRNoAgAIABgjseIDdHmEM/7ErnxjJ0TAAFIb/ofAQAEADj7/yF6kqaGeObTyI1n7JwACED9sSgEABAAyIyziI1Qa8hnXonceMbOCYAA1BvtisoNAQAEAMwwobhXrO4M+dzjip8gZlMIQClR1Q2gCAAgAMDZfx9zIzz7VeRnbwkBKCGqLGcEABAAMEMrYgP0MOKzbxpoRGPlBEAA6omepAYCAAgA5MZs5AbocMTnnzLQiMbKCYAApFFHEQBAAICz/19EFbuqY6eMjZUTAAEIH3eSxhAAQAAgR2KmXX2tqHHdNdCQxsgJgACEjTeNtj8FAQAEAMyyFLnxqeoc/byBhjRGTgAEIFz0VN2ufwQAEAAwx3nkxmctk5kMKU5OAAQgXGwGLDcEABAAKPrsf7fiDvM4804DAagvtgKXGwIACABEZTNyw3Od2XKGVH9OAASgeildq6HcEABAAKDYs/8hRlljRjrEOnMCIADVxbPcDZN1lBsCAAgAFHv2X5KmA/yuCwO/aw8BSC4uNNxlVAgAIACQHPuRG53bQL9r3UCDWmdOAARg9LJajfD9IQCAAECRZ/9DjpIn5Y5vxY66cgIgAMPFm1zuiPFI3x8CAAgAFHn2X6o2r/pnbgz8vrpyAiAAg8WjpKbiXuGMAAACAMWe/Q89Rd400KjWlRMAAeivLM4VJ1MjAgAIAJg6+9/NvMGZNdKwbiIA0eJeLi/EsqrP448AAAIASbJloMG5k3QVGAv7AFoIQPDo+vp04df0l+X2gVj/DhEAQACgdtoi6ozQOQEsCcCVpNMKOfYd5aHcptGmn1VZkdtDMpXwd4gAAAIAtTJHf1x77BUkAAt8YwgAIABgkwP649rjCQEABAAQAIjNM/1xlFhCAAABAAQAYrFMPxwtzhEAQAAAAYBYXNAPR4uQOQEQAAQAAQAEAH5Mj9ulH44amwgAIACAAECJZ/9LjxYCAAgAIADA2f8yYxYBAAQAEADg7H95sYcAAAIACADUxSH9rpl4QgAAAQAEAOpgTNIL/a6pWEIAAAEABABCs0J/ay7OEABAAAABAM7+lxdV5wRAABAABAAQAODsfyKxiQAgAAgAIAAQim36WbPRQgAQAAQAEADg7H+ZMYMAIAAIACAAUDXz9K/mo6qcAAgAAoAAAAIAnP1PKKrKCYAAIAAIACAAwNn/xGIRAUAAEABAAICz/+VFFTkBEAAEAAEABAD0R9Il/WoyUUVOAAQAAUAAAAEATUnq0a8mFRsIAAKAAAACALmc/e9JejDMq6HGt4UAIAAIACAAMCq3RhqUS+PvadnYLMAMAoAAIACAAEAOZ/83jL+rMb/+biX2EAAEAAEABABSb1B6cvcQsFmy/3hCAPheEQBAAGDYEa2Vde1WIu9sw9gywCICgAAgAIAAwKCsGmpMmom8M2snJs4QAAQAAQAEAFKezp5N6L21DL23YXMCIAAIAAIACEChWBrJ3if27naMLQNsIAAIAAIACAD0S9NQQ3KQ2LubMyYANwgAAoAAAAIA/XJHBzASD8YkYAYBQAAQAEAA4DcahhqR10TfobWrk/cQAAQAAQAEAH7j2FAjcpboO1w0JgCPCAACgAAAAgCpnP2X3FFE3mM1sYgAIAAIACAAkMLZ/66k8YTf5bkxAThDABAABAAQAPiOK0MNyFXi73LNmAAMkhMAAUAAEABAAArCWha7rcTf54Sx9yn1nxMAAUAAEABAAAqiaayzms7gnV4be6c3CAACgAAAAgCWz/63M3mn27IXMwgAAoAAAAIAFs/+S9JuJu91xqAA7CEACAACAAgAvLMkl3LXCjMZvdsdY++2n70Vu9SFJFkxVG6rlEd+/G8AjE3WaRg8ksEAAAAASUVORK5CYII=;imageBackground=#5A6C86;" vertex="1" parent="vetfrE1PC7fe9fAgu2xR-44">
          <mxGeometry y="2" width="24.44" height="20" as="geometry" />
        </mxCell>
        <mxCell id="vetfrE1PC7fe9fAgu2xR-113" style="edgeStyle=orthogonalEdgeStyle;rounded=0;orthogonalLoop=1;jettySize=auto;html=1;exitX=1;exitY=0.25;exitDx=0;exitDy=0;entryX=0;entryY=0.25;entryDx=0;entryDy=0;" edge="1" parent="vetfrE1PC7fe9fAgu2xR-44" source="vetfrE1PC7fe9fAgu2xR-89" target="vetfrE1PC7fe9fAgu2xR-107">
          <mxGeometry relative="1" as="geometry" />
        </mxCell>
        <mxCell id="vetfrE1PC7fe9fAgu2xR-89" value="&lt;h3 style=&quot;font-size: 25px;&quot;&gt;Bootstrapper&lt;/h3&gt;" style="rounded=0;whiteSpace=wrap;html=1;dashed=1;fillColor=none;flipH=0;flipV=0;fontSize=24;textDirection=vertical-lr;horizontal=1;verticalAlign=middle;align=center;labelPosition=center;verticalLabelPosition=middle;direction=east;" vertex="1" parent="vetfrE1PC7fe9fAgu2xR-44">
          <mxGeometry x="24.44" y="70" width="180" height="380" as="geometry" />
        </mxCell>
        <mxCell id="vetfrE1PC7fe9fAgu2xR-136" style="edgeStyle=orthogonalEdgeStyle;rounded=0;orthogonalLoop=1;jettySize=auto;html=1;exitX=1;exitY=0.5;exitDx=0;exitDy=0;entryX=0;entryY=0.5;entryDx=0;entryDy=0;" edge="1" parent="vetfrE1PC7fe9fAgu2xR-44" source="vetfrE1PC7fe9fAgu2xR-66" target="vetfrE1PC7fe9fAgu2xR-68">
          <mxGeometry relative="1" as="geometry" />
        </mxCell>
        <mxCell id="vetfrE1PC7fe9fAgu2xR-66" value="&lt;h2&gt;Auth&lt;/h2&gt;" style="rounded=0;whiteSpace=wrap;html=1;dashed=1;dashPattern=1 4;fillColor=none;" vertex="1" parent="vetfrE1PC7fe9fAgu2xR-44">
          <mxGeometry x="350" y="83" width="190" height="110" as="geometry" />
        </mxCell>
        <mxCell id="vetfrE1PC7fe9fAgu2xR-139" style="edgeStyle=orthogonalEdgeStyle;rounded=0;orthogonalLoop=1;jettySize=auto;html=1;exitX=0;exitY=0.5;exitDx=0;exitDy=0;entryX=1;entryY=0.5;entryDx=0;entryDy=0;" edge="1" parent="vetfrE1PC7fe9fAgu2xR-44" source="vetfrE1PC7fe9fAgu2xR-68" target="vetfrE1PC7fe9fAgu2xR-66">
          <mxGeometry relative="1" as="geometry" />
        </mxCell>
        <mxCell id="vetfrE1PC7fe9fAgu2xR-68" value="&lt;h2&gt;Courses&lt;/h2&gt;" style="rounded=0;whiteSpace=wrap;html=1;dashed=1;dashPattern=1 4;fillColor=none;" vertex="1" parent="vetfrE1PC7fe9fAgu2xR-44">
          <mxGeometry x="640" y="83" width="190" height="110" as="geometry" />
        </mxCell>
        <mxCell id="vetfrE1PC7fe9fAgu2xR-134" style="edgeStyle=orthogonalEdgeStyle;rounded=0;orthogonalLoop=1;jettySize=auto;html=1;exitX=1;exitY=0.5;exitDx=0;exitDy=0;entryX=0;entryY=0.5;entryDx=0;entryDy=0;" edge="1" parent="vetfrE1PC7fe9fAgu2xR-44" source="vetfrE1PC7fe9fAgu2xR-69" target="vetfrE1PC7fe9fAgu2xR-71">
          <mxGeometry relative="1" as="geometry" />
        </mxCell>
        <mxCell id="vetfrE1PC7fe9fAgu2xR-69" value="&lt;h2&gt;Finanses&lt;/h2&gt;" style="rounded=0;whiteSpace=wrap;html=1;dashed=1;dashPattern=1 4;fillColor=none;" vertex="1" parent="vetfrE1PC7fe9fAgu2xR-44">
          <mxGeometry x="350" y="208" width="190" height="110" as="geometry" />
        </mxCell>
        <mxCell id="vetfrE1PC7fe9fAgu2xR-135" style="edgeStyle=orthogonalEdgeStyle;rounded=0;orthogonalLoop=1;jettySize=auto;html=1;exitX=1;exitY=0.5;exitDx=0;exitDy=0;entryX=0;entryY=0.5;entryDx=0;entryDy=0;" edge="1" parent="vetfrE1PC7fe9fAgu2xR-44" source="vetfrE1PC7fe9fAgu2xR-70" target="vetfrE1PC7fe9fAgu2xR-72">
          <mxGeometry relative="1" as="geometry" />
        </mxCell>
        <mxCell id="vetfrE1PC7fe9fAgu2xR-70" value="&lt;h2&gt;Chat&lt;/h2&gt;" style="rounded=0;whiteSpace=wrap;html=1;dashed=1;dashPattern=1 4;fillColor=none;" vertex="1" parent="vetfrE1PC7fe9fAgu2xR-44">
          <mxGeometry x="350" y="330" width="190" height="110" as="geometry" />
        </mxCell>
        <mxCell id="vetfrE1PC7fe9fAgu2xR-137" style="edgeStyle=orthogonalEdgeStyle;rounded=0;orthogonalLoop=1;jettySize=auto;html=1;exitX=0;exitY=0.5;exitDx=0;exitDy=0;entryX=1;entryY=0.5;entryDx=0;entryDy=0;" edge="1" parent="vetfrE1PC7fe9fAgu2xR-44" source="vetfrE1PC7fe9fAgu2xR-71" target="vetfrE1PC7fe9fAgu2xR-69">
          <mxGeometry relative="1" as="geometry" />
        </mxCell>
        <mxCell id="vetfrE1PC7fe9fAgu2xR-71" value="&lt;h2&gt;Mails&lt;/h2&gt;" style="rounded=0;whiteSpace=wrap;html=1;dashed=1;dashPattern=1 4;fillColor=none;" vertex="1" parent="vetfrE1PC7fe9fAgu2xR-44">
          <mxGeometry x="640" y="208" width="190" height="110" as="geometry" />
        </mxCell>
        <mxCell id="vetfrE1PC7fe9fAgu2xR-138" style="edgeStyle=orthogonalEdgeStyle;rounded=0;orthogonalLoop=1;jettySize=auto;html=1;exitX=0;exitY=0.5;exitDx=0;exitDy=0;entryX=1;entryY=0.5;entryDx=0;entryDy=0;" edge="1" parent="vetfrE1PC7fe9fAgu2xR-44" source="vetfrE1PC7fe9fAgu2xR-72" target="vetfrE1PC7fe9fAgu2xR-70">
          <mxGeometry relative="1" as="geometry" />
        </mxCell>
        <mxCell id="vetfrE1PC7fe9fAgu2xR-72" value="&lt;h2&gt;Notifications&lt;/h2&gt;" style="rounded=0;whiteSpace=wrap;html=1;dashed=1;dashPattern=1 4;fillColor=none;" vertex="1" parent="vetfrE1PC7fe9fAgu2xR-44">
          <mxGeometry x="640" y="330" width="190" height="110" as="geometry" />
        </mxCell>
        <mxCell id="vetfrE1PC7fe9fAgu2xR-87" style="edgeStyle=orthogonalEdgeStyle;rounded=0;orthogonalLoop=1;jettySize=auto;html=1;exitX=0.5;exitY=1;exitDx=0;exitDy=0;" edge="1" parent="vetfrE1PC7fe9fAgu2xR-6" source="vetfrE1PC7fe9fAgu2xR-44" target="vetfrE1PC7fe9fAgu2xR-44">
          <mxGeometry relative="1" as="geometry" />
        </mxCell>
        <mxCell id="vetfrE1PC7fe9fAgu2xR-99" style="edgeStyle=orthogonalEdgeStyle;rounded=0;orthogonalLoop=1;jettySize=auto;html=1;entryX=0.25;entryY=0;entryDx=0;entryDy=0;" edge="1" parent="vetfrE1PC7fe9fAgu2xR-6" source="vetfrE1PC7fe9fAgu2xR-11" target="vetfrE1PC7fe9fAgu2xR-89">
          <mxGeometry relative="1" as="geometry">
            <Array as="points">
              <mxPoint x="225" y="242" />
              <mxPoint x="89" y="242" />
            </Array>
          </mxGeometry>
        </mxCell>
        <mxCell id="vetfrE1PC7fe9fAgu2xR-100" style="edgeStyle=orthogonalEdgeStyle;rounded=0;orthogonalLoop=1;jettySize=auto;html=1;exitX=0.75;exitY=0;exitDx=0;exitDy=0;entryX=0.75;entryY=1;entryDx=0;entryDy=0;" edge="1" parent="vetfrE1PC7fe9fAgu2xR-6" source="vetfrE1PC7fe9fAgu2xR-89" target="vetfrE1PC7fe9fAgu2xR-11">
          <mxGeometry relative="1" as="geometry">
            <Array as="points">
              <mxPoint x="179" y="262" />
              <mxPoint x="262" y="262" />
            </Array>
          </mxGeometry>
        </mxCell>
        <mxCell id="vetfrE1PC7fe9fAgu2xR-114" value="" style="group" vertex="1" connectable="0" parent="vetfrE1PC7fe9fAgu2xR-6">
          <mxGeometry x="390" y="32" width="150" height="140" as="geometry" />
        </mxCell>
        <mxCell id="vetfrE1PC7fe9fAgu2xR-141" style="edgeStyle=orthogonalEdgeStyle;rounded=0;orthogonalLoop=1;jettySize=auto;html=1;exitX=0.503;exitY=0.995;exitDx=0;exitDy=0;endArrow=none;endFill=0;exitPerimeter=0;" edge="1" parent="vetfrE1PC7fe9fAgu2xR-114" source="vetfrE1PC7fe9fAgu2xR-15">
          <mxGeometry relative="1" as="geometry">
            <mxPoint x="210" y="565" as="targetPoint" />
            <mxPoint x="75" y="135" as="sourcePoint" />
            <Array as="points">
              <mxPoint x="76" y="220" />
              <mxPoint x="210" y="220" />
            </Array>
          </mxGeometry>
        </mxCell>
        <mxCell id="vetfrE1PC7fe9fAgu2xR-15" value="skillup-rabbitmq" style="fillColor=none;strokeColor=#5A6C86;verticalAlign=top;fontStyle=0;fontColor=#5A6C86;whiteSpace=wrap;html=1;" vertex="1" parent="vetfrE1PC7fe9fAgu2xR-114">
          <mxGeometry width="150" height="140" as="geometry" />
        </mxCell>
        <mxCell id="vetfrE1PC7fe9fAgu2xR-19" value="RabbitMQ" style="shape=image;verticalLabelPosition=bottom;labelBackgroundColor=default;verticalAlign=top;aspect=fixed;imageAspect=0;image=https://static-00.iconduck.com/assets.00/rabbitmq-icon-484x512-s9lfaapn.png;" vertex="1" parent="vetfrE1PC7fe9fAgu2xR-114">
          <mxGeometry x="37.190000000000055" y="30" width="75.62" height="80" as="geometry" />
        </mxCell>
        <mxCell id="vetfrE1PC7fe9fAgu2xR-115" value="" style="group" vertex="1" connectable="0" parent="vetfrE1PC7fe9fAgu2xR-6">
          <mxGeometry x="700" y="32" width="150" height="140" as="geometry" />
        </mxCell>
        <mxCell id="vetfrE1PC7fe9fAgu2xR-143" style="edgeStyle=orthogonalEdgeStyle;rounded=0;orthogonalLoop=1;jettySize=auto;html=1;endArrow=none;endFill=0;exitX=0.5;exitY=1;exitDx=0;exitDy=0;" edge="1" parent="vetfrE1PC7fe9fAgu2xR-115" source="vetfrE1PC7fe9fAgu2xR-16">
          <mxGeometry relative="1" as="geometry">
            <mxPoint x="-59.99999999999999" y="565" as="targetPoint" />
            <mxPoint x="2.2737367544323206e-13" y="65" as="sourcePoint" />
            <Array as="points">
              <mxPoint x="55" y="220" />
              <mxPoint x="-80" y="220" />
              <mxPoint x="-80" y="565" />
            </Array>
          </mxGeometry>
        </mxCell>
        <mxCell id="vetfrE1PC7fe9fAgu2xR-16" value="skillup-postgres" style="fillColor=none;strokeColor=#5A6C86;verticalAlign=top;fontStyle=0;fontColor=#5A6C86;whiteSpace=wrap;html=1;" vertex="1" parent="vetfrE1PC7fe9fAgu2xR-115">
          <mxGeometry x="-20" width="150" height="140" as="geometry" />
        </mxCell>
        <mxCell id="vetfrE1PC7fe9fAgu2xR-12" value="PostgreSQL Database" style="shape=image;verticalLabelPosition=bottom;labelBackgroundColor=default;verticalAlign=top;aspect=fixed;imageAspect=0;image=https://upload.wikimedia.org/wikipedia/commons/2/29/Postgresql_elephant.svg;" vertex="1" parent="vetfrE1PC7fe9fAgu2xR-115">
          <mxGeometry x="16.21" y="30" width="77.58" height="80" as="geometry" />
        </mxCell>
        <mxCell id="vetfrE1PC7fe9fAgu2xR-28" style="edgeStyle=orthogonalEdgeStyle;rounded=0;orthogonalLoop=1;jettySize=auto;html=1;entryX=0;entryY=0.79;entryDx=0;entryDy=0;entryPerimeter=0;exitX=1;exitY=0.71;exitDx=0;exitDy=0;exitPerimeter=0;" edge="1" parent="1" source="vetfrE1PC7fe9fAgu2xR-25" target="vetfrE1PC7fe9fAgu2xR-24">
          <mxGeometry relative="1" as="geometry" />
        </mxCell>
        <mxCell id="vetfrE1PC7fe9fAgu2xR-25" value="" style="points=[[0.35,0,0],[0.98,0.51,0],[1,0.71,0],[0.67,1,0],[0,0.795,0],[0,0.65,0]];verticalLabelPosition=bottom;sketch=0;html=1;verticalAlign=top;aspect=fixed;align=center;pointerEvents=1;shape=mxgraph.cisco19.user;fillColor=#005073;strokeColor=none;" vertex="1" parent="1">
          <mxGeometry x="40" y="-660" width="70" height="70" as="geometry" />
        </mxCell>
        <mxCell id="vetfrE1PC7fe9fAgu2xR-36" style="edgeStyle=orthogonalEdgeStyle;rounded=0;orthogonalLoop=1;jettySize=auto;html=1;exitX=0;exitY=0.21;exitDx=0;exitDy=0;exitPerimeter=0;entryX=0.98;entryY=0.51;entryDx=0;entryDy=0;entryPerimeter=0;" edge="1" parent="1" source="vetfrE1PC7fe9fAgu2xR-24" target="vetfrE1PC7fe9fAgu2xR-25">
          <mxGeometry relative="1" as="geometry" />
        </mxCell>
        <mxCell id="vetfrE1PC7fe9fAgu2xR-41" style="edgeStyle=orthogonalEdgeStyle;rounded=0;orthogonalLoop=1;jettySize=auto;html=1;exitX=1;exitY=0.79;exitDx=0;exitDy=0;exitPerimeter=0;entryX=0;entryY=0.5;entryDx=0;entryDy=0;" edge="1" parent="1" source="vetfrE1PC7fe9fAgu2xR-24" target="vetfrE1PC7fe9fAgu2xR-11">
          <mxGeometry relative="1" as="geometry" />
        </mxCell>
        <mxCell id="vetfrE1PC7fe9fAgu2xR-42" style="edgeStyle=orthogonalEdgeStyle;rounded=0;orthogonalLoop=1;jettySize=auto;html=1;exitX=0;exitY=0.25;exitDx=0;exitDy=0;entryX=1;entryY=0.21;entryDx=0;entryDy=0;entryPerimeter=0;" edge="1" parent="1" source="vetfrE1PC7fe9fAgu2xR-11" target="vetfrE1PC7fe9fAgu2xR-24">
          <mxGeometry relative="1" as="geometry" />
        </mxCell>
      </root>
    </mxGraphModel>
  </diagram>
  <diagram id="jJPzOF1Ar5Ijz1JFrUd8" name="Application-Dev">
    <mxGraphModel dx="1799" dy="2129" grid="1" gridSize="10" guides="1" tooltips="1" connect="1" arrows="1" fold="1" page="1" pageScale="1" pageWidth="827" pageHeight="1169" math="0" shadow="0">
      <root>
        <mxCell id="0" />
        <mxCell id="1" parent="0" />
        <mxCell id="YHFHDH8k9fAFt5fq1yZ0-39" value="" style="points=[[0.35,0,0],[0.98,0.51,0],[1,0.71,0],[0.67,1,0],[0,0.795,0],[0,0.65,0]];verticalLabelPosition=bottom;sketch=0;html=1;verticalAlign=top;aspect=fixed;align=center;pointerEvents=1;shape=mxgraph.cisco19.user;fillColor=#005073;strokeColor=none;" vertex="1" parent="1">
          <mxGeometry x="44" y="-665" width="70" height="70" as="geometry" />
        </mxCell>
        <mxCell id="YHFHDH8k9fAFt5fq1yZ0-41" style="edgeStyle=orthogonalEdgeStyle;rounded=0;orthogonalLoop=1;jettySize=auto;html=1;entryX=0;entryY=0.5;entryDx=0;entryDy=0;exitX=1.004;exitY=0.813;exitDx=0;exitDy=0;exitPerimeter=0;" edge="1" parent="1" source="YHFHDH8k9fAFt5fq1yZ0-39" target="YHFHDH8k9fAFt5fq1yZ0-7">
          <mxGeometry relative="1" as="geometry">
            <mxPoint x="120" y="-608" as="sourcePoint" />
            <Array as="points">
              <mxPoint x="120" y="-608" />
            </Array>
          </mxGeometry>
        </mxCell>
        <mxCell id="YHFHDH8k9fAFt5fq1yZ0-42" style="edgeStyle=orthogonalEdgeStyle;rounded=0;orthogonalLoop=1;jettySize=auto;html=1;exitX=0;exitY=0.25;exitDx=0;exitDy=0;entryX=1.004;entryY=0.568;entryDx=0;entryDy=0;entryPerimeter=0;" edge="1" parent="1" source="YHFHDH8k9fAFt5fq1yZ0-7" target="YHFHDH8k9fAFt5fq1yZ0-39">
          <mxGeometry relative="1" as="geometry">
            <mxPoint x="180" y="-660" as="targetPoint" />
            <Array as="points">
              <mxPoint x="450" y="-625" />
              <mxPoint x="150" y="-625" />
            </Array>
          </mxGeometry>
        </mxCell>
        <mxCell id="YHFHDH8k9fAFt5fq1yZ0-5" value="Docker compose" style="points=[[0,0],[0.25,0],[0.5,0],[0.75,0],[1,0],[1,0.25],[1,0.5],[1,0.75],[1,1],[0.75,1],[0.5,1],[0.25,1],[0,1],[0,0.75],[0,0.5],[0,0.25]];outlineConnect=0;gradientColor=none;html=1;whiteSpace=wrap;fontSize=12;fontStyle=0;container=1;pointerEvents=0;collapsible=0;recursiveResize=0;shape=mxgraph.aws4.group;grIcon=mxgraph.aws4.group_aws_cloud_alt;strokeColor=#232F3E;fillColor=none;verticalAlign=top;align=left;spacingLeft=30;fontColor=#232F3E;dashed=0;editable=1;movable=1;resizable=1;rotatable=1;deletable=1;locked=0;connectable=1;" vertex="1" parent="1">
          <mxGeometry x="300" y="-710" width="1120" height="702" as="geometry" />
        </mxCell>
        <mxCell id="YHFHDH8k9fAFt5fq1yZ0-6" value="" style="image;sketch=0;aspect=fixed;html=1;points=[];align=center;fontSize=12;image=img/lib/mscae/Docker.svg;imageBackground=#232F3E;spacingTop=0;labelBorderColor=none;editable=0;" vertex="1" parent="YHFHDH8k9fAFt5fq1yZ0-5">
          <mxGeometry x="1" y="4" width="21.94" height="18" as="geometry" />
        </mxCell>
        <mxCell id="YHFHDH8k9fAFt5fq1yZ0-7" value="skillup-nginx" style="fillColor=none;strokeColor=#5A6C86;verticalAlign=top;fontStyle=0;fontColor=#5A6C86;whiteSpace=wrap;html=1;" vertex="1" parent="YHFHDH8k9fAFt5fq1yZ0-5">
          <mxGeometry x="150" y="32" width="150" height="140" as="geometry" />
        </mxCell>
        <mxCell id="YHFHDH8k9fAFt5fq1yZ0-8" value="NgInx" style="shape=image;verticalLabelPosition=bottom;labelBackgroundColor=default;verticalAlign=top;aspect=fixed;imageAspect=0;image=https://cdn.icon-icons.com/icons2/2699/PNG/512/nginx_logo_icon_169915.png;" vertex="1" parent="YHFHDH8k9fAFt5fq1yZ0-5">
          <mxGeometry x="185" y="62" width="80" height="80" as="geometry" />
        </mxCell>
        <mxCell id="YHFHDH8k9fAFt5fq1yZ0-9" value="REST API" style="points=[[0,0],[0.25,0],[0.5,0],[0.75,0],[1,0],[1,0.25],[1,0.5],[1,0.75],[1,1],[0.75,1],[0.5,1],[0.25,1],[0,1],[0,0.75],[0,0.5],[0,0.25]];outlineConnect=0;gradientColor=none;html=1;whiteSpace=wrap;fontSize=12;fontStyle=0;container=1;pointerEvents=0;collapsible=0;recursiveResize=0;shape=mxgraph.aws4.group;grIcon=mxgraph.aws4.group_aws_cloud_alt;strokeColor=#5A6C86;fillColor=none;verticalAlign=top;align=left;spacingLeft=30;fontColor=#232F3E;editable=1;movable=1;resizable=1;rotatable=1;deletable=1;locked=0;connectable=1;" vertex="1" parent="YHFHDH8k9fAFt5fq1yZ0-5">
          <mxGeometry x="20" y="212" width="870" height="468" as="geometry" />
        </mxCell>
        <mxCell id="YHFHDH8k9fAFt5fq1yZ0-10" style="edgeStyle=orthogonalEdgeStyle;rounded=0;orthogonalLoop=1;jettySize=auto;html=1;exitX=0;exitY=0.75;exitDx=0;exitDy=0;entryX=1;entryY=0.75;entryDx=0;entryDy=0;" edge="1" parent="YHFHDH8k9fAFt5fq1yZ0-9" source="YHFHDH8k9fAFt5fq1yZ0-11" target="YHFHDH8k9fAFt5fq1yZ0-14">
          <mxGeometry relative="1" as="geometry" />
        </mxCell>
        <mxCell id="YHFHDH8k9fAFt5fq1yZ0-11" value="&lt;h2&gt;&lt;br&gt;&lt;/h2&gt;" style="rounded=0;whiteSpace=wrap;html=1;dashed=1;dashPattern=1 4;fillColor=none;" vertex="1" parent="YHFHDH8k9fAFt5fq1yZ0-9">
          <mxGeometry x="330" y="70" width="520" height="380" as="geometry" />
        </mxCell>
        <mxCell id="YHFHDH8k9fAFt5fq1yZ0-12" value="" style="shape=image;verticalLabelPosition=bottom;labelBackgroundColor=default;verticalAlign=top;aspect=fixed;imageAspect=0;image=data:image/png,iVBORw0KGgoAAAANSUhEUgAAAgAAAAGjCAYAAABaGK0nAAAACXBIWXMAAAsTAAALEwEAmpwYAAAAIGNIUk0AAHolAACAgwAA+f8AAIDpAAB1MAAA6mAAADqYAAAXb5JfxUYAADNaSURBVHja7J0rTGw924a3QJAgMAgMggSFGYfBYEhQCAwCgUFhRmAwJCQIDIIEQ4LBYFAIDGrUKBIEhoQEQYJAYEaMGHV/ouV72WwOc1hdfdpeT3Ll//73tNesdrVXT0//SPoDAADmmZC0ImlH0r6kpqRVSQ3/93hHMBC8BAAA20xKOpLU0c/xIqkt6VzSnqQNSYuSpniHgAAAAKRFQ9KTRo+OpDtJl5IOJW1LWpY0K2mM94wAAACAHeYkvSl8dCW1JG0iAwgAAADEZcyP2OuOBz/rQBkgAAAAEIENxYuupCXKAAEAAID6aSluvEmaoRwQAAAAqHf6v6v4cUFZIAAAAFDv5j8L0WMWAAEAAID6WJGd2KI8EAAAgNyYlcuo15ZLovPqd96fyiXQifVc24YE4IR6ggAAAOTCuFxmvd4vnd9NpCnwI0MCcE59QQAAAHJZXx/kfP2r6j8Xf2VIAI6pMwgAAEDqrOn3fPpfxYuk6Rqf896QADSpNwgAAEDKx+qOR+wIW6ovTW7XkACsUn8QAACAFJnxm/yqiIManndatmKeOoQAAACkeJyu6st0VgI/86IxARinHiEAABCeSbmjaQu+o9n0a7C7fvR5LOlMLkPbpd8sdiXp2nPj//9L/8+cyx1pO/H//o7cue41uatgG37EmdsNcGP+94aI0ClyNw11/i98kwgAAFTTKc35jn1b7k72C7+2/KTfj6SFjJ5v7G+9SJx4WVjzkjCZ0HueVvg8+u2A0nRgSABafLcIAAAM1tE3/EjuyHeoj5E7+KpGvm0/o9CUuy1uyti7X5I7tldHHAX6DReGyvyM7xkBAIDvE8os+A7xQu74Vuod/aCxbKQs9iK8+6p3yI/5WRgrscs3jgAAwH/Ty+t+ivy2wM7+q4i9PDDl9z7EiI7fszFMMqJ1uTTEF74uvRos23W+eQQAoFSm/Dr4iaQH+vp/4ily+Sz4vQsx404/75Qf90sT+15UOgmV7wJtAAIAUBILfjq5zQj/17iOWE7LspMw5/SLmaJt/366CZfvFO0BAgCQ+zr+qtyRuVf69IHiOFKZzRgcSW972pmU7RttAwIAkCMTfmr/IrEpWWuxE6n8Lnn1weOWdgIBAMjpeN6K7/S7tO+VxEak0T9LM+HjKpKYN+T2TDREFkIEAGBEGnJntl9o0yuPlQjlucVrry1ufGdcx36Omy/ErutFZJF2DAEAGGQksSVbZ6pzjKUIZXvEa689WgpzImBygOWcM2YEEACA30b7J2Jdv66IMTI75bVHiwsNl/fgu2/1aYgZiTHaOQQA4COrCp//nbAxA3DIa48aXbljsqOMxrc1/D6cY9o7BABgwjckj7TJUeLNj+LqLvd1Xr2JeBxiBmhC1dx1sEb7hwBAmUzKZVV7ow2O1vBv+8Y8VvlzisNOHPc5GzCv6rJpduTSKdMeIgBQCFNyV6Wyvh8nnuU2VlpYg2UjoK24/2U2aDOAtP2WghkQAMik4z+k448WPS9eE7K1/MPSj63oekH8nGXzLOCfyXXFCABkyoTcZiM6/nhx56durZ74YCnAXpz7jn/O15/QsUFbiQBAXhn7tkXinthxJPtHrkgKZFcc6xL3rmFJRQAABmBVXLsbOzpKa5f1BUVWfDwYW6JCAAAGYF4uyQcRN14V52jfqEtFSCNxQTuKAEB6R/qOxOUuFuJZ6R6tmhf7AYh/NyECAgBG2fAjTsJG5z+beH3apBiLj26CM1gIABTFLNP95qb9c9lEdUZxFh+PfmaRthYBAEOMSdphqtZU9JTXVavjqufoGWE7LmlvEQCwtUbL1bz2Isc10zmRO4KQmrS7CADEZ5Sbv4hwkfOuaS4MInpiPwACANGYEWv9VuNZea+TrlDEhJ91pC1GAKBm1sRtfZZjOeO6N0fdIz7EEu0xAgD1bcI6oc0JPrX5Jrd7/1nSk9zO50f/v5/l0ii/fbP0cpl5/WMTIPExjmiXEQCoZ+RF4ztcvPjpyku5+9V35c61r0ha8O92SsPl5h/z0/2zcmuiOU/9n1KViE9xQ9uMAED4TVfsvP45ur6TP/Md/Krc6QjuNK9u2YkgPkebbwMBgHBn+w9pY77s7Nt++nHdd/Rj1JdgTIt1f4IZAAQAas3jzy5/F29++n7bT9nT2dfLJVWQ+CbYA4AAQMXMy206KzV6Xn6a4qwxU/+E5VjkG0EAoNoz1iWu97/Krd+virvHrTAhd+oht+Wje0nXvr4dSTqQtO+X2078jEdbXKb1W7D+jwBAhWyrrKt7X3yDu8S0vkly2H/y7Dv6DQ13KdOUXF6HPUktcbX2R5Fidg4BABrbgaIj6VwkELHOrNJNMf3sv6cQHdSkl4mbgmWgJ7f5lu8EAYARGZfLG5973PiGk+n9NEixTrb9ElJds0kzXjRKOiHxirwjAFDdaKKVcWPx5tdY5yjrpGgk2PEvRf6O95T/3p2W3JFQvhEEAEZkSvle4Xsvl2mPJDz1bdbb9EsrLd8hXnr52vZr2LMDjIxTOfb3bGwqetqXQY5xIPbpIABQWUNxn+k0/zLlW/vG0X6noHty9xncyG2+3PFT5o0PSzPzidS1U9lNu7ysfE5PvMmdTOJbQwCgonXD3M74X4odwTGyRFY9Un9JoON689KSwvJe6gmU2r694ntDAKACZv0IjI4fRiXXqebflpZmEyunnUTf9RFT/ggAVDvyz6Xzv6bjj8pqgZ1/S+netLimdI5UpjLDggBAUmv+OUz7x95tDY7bwjr/a6W/oXQ5AQm4TXCGBQEA87v9HxJvgF9E4g8rzBXW+d8on9Mky7KbPOhEnNpBAKDyzj/l3f49ueM/JO+xw0ZBnf9thnVv3ei7JlcHAgAVMuGnzFMeedEo2GO/kM7/Rfkmndkz+L73+bYQAKjuiNZ1og3vqx9lUo7s/o8585T7NbPW2ocHvi0EAKrhLNGG99wvW1CGdmkXIAB7hSwPWrtueJ7vCwGA/Kb3+hn1c/QnDXK/o/5W5Zw/XzP27nf5vhAAKGuD1pW44COlfSW5T/03CivTK0Pvv8U3hgDAcCwqrfvTu3J55Cm7dGhkLgBnBZbprOwcDeyJEz8IAAyV5S+lqdkHkcmPKWN7QlrqTNSJoXLgMi8EAAZgXGllZrvA8pNlJ2MBOC64XKcNzQIc8J0hAJDfsayepCbllTSnGa/9l56C1srJoRu+MwQA+qOZSAP7xtReFtxkKgBXlK2Z/R1vlAUCAL+zILt5vT9Gileowtc8ZSoAHEF1WFlKnKEsEAD4OYnHcwIN6zXr/Vlll+xl2Pl3xL3z1vZ4IGQIACiNs7vfxRkNa1bkegvgBWVrrox3KAsEANJd99+nnLJjOVMB4N6Jv7Fwdfgp5YAAwNcbdSxPw/YkbVFOWbKdqQCw3mzvpAcnARAA0L/n/e+Nd/6MpvLlKMPO/4Vy/YdNA+XCzYAIACTUAPfkssRRTuw7SSmuKVeTxwHf04Sv+H0J7CVCAIpm0Xjnz67d/LnLUAAOKdcvZxottjFPfmngVO7WwDUvK5wyQgCyZkLSI50/ROYxQwHgMqqveU6sHF8lteVOHq17iaEcEQCm/gPHOuVDkpiEA3nNs6xfxX4kBCADLGf7Y/RUFmcZCsAi5fol15mU7ykCQGVOOfOa1V3/u5RPcaxkKAANyvVLLjMq4wMEAFJk1+gHdUzZsBEwk5inTL/kIrNyXkAAICVm5I7CWIsrcSSHJSkEgBmAtOIaAQDOXI8Wd+LIDbiNn7lIwALlmfUegPfoSZpEACAFLOZcfxEpU+HvvBQ5HAtcpiy/pJ3hfo8lBADY+Dd4dBkpwTd1dcPPVr0k2ilsUo5Z5AHoJzYQALBO0+CHw+U+0G/Cqobc2fodSSdymdseDS8Z7FNuX4pdL0MBWEMAwDKTkt6MfTRnlAtU1KnM+in3bbkUvBaSzVxQNv8wrzxjAQEAyxwa+2BuRUpNCLuZMHZw65zNcgkRUwgAcOyvv+j4ERtlAyE3ElqIScriL3K89rlTanlSoUmzOkyQ4x/qkF4LwX0AeSd7ep/NRADAJHPGNt2w7g91YWHW64Ry+D9TmU7/XyIAQNrN3+NJJPuB+rBw5PWZcvg/W5kKwCECAFZ33Foa/XM7GpQov9R7x02mArCFAAAN4M9xTHlAzVi58IplLzt7MkLEEgIArP0z9Q+2sJL2uitOAxxkLAAzCACw8//7ICc6xEp+ZSV2Cy6HCdlLQlZV9Er+xmhk7E63WRn9n1MeEBErx85eC54F28l49P+AAABZ/76ONxWaIQvMcGKos9grdBbmLWMBuEYAwNp0W8fIx7FNeUBkVg11Ft0C14uPlHccIwBgiaaRD+Ne7pIWygRiC7Glo7BXBb37hvK8+e9jNBEAsMSjkQ+DjX/A+fOvo4RU2GPKM+3v51hFAMAKK6yLAfzDtrFOo1PAUsCRyoh5BAAY6fwXvdI/CjDHtMGp6Jyvw15TOTGOAIAFZo18EGQ9A+S4v7jI8D0vyNbV4yGj+HseaFg4+vcxStzlDGnMANwa7USOMnrPc3L5DkqJKwSAxsXKhhsLHx5Xn4I1lhPolA4z6fyfVVZsIgA0MJx1/m/0P01ZgCH2lM4xtJTluSHppbDO/7n09X8EwA5XNGAA/2dKaV49e6n00gWvyE7isTpjhe8MAbDS2MUe5fRY+wcjLCY+Gr3z0+kpvOtd5Z/o56sgwykCwBnnD3FOOYABdjLpkDqStgy/55lEZlhafkZl3i+T7viZymu5hGmD1pVnRv4IgDXaBj40zv1DTCaNLINVHTfGZgPG/IAjlSn/5T5+z6ykJS9ch34Z5k7uAqOe3AbSa//3x/nWEADO/v/bSFEWEPPc+VPG0809uQtnYt+quSp3v0cq0ebbQAByZzcBywYIufxVyhp0Vy5nQJ17bcbksvrdJvi+lvg+EIDciX3ZxiNlAJE4VZnR81PSawp3YmBO0r7SPdfPXSQIQPbMGfjQmpQDRGBfxPuswJWfCRllH86k3Oa2w8Sm+b8TJPYkIQBM/9fQ+ExSDlAzDZV59Kyf6Pi173MvSdtyVw+vetbkstft+OWEK9m5PryqOOYbQQDY/R8+OPoHMbignye+iRcGJQhACUwb+NgWKQeomXGVc9McMXis8o0gACWwFflDY/MfxJr+J4iv4oLvAwEohcvIH9seZQARWKafI5j6RwBKZkzxM3HNUg4QgUX6OuKLyPnM/6bl9pZGqX6WIn9sZNiCkve+ELZiP/P63vEzHPMIAPyRdBD5g2tSBhCRO/o8wkfuacg/LvW+ye2BQQAKJ/bxv2nKACKyRb9HyG1Eznndf/WL3/wmd/cFAlAok4qbBIXpf7CwB+aW/q/4uMp86v/1m9/dsSQBNEj1MS+XqjNm7FAOYIA5pXMlLcFy5KCCe/PL7zazHEBjFLbD3/brQK9GPrg5ygWMsEb/V3z0lF9CsqM+f/urhfaYhqg6puTydp/L7fq0uOZGOYEljukDi49n33bmUJ+3h/jtUfdk0QiNPsrf9Wvr1i84OaK8wOB0aZs+sPjI4frf9SH7gDtF3AxJIzQ4C74zTe0WrmXKDgwy49dEibJjt8DO/z1uvAwjAEZp+E7/OdGPqyt3EQtlCRZZof8rPnpKMyPgdkWzv+cIgL2Rya6khww+rhvKE4xzSB9YfLwqnTwlY+p/w5/ZWRAann8Ldd13mL2MPqxdyhYS+PZaNX4TLDvYjFas6fABmNbvR/2GnQVZQQDqZ9aPQF4z/agWKGNIgOmavsFLSRNyWQl79Lnm4sD4clXIOtpRjccDS29wluV2oOYcnQSMGuCdpYCdcs+v2X7e1PtMn2suVozVyym5dfo64kE1nQwosYEZ9+Z/X8iHxPo/pMZegO/g6YeZsKkCBgKpxYufpbHQX+xEWDK6RACqZcIX5EthH9I+HQokSJVrrFfqL9nMttyJGcJGNCP3F9uR+4stBKCaC3j2VO6mnxXRmUCamTVHbXx7GnwD7Jzq3YxIfB+3kerermzcVdFV4DsDch/x74rdvpOiM4E0WdTw+wFeNFqe+S3ajujRU5z9SzeG3sFDyKWQXI8TbSvfHf2DBPn/obT86vINeBX55acknYiTAjEjRl6AG2Pv4BQB6I9VpZeiN2Rc0oFAJhLQTyfc88t9Ie78uKQ5iRIxLgq6Mfgegizl5nQpD+t2/8YOnQdk9I1f/iACNwqf72JBbkMhUU+8RaprFvuSlxAylMM6/xFTdN8GFwBBjpsDV+V2iDclrUWYJubugrxnMO+Mvo8LBODv6f4XvhFz02cAJSQQI8JHrMuBLPcrq6ULwDTrcX3FMw01gJmNiVbjTjbzo1xFHlz2DLfrlZ0KSO3DWxdHc1L4gABy5ijhdqEnqS13RPpjzvklQ53eg4HZyxXZTQp1WJoATKq+PMy5BBkAAcKQ2kbAe7njjGv6OS/IroFnbcvOlcArRmcCenKbYosQgEVxWUf0tSIA+D9W7xF58x3omZ/WX9LgicBi3olwJHsXl60ZlYBWCQKwK3b4DxszNNQAQegY+s53/WhwsqLfNhVhwNUxPmDZynWQZ3nKn9u5RhsJ0FADhNmEbCkaAX7jQo0DrztJswmU+4HBdv5h1BkTqwk/yOY3WnAFMEC4JUlLESpPfLOGZz+Ru243lbK3uA9tOycBWDU2vZZqHNJQAwRhw9B3/hL4t4Y6bt3x7zHFe2baxtr611Ek0NLL3aHfHji6fgrt3K8FrsjODlqAHNk39P23a1iKfar4me9V0Q72iEtA1jal76YsAGN+Koj4OZ7kjh/ty+VDmJe9HbMAuXNhqE04r+H3NlTdefjzgEsWdVLlO6ki3oZ9r7Ff5LjI6vdVPPiPpenXHCdpeAFMYGkKeK+m3zxq5sOu3E56skEamwWI+QInxA1+7+thN/5jXqKzBzDNq6G2o8519GFnPh4V5qSCBSwNXoeaBYh5zK9dcId/LbfnoUGDCpAME8bakgXVO1s76IDtMvMBTYg9EqPEdgoCMCnptrBO/05uZ/4S6/YAyTJrrF2pO1/+hFyWwX6m/LcLqROWjoU+WheAUjr/nrflptJIcgEAaSUB6kR8Dwtye5Rev+iAjlReFlJLl0OtWRWAiQKm/VvefKdoLAFIAxx4VtHC+5jyg5yS9y6Ny23cthBtiwIwJrfRLcd4kNuBSe59gPyxsvHrkrIwxZKhPqlhTQByO+rX9VNgi1R8ABr6CHFAWZAq+Js4tSQARxl1/E9yu/cnqewAzAJEDK77tseU3HE8C/tDJiwIwHYmHX/bb65gBz8ATMqltI0Vb0rrEp2SsNLnbcUWgGXVd6VkqGj5KT8qNgB8Hu3F2tfU5P2bZUw2brO9jSkAM7KVMWuYET8dPwD8xrrqPd10w0ykeVaN9GPzMQRgXOme9b+Xu1GPSgwAg84ILPmp1wO/T+BO1R4bbLH/KBks9IEHMQTgPMGO/9V/uJg1AISQgwW53P17vo1sSXoZYFPXLu1TUqwY6Nee6haAzcQ6/p7cVcRYNQDEYMJP1a7KnTA6kbv2+9r/7w3lcYUuswBxYrEuAZiTnSxZ/U73L1BJAQAgAGsG+rmTOgRgLKF1/56fhmM6DQAAQp4IiH1b4HMdAnCQSOf/wKgfAABqommg31sIKQANpXHe/1QkzwAAgHr3eMReGj8MJQBjckddLEdH7qwulREAAOrm1MDMdxAB2DXe+T9pgJuRAAAAKqZhoC+crVoA5oxP/bfkzt9SAQEAoOQjgdtVC8C14c7/QuzyBwAANgNKLrdEZQKwYrjzP6ayAQCAIaYiz5h3vhoUD7vx79Fo579PRQMAAIPcRO4fF6sQgKbRzn+XCgYAAEbZtNZHDnOm0eI1v4z8AQCAZYDv42ZUAdhjzR8AAGAoWpb2AQxqL9Yu+7mgQgEAQCLEXkJfGFYADo11/m2R2hcAANJhLnK/2RxGACaNjf5fRJIfAABIj5g3BF4MIwCWUv72xI1+AACQJjHvBngYVADG/YjbSmxRgQAAIFHWIvehk4MIwJahzv+KygMAAAkzFbkfXR5EAKxc98u6PwAA5MBDxL50p18BWDA0+l+h0gAAQAacRexLz/sVgHMjnf85FQYAADJhM2J/etuPAExK6hro/F+Z+gcAgIxoROxTu/0IgJXNf+z6BwCAnBiLPMCe/U0A2gY6/1sqCgAAZEjMPnblJwGYNTL6X6KSAABAhsRMCLT9kwBYuPXvhgoCAACZsh2xfz3+SQAsnP0n3S8AAOTKUsT+9eo7AbAw/X9F5QAAgIyZjtjHPnwnAE0DArBI5QAAgMyJdctu5zsBaEXu/FtUCgAAKICYy+2Tnx9mQu663ZixRqUAAIACuIzY185/fpjVyJ3/i1yCBCoGAADkzlHE/nb588McRxaAAyoEQHYbnRYlbUja9Q3emR/53Pglv3duJF37v3ciaV/uqNSKpHkGB5AhMffcbX5+mIfIAjBHhQjKgm98rXDqG/ojSYdeAHfkLspY9R3HdI3vZ9vY+wlByPc5Jne0ac935q8Vtw9dueygJ75+TFT8/PMFlP9vcPy6XtYj9rc7Hx9kKnLn36YyBGdDaUbHN/xnXg5mAr2fK+Uf8wHF8q3m39LzZbZa0ezAsogN2slaWYw5425p/X+byoAADCiMW5LGEYBoArAsG3eGSNKzb0PGhQAgAOkwF7GsTz8+yEHkijdNZUAAhogXPyuAANQnAHN+it9iPMlfdIIAIAAJMBmxrC+tnP9n+h8BGDWu5ZaxEICwArCtuNeY9j26GWI2AAFAAGIQ6+j9jYWMRJLbHUxFQACqGP2NspEUAfh5g99FYr+17UdYCAACYJm3WN+HhXUIiZ2nCEC1SwLDbhJEAL5m3PCU/29xq/5PCyAACEAMHiOV9b2FDYBvVAAEoOqKreGOiCEA9rKVVRFXCAACYJhY6YCf3h9gL2KFu6QCIAAB4hQBqEQAdjP53U0EAAEwSqyTNC8WDH+HCoAABIpBb5VEAP6mofh3g1QVXf2+NIQAIAAxaEUq646FG4m4+hcBCBUtBGAkAWhn9tt/m21EABCAGFzHkuLYJwB6qjaRCyAAn2OQDaYIwH+sZPr75xAABMAYsdqdbuwUwPcUPgIQOE4QgKEEIMS05JPcfqMlucRf43LHC6e8qG350VAvUn1AABCA4gRgIWJlu6DwEYDA8YIADCwAswH+3EP1n69/LuC06NsPz4EAIAAlCUAv9m1EexR+8gLQkztG2g9rfpS3J+nczwDFnvZFAP5lp+I/82jI+hrqrvQVBAABQACcADQjVrZ1Cj8LARg1r/ypkXoW4kO8kMtGZ4V+RuFVjr7fNNo+nxAnlI4RAATAEFE3AR5GrGxkAEQA6lie6HemKYQAnCdYT14q/P2j5vmYVvWblO8QAATAELGybHb++AYqVkxR+AjAB44D1bN+kwIhAG60XmWcGKwX350+mpFboqqaVoB61Q70rHO0k8XkAXiNOv1AwSMAX4z2QuwA73ezKQLgyqDqjmrUZ2oEKJdGje/0JGKdBvvcRuqDn2PaxxMFjwConrzY/U5DIwBuFFx1rBlYlujJ7Ud49A3uEgIARniI1Ac/xswC2KbgEQDVs+mLGYD+CZEXpFvB2vK5HzTc+UHLlS/XE0kHcicXtuQ2fK7I7S+a9zMaE5HfKQIAde25GSTu/viPKkZcU/AIQE0CwB6A/hlTuEQ8t76TLm3vDwIAP9GN1Ae3/vhpsRjBLYAIQF355zkFYOt+8p4v5wM/Wp9EABCAQhlXvLiKeQ/AGYWPAHwx/Rxi9LmOAESfhfktHnybkONOdAQA6txz03fbFHP64YTCRwA+ESonxRwCMBBbih+vXkS25VITIwAIQI7ETMV//Efx7vs+pvARgA8sBaqLzwM8AwIQ9jjmKPHkO9IVpXeDKAIA3xHz1s3dmAJwROEjAHKbzrYCzkQNUs9C5eTuRWaYb+1SdqPjn29d8Xf4IwCQ6mzbFgKAANQtAGNySVi2/Jpv6CMw84ovALFjmNm2RiK/reNnWSynFUcAoO5lz35ihT0ACEAVcdkH13IbveoUzqsB3w8C8Ddnif3OW1WTdAgBgLq4iPi9LMQ8BsgpgHwEwGL0Bhz9IwD/Mim3hyK1uNf3V/4iAGCJdsTvZOaP3G7bGEEFRgBCxsEQ7wcB+HopoJPo776UjaRDCAB8R6wBeE/SHzIBIgA5Rlv93XuPAPTHsuItFY4ar/75EQAoIe12v/H4LgDcBYAA5BSPI4z6EICfj2m+Jfr7e3L5BBAAsMRixG/i5l0AWjENBBCAiuvUzAjvBwH4mdmIA4YqYgcBAEPEPAJ49i4AsRq9DhUAAagwWhp9vRcB6O8Y557sJQrqNzaEAEC+m0P7jd13ATiP+BCTVAIEoILp3T0Nt+aPAAzPnOIeYRo2uhr8dAgCALmdAFh9F4CYiQjmqQQIwAhxqWovjkEAhjslcJHYjMAtAgCRGVPcjbVz7wLQjG0hgAAMEC9yWSRD3BiHAIx2q9m+wmd2rCo2EQCISCPyrOnYuwCsRXyQHSoCAtBHtP00f+h0rwhANSObFblNRpZPDdS5CRkBgM9sR6z79+/PEfs6wlMqAgLQR7zne19EAMwLwGcZWPYzNg8G30td2QIRAPhMzL13Fx8FYCbyyI7KgAAMErcBG+4QAnAud31tTMaM1L8ZXwdPjQjBOQIAkXiKWO93PgpAzAuBOAqYx22Aq551X7muaqhTF6r+KtirhDuZVDOhrfkO8j5C+/OGAEAEZiOL79JnAbiP+DBzVIgsrwOe9FO/IXeHt/wIFwHIgzkvkHUej5pHAKBmtiILwORnAbiM+DDrVIgsBeCdlcAScFXhFDcCYEsGTmqYSVpHAKBmYva3Tx+f5f1/xMwFcEyFyFoA6jDeIwQg6+nSkDMCuwgA1MiY4t6uefGVAMTcHHZLpcheAOrYYb+BAARj0nfEDb9+uCp3jr4pd/b/2P/OK78sc+f/XlV//rjC3VlyhABAjSxHnv7f/koA5iM+UE+kBC5BAKYDm28VKV5LFoDmpw78acTyuqz4+aYUJq/ACQIANXIcWQDmvxKA2GkJyQiYvwD88dOtIeNuxP0AJQvAaci1xorYS3QJEgGAd54j9rP/nHr5+P/EvOaTfQBlCMB4DR/AHgIwFCHkrOod9o0Az3iAAEBNLEYe/V//JACnER/sgcpRhAD88WvHIaPrlxsQgMFYDfDbq95gNxV6TRQBgIRm2QaN5k8CsBn54cgHUIYAjCl83olhZ5RKFoDpAL/9UdVmIQyRtXQZAYAaGFP8uzHmfxKAucgPx8VAZQhAqNHm52eaQQBMpCfdNF5/pxAAqIH1yP3r81fP9fkvxDQU7gUoRwD+KNyxrvc4QwBMdFRvckcIq3i+qvMBPCT8XhGAtLiJLABn/QjAVeSHnKWiFCMAoW+h7A2xrBSi/rf9OrMlvtsjsRKoLB40/L6Md3YCPNeREACoJ6tl7FjrRwCakR9yl8pSjADUkRJz0EbySmXEwg/rlC+B/synH/7cfnIUhIgGAgA1EPvsf1ffXJz2+S/MR37QeypLUQIwp7D3BEiDHUUrXQD+yB2LCzkrczrAzMx8wDKpc8kRASiXScVN/Sv/Df3pRwD+SHo13DhBXgJQx9GYKwRgoG9sWvUkBbv1U/Bbfulhyf/fLf/Xb2NMiSIAUDG7Br73zUEE4CLyw55RaYoSgDo6nH6lEgGwMWVZh3ykvrkSAbDPhIEBdU8/nHSxeFyhI+4GKEkAQk87S24HLgLQvwCEyrufyu9HAKAKdgzU9R/bvu/WLHqRH5qcAGUJwGQNpryEAAzUAW5m+tuPInx3CACj/1ixMagAWDiz+KRqM4iBbQGo4wRKP5u+EIB6T2nUHe1I7QoCUB77Bup7R9/s/v9NAJoGHn6dSlSUAIwpTCa6j7GCAAwkAJNyZ/hziGeNnosAAYB+U1Z3DdT5X5OQ1ZkXfNC4oyIVJQB17D/5bfMXAvAvswqXG6CueFHcu0YQgLI4N1Lvf73nImaq1n5ilcpUlAD8UdzjXwjA1zSU7qbAew13LwQCAMOwZKTeP/bzvD/9zS1mARCACAKwHLhOPej7dWAE4OekTY+J/c4L/bIGigBAhYwbWjLrayP9b0eBegZ+CHsByhKAOjahbiAAQ+9sPkvg970aazcQgDI4MFL/u+rzlssUdkVXfac4AmBfABqB69R3p0wQgP5YlI0lwq8avkPZyyOCAOTPopEBszTADaS//QMrRn5QkwpWlADUkZFyCwGopNG7UPwdz8+S9vod9SAAUDGTCn+CaZBoVCUAIW8HGyQ6hj9uBCDMs84GNuoXv2aHAFTTAK77kUdd7cWj71iXEpghRADy5sLQt30zyLOntK5xSkWrJDvVXABCnqedC8hnAZgO/OdZYTxwPZuVO22x7xvHtheDYYSuI7eT/9K3RWuKv6t/UKYClOE07Rnpfr+IpaoFYMbQ2sYiFQ4g+enSOT9NueAbrOUPLPm/PifuBAHbLBvqG6UhLrnq9x+0khL0QWwIBACAuMzJXm6M1VACsGjoR+5T+QAAIOKSjrWcGENdcW0pQ9sgm84WqIQAABBhH9Wt7MVKaAFYN/RjH2QjwxcAAJTBmOLflPtVtIf9TYP+C5ZuBuNUAAAA1JXm91o2Y7EuAdg09sNJEwwAAKV2/iPlgxhmCsRSxqOOpHkqKAAAFNb5dzViToxh/iVrswAP4rwwAABUv9u/Lbsx8om4YTdCPBh7EdciPwAAAFTDrMF+7mM8qoKMnsP+i2sGX8gxlRYAAEZkQe5KacuxVMVvHeVftjg10qTyAgDAkGwq/u2Wv8VZVb93lH950ejL4WQAAAAMurR9LPvxqgpvxh31P3Bh8AX1NEROZAAAKJIZSS2lEStV/vYqXpzF6ZKu3E1NVG4AAPhpP9tbIp3/SdW/v4r/yK7Rl9Wt2pYAACALJuSyyaYS96pg138IAbB4LPDjcsAalR0AADxLsneb32+D2UaId1HVf2jR8MvrSdqi0gMAFM1kYqP+99gM9U6q/I+dGH+JB3wAAADFrvW/JNj5B730rmq7ejb+Mi/FNcIAAKUwL5tX+PYT7RDr/qEE4H1tJYXNFHN8GAAAWU/3H/sl4BTjWdJ06PcU4j96lMDL7YiEQQAAOe7u31U6R/u+658adbyvEP/RcT/KTiHOWBIAAEieMUnbia7zf4yeasxhE+o/3JD9fMrv8aSKLlYAAIBaGfcd/5PyiFpPrIX8j28luNtykg+qVqYk3RqlmdF7vjH8nqumLZfW9Vpu0++Z3AmgptxO8EZCs35NQ+91x+BU/04GI/6PsVv3ewz9B1wkVgCvImdAnWwbnxnK5T2/ifiqfC99J7Lgp5CtlZul/VQnRt7JjBe63Or0UYz3WYel3SdYGLfiLoE6uDVeD3JZGkIAfo+OF4J1QzMECMDfyeYulO6ufpPvto4/ZC7hBujGVzw66zDnc63HOQJQZHT90sECAhC1k5r0M7K3Gde105h1rK4/aCVxc2uJi4VKPC7aVR6nRBCANAcBpQrAkpfvbuZ1K/qySt0bWlKPB7l160k68JGP7LwmUuabCAAh6UrSLAIQnM1C6tOxhbah7j/wJJPC63pD5fjgcKwmNvuDABDv330TAQjKVgH1aM9K2xBj5HeVWWE++w91QXTs/XKZWBnPCgEg/ovrmmYBEYD8YttS2xArcUM708J9lds8tMYywY9n/1PbD7KPABCf4lHh7xRBAPKaPVqz1jbEvKjhPvMGoie3e3WeTj/5vSCp5wRAAMIJf8jvGwHIp56YPE0W8w+flttUl3tweuBv7hItx5T3eyAAYRv3UDMBCED6cS/DS4gWsjo9Zd5AIAB/3xGRaqScEwABCL8cMIUAIACf4krGjxFbSe2YswQgAGmd/f8uUs4JgACEj2sEAAH4EHsptA1WHmQm4+UABCC9s//fxSYCQPwQVV+YgwCkF28ptfmWHmZaeW4MRADSO/v/XbQQAOKH6Kna/QAIQHrtw0xKbYO1B5pUfkcEEQBHLvkfUswJgADUFzcIQHEC0JM7KjyWWttg8aEmlFeyIAQgzbP/30WKOQEQgHqjqptEEQD78aSEL4yzvF6cS9pgBCCPeyA+fvAIAPFTtBGAIgTgVIlfFpZCx5H6yBEBSPfs/3eRWk4ABKD+qGJUiADYjOcKZ3kQAP1+lXDKDVjpAtDIsHFPLScAAlB/XCAAWQrAsfK4IjwZAfgjt7M21RMCpQvAcYaNe2o5ARCAOHVkEgHIRgDulPBaf+oC8L458BwBSO7sf66dzyYCQPwSGwhA8gLQkVuKHsuxjU7xoTd9oSAA9lnLuHFvIQDEL3GJACQrAD25TX5TObfRqT74nNxNewgAZ/9jRio5ASwJwI5cUqjfWJO07oV/R9Kh3Lr6ndLZGPyGACQpADdye5eyb6NTn17eS6AxKFUAppXP2f/vIpWcAJYEYKGC3zMudxLjWPbTS4/SkSAA9cadMtndX4IAfNxlbnk2oFQB2ClgijeVnAC5CcBnGdiW3WXBLQTAvAA8+tmm4trpnH6M1UagVAHI8V6HryKFnAA5C8DHC8Us5psYpeNEAMJ3/JvKdINfaQLwPu1s7aRAiQKwoHIihZwAJQjA+10i1m4VbSEA5gTgofSOP1cB+NgBWblUqEQByCWNcz/Rkf2cAKUIwPsGYUszgS8IgBkBaMttMOVytswF4J11P82DANTHeKQOJ2ajv4kAmBEAi/tPhh1pIgCjR0/uNNKS6PCLE4D30wJbcvmbEYB6pCtG7EeUgJYQAEsCMOZH3lZiGgGoXQA6/v3Nio6+aAH4LAJ1zwiUJgDXkRqoebnEK7HCckNTmgD88UJoJRoIQG0CcCe3IXxCdPAIwDcisK769giUJACxzv6/H8fbjNhAWs4JUKIANAz95mFzyCMA/Y/2z2qsWwhAJizIZRcL2WmVJAC7kRqnI//nTyle8iHLOQFKFIA/srMZcNjkMgjA70tvm4z2EYAqRq67vhFHAIYn1hGsjxt8WhEbSasbjUoVACt5AYZtAxCAf+Pet9Uz9FsIQAiW5C6B6ET++Dn731+86e9d1jF3gFvNCVCqALSM/GYEYDQBePBLbPP0TwhAncfZVv0SQSfCx58ap5Eapgv9ew48VljNCYAAsASQmgDc+06/QV+EAFiQgRX/EQx6nHClkPcTq5NZN7QUIdnMCcASQNxgE+BgiZzm6HMQAMvMS2rKHXnrIADRzv735NK/Wmo4WwiAGQGwsgmwgQAAApDvscIFLwQX+ncjYQkCcBOpUbrR9/s4YsYsAhBdABqGfvMMAgAIQFmnClYk7Sn/jSszinf0bvsHKYvZ6e0jANEF4NDQbyYVMCAAwNn/GkdW5xGf6wkBiCoAk4Z+M5cBAQIAnP2vOO5+ea61yA3mEgIQTQCODf3eFgIACADkyKLhafbJiEsTkq2cACUJwKpsxQkCAAgAcPa//o7kJuLzWcoJUIoALEvqGhOALQQAEADI8ex/rGNW/a6rbkduNDcRgNoEoBl5xue7mEcAAAGA3NiI2Bid9vmMMwmv/yIA/Y/627IZbyP+NgQAEADg7P+nGCS3QuxscLMIQKUCMCG3wfJQYS7vqjIuEABAACDHs/8x19bHB3jWg8gN5z4C8M/72PiFTb980/T//KkXzgej0/zfxToCAAgA5MZexIbocsBnXYjccFrICfAmou7oavRNoAgAIABgjseIDdHmEM/7ErnxjJ0TAAFIb/ofAQAEADj7/yF6kqaGeObTyI1n7JwACED9sSgEABAAyIyziI1Qa8hnXonceMbOCYAA1BvtisoNAQAEAMwwobhXrO4M+dzjip8gZlMIQClR1Q2gCAAgAMDZfx9zIzz7VeRnbwkBKCGqLGcEABAAMEMrYgP0MOKzbxpoRGPlBEAA6omepAYCAAgA5MZs5AbocMTnnzLQiMbKCYAApFFHEQBAAICz/19EFbuqY6eMjZUTAAEIH3eSxhAAQAAgR2KmXX2tqHHdNdCQxsgJgACEjTeNtj8FAQAEAMyyFLnxqeoc/byBhjRGTgAEIFz0VN2ufwQAEAAwx3nkxmctk5kMKU5OAAQgXGwGLDcEABAAKPrsf7fiDvM4804DAagvtgKXGwIACABEZTNyw3Od2XKGVH9OAASgeildq6HcEABAAKDYs/8hRlljRjrEOnMCIADVxbPcDZN1lBsCAAgAFHv2X5KmA/yuCwO/aw8BSC4uNNxlVAgAIACQHPuRG53bQL9r3UCDWmdOAARg9LJajfD9IQCAAECRZ/9DjpIn5Y5vxY66cgIgAMPFm1zuiPFI3x8CAAgAFHn2X6o2r/pnbgz8vrpyAiAAg8WjpKbiXuGMAAACAMWe/Q89Rd400KjWlRMAAeivLM4VJ1MjAgAIAJg6+9/NvMGZNdKwbiIA0eJeLi/EsqrP448AAAIASbJloMG5k3QVGAv7AFoIQPDo+vp04df0l+X2gVj/DhEAQACgdtoi6ozQOQEsCcCVpNMKOfYd5aHcptGmn1VZkdtDMpXwd4gAAAIAtTJHf1x77BUkAAt8YwgAIABgkwP649rjCQEABAAQAIjNM/1xlFhCAAABAAQAYrFMPxwtzhEAQAAAAYBYXNAPR4uQOQEQAAQAAQAEAH5Mj9ulH44amwgAIACAAECJZ/9LjxYCAAgAIADA2f8yYxYBAAQAEADg7H95sYcAAAIACADUxSH9rpl4QgAAAQAEAOpgTNIL/a6pWEIAAAEABABCs0J/ay7OEABAAAABAM7+lxdV5wRAABAABAAQAODsfyKxiQAgAAgAIAAQim36WbPRQgAQAAQAEADg7H+ZMYMAIAAIACAAUDXz9K/mo6qcAAgAAoAAAAIAnP1PKKrKCYAAIAAIACAAwNn/xGIRAUAAEABAAICz/+VFFTkBEAAEAAEABAD0R9Il/WoyUUVOAAQAAUAAAAEATUnq0a8mFRsIAAKAAAACALmc/e9JejDMq6HGt4UAIAAIACAAMCq3RhqUS+PvadnYLMAMAoAAIACAAEAOZ/83jL+rMb/+biX2EAAEAAEABABSb1B6cvcQsFmy/3hCAPheEQBAAGDYEa2Vde1WIu9sw9gywCICgAAgAIAAwKCsGmpMmom8M2snJs4QAAQAAQAEAFKezp5N6L21DL23YXMCIAAIAAIACEChWBrJ3if27naMLQNsIAAIAAIACAD0S9NQQ3KQ2LubMyYANwgAAoAAAAIA/XJHBzASD8YkYAYBQAAQAEAA4DcahhqR10TfobWrk/cQAAQAAQAEAH7j2FAjcpboO1w0JgCPCAACgAAAAgCpnP2X3FFE3mM1sYgAIAAIACAAkMLZ/66k8YTf5bkxAThDABAABAAQAPiOK0MNyFXi73LNmAAMkhMAAUAAEABAAArCWha7rcTf54Sx9yn1nxMAAUAAEABAAAqiaayzms7gnV4be6c3CAACgAAAAgCWz/63M3mn27IXMwgAAoAAAAIAFs/+S9JuJu91xqAA7CEACAACAAgAvLMkl3LXCjMZvdsdY++2n70Vu9SFJFkxVG6rlEd+/G8AjE3WaRg8ksEAAAAASUVORK5CYII=;imageBackground=#5A6C86;" vertex="1" parent="YHFHDH8k9fAFt5fq1yZ0-9">
          <mxGeometry y="2" width="24.44" height="20" as="geometry" />
        </mxCell>
        <mxCell id="YHFHDH8k9fAFt5fq1yZ0-13" style="edgeStyle=orthogonalEdgeStyle;rounded=0;orthogonalLoop=1;jettySize=auto;html=1;exitX=1;exitY=0.25;exitDx=0;exitDy=0;entryX=0;entryY=0.25;entryDx=0;entryDy=0;" edge="1" parent="YHFHDH8k9fAFt5fq1yZ0-9" source="YHFHDH8k9fAFt5fq1yZ0-14" target="YHFHDH8k9fAFt5fq1yZ0-11">
          <mxGeometry relative="1" as="geometry" />
        </mxCell>
        <mxCell id="YHFHDH8k9fAFt5fq1yZ0-14" value="&lt;h3 style=&quot;font-size: 25px;&quot;&gt;Bootstrapper&lt;/h3&gt;" style="rounded=0;whiteSpace=wrap;html=1;dashed=1;fillColor=none;flipH=0;flipV=0;fontSize=24;textDirection=vertical-lr;horizontal=1;verticalAlign=middle;align=center;labelPosition=center;verticalLabelPosition=middle;direction=east;" vertex="1" parent="YHFHDH8k9fAFt5fq1yZ0-9">
          <mxGeometry x="24.44" y="70" width="180" height="380" as="geometry" />
        </mxCell>
        <mxCell id="YHFHDH8k9fAFt5fq1yZ0-15" style="edgeStyle=orthogonalEdgeStyle;rounded=0;orthogonalLoop=1;jettySize=auto;html=1;exitX=1;exitY=0.5;exitDx=0;exitDy=0;entryX=0;entryY=0.5;entryDx=0;entryDy=0;" edge="1" parent="YHFHDH8k9fAFt5fq1yZ0-9" source="YHFHDH8k9fAFt5fq1yZ0-16" target="YHFHDH8k9fAFt5fq1yZ0-18">
          <mxGeometry relative="1" as="geometry" />
        </mxCell>
        <mxCell id="YHFHDH8k9fAFt5fq1yZ0-16" value="&lt;h2&gt;Auth&lt;/h2&gt;" style="rounded=0;whiteSpace=wrap;html=1;dashed=1;dashPattern=1 4;fillColor=none;" vertex="1" parent="YHFHDH8k9fAFt5fq1yZ0-9">
          <mxGeometry x="350" y="83" width="190" height="110" as="geometry" />
        </mxCell>
        <mxCell id="YHFHDH8k9fAFt5fq1yZ0-17" style="edgeStyle=orthogonalEdgeStyle;rounded=0;orthogonalLoop=1;jettySize=auto;html=1;exitX=0;exitY=0.5;exitDx=0;exitDy=0;entryX=1;entryY=0.5;entryDx=0;entryDy=0;" edge="1" parent="YHFHDH8k9fAFt5fq1yZ0-9" source="YHFHDH8k9fAFt5fq1yZ0-18" target="YHFHDH8k9fAFt5fq1yZ0-16">
          <mxGeometry relative="1" as="geometry" />
        </mxCell>
        <mxCell id="YHFHDH8k9fAFt5fq1yZ0-18" value="&lt;h2&gt;Courses&lt;/h2&gt;" style="rounded=0;whiteSpace=wrap;html=1;dashed=1;dashPattern=1 4;fillColor=none;" vertex="1" parent="YHFHDH8k9fAFt5fq1yZ0-9">
          <mxGeometry x="640" y="83" width="190" height="110" as="geometry" />
        </mxCell>
        <mxCell id="YHFHDH8k9fAFt5fq1yZ0-19" style="edgeStyle=orthogonalEdgeStyle;rounded=0;orthogonalLoop=1;jettySize=auto;html=1;exitX=1;exitY=0.5;exitDx=0;exitDy=0;entryX=0;entryY=0.5;entryDx=0;entryDy=0;" edge="1" parent="YHFHDH8k9fAFt5fq1yZ0-9" source="YHFHDH8k9fAFt5fq1yZ0-20" target="YHFHDH8k9fAFt5fq1yZ0-24">
          <mxGeometry relative="1" as="geometry" />
        </mxCell>
        <mxCell id="YHFHDH8k9fAFt5fq1yZ0-20" value="&lt;h2&gt;Finanses&lt;/h2&gt;" style="rounded=0;whiteSpace=wrap;html=1;dashed=1;dashPattern=1 4;fillColor=none;" vertex="1" parent="YHFHDH8k9fAFt5fq1yZ0-9">
          <mxGeometry x="350" y="208" width="190" height="110" as="geometry" />
        </mxCell>
        <mxCell id="YHFHDH8k9fAFt5fq1yZ0-21" style="edgeStyle=orthogonalEdgeStyle;rounded=0;orthogonalLoop=1;jettySize=auto;html=1;exitX=1;exitY=0.5;exitDx=0;exitDy=0;entryX=0;entryY=0.5;entryDx=0;entryDy=0;" edge="1" parent="YHFHDH8k9fAFt5fq1yZ0-9" source="YHFHDH8k9fAFt5fq1yZ0-22" target="YHFHDH8k9fAFt5fq1yZ0-26">
          <mxGeometry relative="1" as="geometry" />
        </mxCell>
        <mxCell id="YHFHDH8k9fAFt5fq1yZ0-22" value="&lt;h2&gt;Chat&lt;/h2&gt;" style="rounded=0;whiteSpace=wrap;html=1;dashed=1;dashPattern=1 4;fillColor=none;" vertex="1" parent="YHFHDH8k9fAFt5fq1yZ0-9">
          <mxGeometry x="350" y="330" width="190" height="110" as="geometry" />
        </mxCell>
        <mxCell id="YHFHDH8k9fAFt5fq1yZ0-23" style="edgeStyle=orthogonalEdgeStyle;rounded=0;orthogonalLoop=1;jettySize=auto;html=1;exitX=0;exitY=0.5;exitDx=0;exitDy=0;entryX=1;entryY=0.5;entryDx=0;entryDy=0;" edge="1" parent="YHFHDH8k9fAFt5fq1yZ0-9" source="YHFHDH8k9fAFt5fq1yZ0-24" target="YHFHDH8k9fAFt5fq1yZ0-20">
          <mxGeometry relative="1" as="geometry" />
        </mxCell>
        <mxCell id="YHFHDH8k9fAFt5fq1yZ0-24" value="&lt;h2&gt;Mails&lt;/h2&gt;" style="rounded=0;whiteSpace=wrap;html=1;dashed=1;dashPattern=1 4;fillColor=none;" vertex="1" parent="YHFHDH8k9fAFt5fq1yZ0-9">
          <mxGeometry x="640" y="208" width="190" height="110" as="geometry" />
        </mxCell>
        <mxCell id="YHFHDH8k9fAFt5fq1yZ0-25" style="edgeStyle=orthogonalEdgeStyle;rounded=0;orthogonalLoop=1;jettySize=auto;html=1;exitX=0;exitY=0.5;exitDx=0;exitDy=0;entryX=1;entryY=0.5;entryDx=0;entryDy=0;" edge="1" parent="YHFHDH8k9fAFt5fq1yZ0-9" source="YHFHDH8k9fAFt5fq1yZ0-26" target="YHFHDH8k9fAFt5fq1yZ0-22">
          <mxGeometry relative="1" as="geometry" />
        </mxCell>
        <mxCell id="YHFHDH8k9fAFt5fq1yZ0-26" value="&lt;h2&gt;Notifications&lt;/h2&gt;" style="rounded=0;whiteSpace=wrap;html=1;dashed=1;dashPattern=1 4;fillColor=none;" vertex="1" parent="YHFHDH8k9fAFt5fq1yZ0-9">
          <mxGeometry x="640" y="330" width="190" height="110" as="geometry" />
        </mxCell>
        <mxCell id="YHFHDH8k9fAFt5fq1yZ0-27" style="edgeStyle=orthogonalEdgeStyle;rounded=0;orthogonalLoop=1;jettySize=auto;html=1;exitX=0.5;exitY=1;exitDx=0;exitDy=0;" edge="1" parent="YHFHDH8k9fAFt5fq1yZ0-5" source="YHFHDH8k9fAFt5fq1yZ0-9" target="YHFHDH8k9fAFt5fq1yZ0-9">
          <mxGeometry relative="1" as="geometry" />
        </mxCell>
        <mxCell id="YHFHDH8k9fAFt5fq1yZ0-28" style="edgeStyle=orthogonalEdgeStyle;rounded=0;orthogonalLoop=1;jettySize=auto;html=1;entryX=0.25;entryY=0;entryDx=0;entryDy=0;" edge="1" parent="YHFHDH8k9fAFt5fq1yZ0-5" source="YHFHDH8k9fAFt5fq1yZ0-7" target="YHFHDH8k9fAFt5fq1yZ0-14">
          <mxGeometry relative="1" as="geometry">
            <Array as="points">
              <mxPoint x="225" y="242" />
              <mxPoint x="89" y="242" />
            </Array>
          </mxGeometry>
        </mxCell>
        <mxCell id="YHFHDH8k9fAFt5fq1yZ0-29" style="edgeStyle=orthogonalEdgeStyle;rounded=0;orthogonalLoop=1;jettySize=auto;html=1;exitX=0.75;exitY=0;exitDx=0;exitDy=0;entryX=0.75;entryY=1;entryDx=0;entryDy=0;" edge="1" parent="YHFHDH8k9fAFt5fq1yZ0-5" source="YHFHDH8k9fAFt5fq1yZ0-14" target="YHFHDH8k9fAFt5fq1yZ0-7">
          <mxGeometry relative="1" as="geometry">
            <Array as="points">
              <mxPoint x="179" y="262" />
              <mxPoint x="262" y="262" />
            </Array>
          </mxGeometry>
        </mxCell>
        <mxCell id="YHFHDH8k9fAFt5fq1yZ0-30" value="" style="group" vertex="1" connectable="0" parent="YHFHDH8k9fAFt5fq1yZ0-5">
          <mxGeometry x="390" y="32" width="150" height="140" as="geometry" />
        </mxCell>
        <mxCell id="YHFHDH8k9fAFt5fq1yZ0-31" style="edgeStyle=orthogonalEdgeStyle;rounded=0;orthogonalLoop=1;jettySize=auto;html=1;exitX=0.503;exitY=0.995;exitDx=0;exitDy=0;endArrow=none;endFill=0;exitPerimeter=0;" edge="1" parent="YHFHDH8k9fAFt5fq1yZ0-30" source="YHFHDH8k9fAFt5fq1yZ0-32">
          <mxGeometry relative="1" as="geometry">
            <mxPoint x="210" y="565" as="targetPoint" />
            <mxPoint x="75" y="135" as="sourcePoint" />
            <Array as="points">
              <mxPoint x="76" y="220" />
              <mxPoint x="210" y="220" />
            </Array>
          </mxGeometry>
        </mxCell>
        <mxCell id="YHFHDH8k9fAFt5fq1yZ0-32" value="skillup-rabbitmq" style="fillColor=none;strokeColor=#5A6C86;verticalAlign=top;fontStyle=0;fontColor=#5A6C86;whiteSpace=wrap;html=1;" vertex="1" parent="YHFHDH8k9fAFt5fq1yZ0-30">
          <mxGeometry width="150" height="140" as="geometry" />
        </mxCell>
        <mxCell id="YHFHDH8k9fAFt5fq1yZ0-33" value="RabbitMQ" style="shape=image;verticalLabelPosition=bottom;labelBackgroundColor=default;verticalAlign=top;aspect=fixed;imageAspect=0;image=https://static-00.iconduck.com/assets.00/rabbitmq-icon-484x512-s9lfaapn.png;" vertex="1" parent="YHFHDH8k9fAFt5fq1yZ0-30">
          <mxGeometry x="37.190000000000055" y="30" width="75.62" height="80" as="geometry" />
        </mxCell>
        <mxCell id="YHFHDH8k9fAFt5fq1yZ0-34" value="" style="group" vertex="1" connectable="0" parent="YHFHDH8k9fAFt5fq1yZ0-5">
          <mxGeometry x="700" y="32" width="150" height="140" as="geometry" />
        </mxCell>
        <mxCell id="YHFHDH8k9fAFt5fq1yZ0-35" style="edgeStyle=orthogonalEdgeStyle;rounded=0;orthogonalLoop=1;jettySize=auto;html=1;endArrow=none;endFill=0;exitX=0.5;exitY=1;exitDx=0;exitDy=0;" edge="1" parent="YHFHDH8k9fAFt5fq1yZ0-34" source="YHFHDH8k9fAFt5fq1yZ0-36">
          <mxGeometry relative="1" as="geometry">
            <mxPoint x="-59.99999999999999" y="565" as="targetPoint" />
            <mxPoint x="2.2737367544323206e-13" y="65" as="sourcePoint" />
            <Array as="points">
              <mxPoint x="55" y="220" />
              <mxPoint x="-80" y="220" />
              <mxPoint x="-80" y="565" />
            </Array>
          </mxGeometry>
        </mxCell>
        <mxCell id="YHFHDH8k9fAFt5fq1yZ0-36" value="skillup-postgres" style="fillColor=none;strokeColor=#5A6C86;verticalAlign=top;fontStyle=0;fontColor=#5A6C86;whiteSpace=wrap;html=1;" vertex="1" parent="YHFHDH8k9fAFt5fq1yZ0-34">
          <mxGeometry x="-20" width="150" height="140" as="geometry" />
        </mxCell>
        <mxCell id="YHFHDH8k9fAFt5fq1yZ0-37" value="PostgreSQL Database" style="shape=image;verticalLabelPosition=bottom;labelBackgroundColor=default;verticalAlign=top;aspect=fixed;imageAspect=0;image=https://upload.wikimedia.org/wikipedia/commons/2/29/Postgresql_elephant.svg;" vertex="1" parent="YHFHDH8k9fAFt5fq1yZ0-34">
          <mxGeometry x="16.21" y="30" width="77.58" height="80" as="geometry" />
        </mxCell>
        <mxCell id="wUrpgRFkoYMwGQCjtp_t-3" value="skillup-localstack" style="fillColor=none;strokeColor=#5A6C86;verticalAlign=top;fontStyle=0;fontColor=#5A6C86;whiteSpace=wrap;html=1;" vertex="1" parent="YHFHDH8k9fAFt5fq1yZ0-5">
          <mxGeometry x="930" y="260" width="150" height="140" as="geometry" />
        </mxCell>
        <mxCell id="wUrpgRFkoYMwGQCjtp_t-5" value="skillup-smtpserver" style="fillColor=none;strokeColor=#5A6C86;verticalAlign=top;fontStyle=0;fontColor=#5A6C86;whiteSpace=wrap;html=1;" vertex="1" parent="YHFHDH8k9fAFt5fq1yZ0-5">
          <mxGeometry x="930" y="430" width="150" height="140" as="geometry" />
        </mxCell>
        <mxCell id="wUrpgRFkoYMwGQCjtp_t-10" value="Papercut SMTP" style="shape=image;verticalLabelPosition=bottom;labelBackgroundColor=default;verticalAlign=top;aspect=fixed;imageAspect=0;image=data:image/png,iVBORw0KGgoAAAANSUhEUgAAAaUAAAFqCAYAAAC6bEXPAAAACXBIWXMAALiMAAC4jAHM9rsvAAAKTWlDQ1BQaG90b3Nob3AgSUNDIHByb2ZpbGUAAHjanVN3WJP3Fj7f92UPVkLY8LGXbIEAIiOsCMgQWaIQkgBhhBASQMWFiApWFBURnEhVxILVCkidiOKgKLhnQYqIWotVXDjuH9yntX167+3t+9f7vOec5/zOec8PgBESJpHmomoAOVKFPDrYH49PSMTJvYACFUjgBCAQ5svCZwXFAADwA3l4fnSwP/wBr28AAgBw1S4kEsfh/4O6UCZXACCRAOAiEucLAZBSAMguVMgUAMgYALBTs2QKAJQAAGx5fEIiAKoNAOz0ST4FANipk9wXANiiHKkIAI0BAJkoRyQCQLsAYFWBUiwCwMIAoKxAIi4EwK4BgFm2MkcCgL0FAHaOWJAPQGAAgJlCLMwAIDgCAEMeE80DIEwDoDDSv+CpX3CFuEgBAMDLlc2XS9IzFLiV0Bp38vDg4iHiwmyxQmEXKRBmCeQinJebIxNI5wNMzgwAABr50cH+OD+Q5+bk4eZm52zv9MWi/mvwbyI+IfHf/ryMAgQAEE7P79pf5eXWA3DHAbB1v2upWwDaVgBo3/ldM9sJoFoK0Hr5i3k4/EAenqFQyDwdHAoLC+0lYqG9MOOLPv8z4W/gi372/EAe/tt68ABxmkCZrcCjg/1xYW52rlKO58sEQjFu9+cj/seFf/2OKdHiNLFcLBWK8ViJuFAiTcd5uVKRRCHJleIS6X8y8R+W/QmTdw0ArIZPwE62B7XLbMB+7gECiw5Y0nYAQH7zLYwaC5EAEGc0Mnn3AACTv/mPQCsBAM2XpOMAALzoGFyolBdMxggAAESggSqwQQcMwRSswA6cwR28wBcCYQZEQAwkwDwQQgbkgBwKoRiWQRlUwDrYBLWwAxqgEZrhELTBMTgN5+ASXIHrcBcGYBiewhi8hgkEQcgIE2EhOogRYo7YIs4IF5mOBCJhSDSSgKQg6YgUUSLFyHKkAqlCapFdSCPyLXIUOY1cQPqQ28ggMor8irxHMZSBslED1AJ1QLmoHxqKxqBz0XQ0D12AlqJr0Rq0Hj2AtqKn0UvodXQAfYqOY4DRMQ5mjNlhXIyHRWCJWBomxxZj5Vg1Vo81Yx1YN3YVG8CeYe8IJAKLgBPsCF6EEMJsgpCQR1hMWEOoJewjtBK6CFcJg4Qxwicik6hPtCV6EvnEeGI6sZBYRqwm7iEeIZ4lXicOE1+TSCQOyZLkTgohJZAySQtJa0jbSC2kU6Q+0hBpnEwm65Btyd7kCLKArCCXkbeQD5BPkvvJw+S3FDrFiOJMCaIkUqSUEko1ZT/lBKWfMkKZoKpRzame1AiqiDqfWkltoHZQL1OHqRM0dZolzZsWQ8ukLaPV0JppZ2n3aC/pdLoJ3YMeRZfQl9Jr6Afp5+mD9HcMDYYNg8dIYigZaxl7GacYtxkvmUymBdOXmchUMNcyG5lnmA+Yb1VYKvYqfBWRyhKVOpVWlX6V56pUVXNVP9V5qgtUq1UPq15WfaZGVbNQ46kJ1Bar1akdVbupNq7OUndSj1DPUV+jvl/9gvpjDbKGhUaghkijVGO3xhmNIRbGMmXxWELWclYD6yxrmE1iW7L57Ex2Bfsbdi97TFNDc6pmrGaRZp3mcc0BDsax4PA52ZxKziHODc57LQMtPy2x1mqtZq1+rTfaetq+2mLtcu0W7eva73VwnUCdLJ31Om0693UJuja6UbqFutt1z+o+02PreekJ9cr1Dund0Uf1bfSj9Rfq79bv0R83MDQINpAZbDE4Y/DMkGPoa5hpuNHwhOGoEctoupHEaKPRSaMnuCbuh2fjNXgXPmasbxxirDTeZdxrPGFiaTLbpMSkxeS+Kc2Ua5pmutG003TMzMgs3KzYrMnsjjnVnGueYb7ZvNv8jYWlRZzFSos2i8eW2pZ8ywWWTZb3rJhWPlZ5VvVW16xJ1lzrLOtt1ldsUBtXmwybOpvLtqitm63Edptt3xTiFI8p0in1U27aMez87ArsmuwG7Tn2YfYl9m32zx3MHBId1jt0O3xydHXMdmxwvOuk4TTDqcSpw+lXZxtnoXOd8zUXpkuQyxKXdpcXU22niqdun3rLleUa7rrStdP1o5u7m9yt2W3U3cw9xX2r+00umxvJXcM970H08PdY4nHM452nm6fC85DnL152Xlle+70eT7OcJp7WMG3I28Rb4L3Le2A6Pj1l+s7pAz7GPgKfep+Hvqa+It89viN+1n6Zfgf8nvs7+sv9j/i/4XnyFvFOBWABwQHlAb2BGoGzA2sDHwSZBKUHNQWNBbsGLww+FUIMCQ1ZH3KTb8AX8hv5YzPcZyya0RXKCJ0VWhv6MMwmTB7WEY6GzwjfEH5vpvlM6cy2CIjgR2yIuB9pGZkX+X0UKSoyqi7qUbRTdHF09yzWrORZ+2e9jvGPqYy5O9tqtnJ2Z6xqbFJsY+ybuIC4qriBeIf4RfGXEnQTJAntieTE2MQ9ieNzAudsmjOc5JpUlnRjruXcorkX5unOy553PFk1WZB8OIWYEpeyP+WDIEJQLxhP5aduTR0T8oSbhU9FvqKNolGxt7hKPJLmnVaV9jjdO31D+miGT0Z1xjMJT1IreZEZkrkj801WRNberM/ZcdktOZSclJyjUg1plrQr1zC3KLdPZisrkw3keeZtyhuTh8r35CP5c/PbFWyFTNGjtFKuUA4WTC+oK3hbGFt4uEi9SFrUM99m/ur5IwuCFny9kLBQuLCz2Lh4WfHgIr9FuxYji1MXdy4xXVK6ZHhp8NJ9y2jLspb9UOJYUlXyannc8o5Sg9KlpUMrglc0lamUycturvRauWMVYZVkVe9ql9VbVn8qF5VfrHCsqK74sEa45uJXTl/VfPV5bdra3kq3yu3rSOuk626s91m/r0q9akHV0IbwDa0b8Y3lG19tSt50oXpq9Y7NtM3KzQM1YTXtW8y2rNvyoTaj9nqdf13LVv2tq7e+2Sba1r/dd3vzDoMdFTve75TsvLUreFdrvUV99W7S7oLdjxpiG7q/5n7duEd3T8Wej3ulewf2Re/ranRvbNyvv7+yCW1SNo0eSDpw5ZuAb9qb7Zp3tXBaKg7CQeXBJ9+mfHvjUOihzsPcw83fmX+39QjrSHkr0jq/dawto22gPaG97+iMo50dXh1Hvrf/fu8x42N1xzWPV56gnSg98fnkgpPjp2Snnp1OPz3Umdx590z8mWtdUV29Z0PPnj8XdO5Mt1/3yfPe549d8Lxw9CL3Ytslt0utPa49R35w/eFIr1tv62X3y+1XPK509E3rO9Hv03/6asDVc9f41y5dn3m978bsG7duJt0cuCW69fh29u0XdwruTNxdeo94r/y+2v3qB/oP6n+0/rFlwG3g+GDAYM/DWQ/vDgmHnv6U/9OH4dJHzEfVI0YjjY+dHx8bDRq98mTOk+GnsqcTz8p+Vv9563Or59/94vtLz1j82PAL+YvPv655qfNy76uprzrHI8cfvM55PfGm/K3O233vuO+638e9H5ko/ED+UPPR+mPHp9BP9z7nfP78L/eE8/sl0p8zAAAAIGNIUk0AAHolAACAgwAA+f8AAIDpAAB1MAAA6mAAADqYAAAXb5JfxUYAAG5ISURBVHja7J13eFTXtfbfffrMqEuoICGJ3mxsMM021cYUAwZEd9ydXm5uyk350pObdnMTJzHdLW6Y3kQzvWN6ByHUhXobafqc9v0xEteJY1tIQiON1u95iPPY6GhmnX3Ou9faqzDTNEEQBEEQHQGOTEAQBEGQKBEEQRAEiRJBEARBokQQBEEQJEoEQRAEiRJBEARBkCgRBEEQJEoEQRAEQaJEEARBkCgRBEEQBIkSQRAEEaoI7f0L/ZqBP249h02ncjGyTzx4jsHj16AZQFKUFXVuH3jGQdV1hCsyLhZWok98JPy6CZ5n8Kk64iMs0A0DhmnC4VURa1Pg13R4VB0eVUNipBW3yuoRZhHAgSEmXIHTo8Kj6kiItIBjgNOjQhR5cIzB7VMhCByYCfh1E9UNbkTbZMSEW6DpOhxeFWGyBJEPfFavpiPaJuN2jbPxWzH0SohAg9sPUeCg6QZsigi/X4cJQDdNaLqBercPiVE21Lv9uFxUDZssYGSfBNhdPoQrMhxePyKtEsAAj08DAGi6CZHn4NN0yKIAwzBQUe9GardwaLoJDoBhmuA4BlXT4fCoiAlX4PYH7HD6VgX6do8CA8A4wK8akAUeAs9BN0x41cDvcXpVdAu3oNbpRY+4cFwsqELvxEh4/BrCZBE+TQfHGCwSD80AvH4NqmbApgiodfrg8mnoHm1FncuLmDAFHr+OMEUEz3Gwu32Itspw+vwQBR4Ojx+JEVbkVzmgSBxssgQwEwyAqpqQJA7hioR6tw9+zYBpmoiyyjibV4mRfRNQWutCuCLCp+qQJQFWiYfTp0JkHGyKiGqHF7ERCjw+DRwDcisdGJwSA7dPgyRw8GsaGjx+iIKAlFgbaht8kMTAfQtTRMgCjytFtUjtFhYRJou9r5fWxWmaEZHeLXyE0+sf6vSqKU6/Fu3xabLLq3JeVWcAYAJgYFAk3gyTBd2qiL5wRWywyUJxtE052+Dxn25w+5yDesTWyAJ/60ZJnXNIejdEWyXcKrPD5VUh8hyG9uqG67froBsG4iMsiA5TkN4tHDnldtS6/JAEHoCJlFgbKuo9SI0NR35FPbpFWKFIPMrtbtQ5fbivRwyqHR4IAoeiaicGJ8fgekkNIqwyahq86N896s4zlBxtQ2mtCx5NR5RVhsgziDyHGyV16JMUhbI6F2yyiKQoK64U1+CR/kk4lV2B4b264VZFPWLDFVTY3egWaYGmGqh1esFxHEzTRI/YMLhVDVUNXkwclIydFwsxND0ON0rqcF9qLK4WVuNWeT2So22Ii7DA4fWjpNaFGcPSUVzjREKkFdFhCi4XVSPSIqGy3oNBPWJwtbgGBRUNiAlXMDAlBoVVDahxePDihEHYfbEQiZFWuPwakqJtqHZ4cLW4FlZJQHykAsYYiqqdiLTIsIgc3H4NL0wYiA+O30JaXDgKqh0Y3iseuRX1KK1zod7lR+/ECKi6gcLqBjz1UG/oho6jN8pQWe/G40N6IFyRcPpWOVTDRHK0FQ0eP8rsbiRHhwEAHF4/Fj3SFxcLaxBpleDw+KEbAc+gssGN8no34iMskEUBNU5P4JllHKKsEkpqXUiMtCI2XEGlww1NN2EReXzx8cEkSgQRkrszjgMDIt0+Lcmv6RP8ut7rVpm9L0yMafD64+xOH26W1oFjDGAAx1ij0Af+GdiaBKTJ49Pg9qow690wTHSHiQGaaT4h8Ry6RShwerXaMIt4wDRZbr3Lm8NgHpNFvtzj1+x0JwjylAiiCyPyHHiOm1hmdw3VDXNyUbWjl6brfVXdhMunASYg8AwCxyCLfLOuyRjAGAPA0PQTEgADQEW9ByW1rhjDxLwIi4SCSjsUWczu3S0in3FsZ2Kk9bws8Meodz9BokQQXYRGZ8ci8OyZSwXV0+wu/7gahydWN00YhgnDNCHwHCyNItQWAmE2elIiz0HiA0e5qqbD7TfA3Gq/ynpPP1nkJydEWKrK6t0n0+LCt3tV4x8cY1rj5yUIEiWCCBkhAsBzDAB6aro5q6rB+80aR326R9V4NJ7JAYDAc/8kJPeCputyHIPMBYTPME34VZ0VVjvii6qds64UVk9PirJ9L3qgvELTzc0cx4oC3hdBkCgRRKem8RyoX4PH/2R1g+c7RdWOVLBAUkJAqNgd4QryZwTf+Ck8fk24VVE/IKfS/tf+SdHfq+ydsCQ51rZFErhsuqMEiRJBdFIkgY/VdeO57DL78/mVDQ+omh4In3Vwr4MxBoEBpslwubCmR1ZJ3R9H9Il/Oj7C+o/eiVHv+zS9iu4uQaJEEJ0ExhgYw+yc8vr/rHJ4xrt9GniONaZTd6bvAdgUAZpu4OiNsgeirPIrpbWuecN6x78q8Gwt3WmCRIkgOjAcY+B51q3C7vpJQVXDF2sdfhvPAgkGnfVIxjQBnuNgUzh4NR1n8yofLa51DhvZJ2HCwJToXwgcq6Q7T4TMM0wmIEJIkJiqGxNLal3bLxfWfLvO6bfxPAvUEoVAjgADIHAMksijusFj2XG+4KuHrpYcqHP7Jgs8T1kQBHlKBNFRvCOJ5xMb3P7v5xY1PG93+eIEnmvKtgs5GAJZgqYJnMqpGFxQ7VgzbkDSyh6xYa+YMCupxokgUSKIYC3gQJuqWcU1zh+W1rkedvs1yJ3s3KjF4sQAReRRXueK3nWh8Ec1Tu8jj/bv/ltZ4PfQyiBIlAiinV/IPMfFN3jU3+SU2Rc7vGo4Y4Ai8OhqnoJVEuDx69h7uXhcXnn9kDEDk9+0yeL/cByroJVCdDboTInoXGIEgGNM1HRzakW9+8Slguovu3xqOM8Hao66YujKBCAKHKySiOJaV9T6EznfPZ9fddDpVR/jOcZxVHRLkKdEEPdoF8VYX6fX/5/ZZa4ve/y68PHiV/IeA1mGJoCzuRUD8yvrd40flLxkSFrcMoHncslCBIkSQbQRssBDEfmvZJXWfb+gsqGPYZjgeXL0P82bVEQeNQ6vlHku/7sldc5JPWLDX1Uk4XWyDkGiRBCthOfY/XmV9T92eNVFJbVOxnEcCdLnYAJQJB6abuD4zfIhCRH1K1XNGBMXrvw3A3LIQkRHhZ5somMuzMA5iIUx9s28ivqdN0pqF7t8GhN4PmRTvdtcmBqLbq2iALvLx+04X/D8sZtlexjjXmCAQHYkyFMiiOYIEsfgU/UHS+pcPyuvc2W4fBoEnqOToxbCWFNdk4nsMnvP6gbPW73jI5/slRDxc1nks8hCBIkSQXwKIs9FOz3qVwsqa75S7fSkwWSQGg/vidaKE4MsMNS5fLhQWDXf7vYNfXxIjxWxYcoKxuAiCxEkSgTR5B0xBtM0J9yuc/6mrM41xt3kHXEgQWpDTBOQeA66aeJGaV2faof3fwf3iHn8qWE9fyPw7CQ0shFBokR06d07wDOEuXzaD7PL6r7ucKsxTXU3xD0SpsZNgFUSUOfy4sj1kmlldvdDD/dN+HNMuLKSY6yerEQEbYNKJiCCJkYcx2m6OanC4dl7oaD6pw1uNYYxRokM7Ygk8JBFAXkV9vi1J3P+mHW7bovHrw0XeQ5UdEuQKBFdRJAYdANpumH89la5PfPG7ZrRpmmCD5Fu3p1xgyDyPGACuy8VTXjvaNae3Ir6XzMgiTYIBIkSEdI0Cs/8GyW1W7PL6n7k8emKwPGUWddBxEkWeVTUe6LXnLj1s23nCjYxjs2RKZRKtCN0pkS02wtP4LjU0lrXz8vsrsV2p89KoboOeJ8Q6AahagZOZJeNLrU736t3+Vf0iA37E2OsnCxEkKdEdHIxYhA4Jri86jN5FfW7bpbUvVzv9lv5EJ53FBK7VZ6DIgooqXFZt5/P/+5Ht8o/bHD75soiTRMkyFMiOik8x6Dr+uB6t/87RdUNL9e7/RAFnnZCncm7bSy6PZNbMeRWmf19nmfviAL/G0ngi03K1SdIlIjOgihwotOrfSmvwv7dqgZPb900IXWR4Xuh6O1aJAENHlVe/uHVL43qkzA6Jdb2d5sivAEqIyNIlIgO/QIDg8Dz95fWOv5wu9b5pMunQuAYBI78o86MaQKywEHgGc7kVtxfUO1YMTA5ZsqD6XE/5Ri7SRYiSJSIDiZGAMeYxavqX7lSVP39aoc3WTcMiNTNO3SEKXCPIUsCaho8/DFH6bw6t/fhEb0Sft4twrKGY8xNViJaC70xiFYjBs4dJtQ6vZsKqhyvVNo9yTBB3lEIb0AkkYfIM1wtqkle/9Gt187lVb7v1/RhssBTrRlBokQE7+VkmGY3E+YPKurdWy8V1Uz1azp4nopgu8T9ZwyywMPj17gNH+XM3nG+4MOiasd/coxFMloABIkS0a4LhzEIPPdEfkXDxqtFtX90eNUIjoHSvLsgAsdBFgWU1Lrj3j9685UD10o+kER+nMBRd3eiBeuJTEDc7e4YMCPrXN5f3q51PW93+aIZSIxokwLIIge3T8Pxm2XTKurdw/smRC7rnxz9CqMGrwSJEtHmYgSA5znO5dOmFVU7flxc43xUNwzwHA3fIz72QuE5mCZwq9zerbCq4RcNPnXcw30TfxtllQ6A0scJEiWiTXbBgX51ve0u73/mlTd8qdbllUWBp0QG4lO8aUAReOimiSPXSyYWVjkeevy+lKUx4coSWeRLqeiW+Mz3DZmA+Lydr8enLsitbNh2saD6m3a3T5YEaqBKfDZN6eMWSUBRtSPirUPXf3w+r3LLzVL7nDBFJAMRJEpEiwSpV53T+9aFgurVxdXOQU0iRRB3g0XkIfI89l8tHvE/W8+vLq5xrJBFPp42NsS/fe+QCYiPwxjAAJ7n2AvXb9f+sNzu7qsbJhXBEq3ymniOwSKJqHF6lD2Xir5SWusc/UB6t99zjNvMMeYnKxEkSsQnCCQtsGF5FfYfVjV4MhxeVRA4DgJl1hFtseFBYF6TYZo4k1v5QEGV432nV1sdFyb/nufYDbIQAVD4jvi/F4bV7VO/Xljt2HKlpG6By6cKIs9RESzR9i+dxrOmOpeXX3si+9lDN0p2cxz3rCzydNhEkCh1eTFigCBwo2qc3nXnC6qW1ji9PfhGr4kg7iUSz0MSONy4XZt6Mb/ynewy+2pZ5B/kaCfUpaHwXRcWI44xxevXvldY7fxmrcOb2BT7J4j2oClDTxJ4VDk8qL7pm1fj8I7qkxT1V1HglnKM+chKJEpEV7jpPINPNcaV1Dp/VlzjeNyr6kzgGGiHSgQLkedhmiauFtf0KKx2/GlYr25j/LrxR5HnTtGqJFEiQhSOMYg8l1jn9H07t6Lh63aXL4JxoMw6ooN47wyKJMCr6tzRG2Vzqhu8Y4f17PaX5GjbKlnka6jolkSJCCnviINH1aZU2t2/KKhyPKzrJnie9qBEx4PnGHiO4WpxbdyNkrrfOTz+J0b2TfqlTRGOkHW6wOaZTBDaNMbt0+uc3j9fLapdn1Pe8LBhkiARHR+rzIPnGDadyZv4910XN5bWun4t8lwMtRMhUSI6IQyAaZpcpFWam11u33GxqPq7Do8/XODp7IjoJBsqs7HoVhRQaXfHfXAs+2cbT+VkApjNGBjNbApNKHwXgvAcg8CxvjkV9d+vbHA/X+v0ywIXaKxKEJ1ug8UCk25VQ8fp3MpHyu3utZX17qUpsWF/5jhWQhYiT4noyDeUMXj92osFVY6tN0vtX65z+WSRZ6BdJdHpN1uMg1USUFrnkjadyvvOiZtlmTzHnhIFjrx/EiWiw+0mAYg817/B63/7YkH1m8XVjoEMoPESRMghCzw4DjidUzn0VE75htJa11sev5ZGaz00oPBdZxcjBnBgsl8zXr5Vbv9+tcPTU9dNiAJPxiFCkv8rumWoqPeIh67dfqGk1jliaM9ufxR47n2eYwZZiUSJCAI8x6DrxqAyu/svxdWOxz1+TeA5RuMliC7lNemGiatFNYMr6z2v358WO83l134n8txVKmsiUSLa0TuSBD6ypsHz5dzK+h/UOX1xpkmzjoiuuznjJQF1Tq906FrJ4up678T70mJ+nh4X/q5P070kTiRKxL28YTwHXTfHlNW6/t/1ktppfs0AzyizjiB4ngMH4GJBVWJORf0qXTMnx0dZfpcaF3GBrEOiRNwDOKB7g0d9odrh/XZeRX08GKNZRwTx8SgCAKsiwKdqWHPy1ry0uLBREs8vibBKywA4yUIkSkQbPWgcY4/lVtp/V1bnGWmYBmPUQJUg/i2mGejnyHEmimqcPZbvvfqHYT27TeoeY/u9wHEH6anp8JtvosPeHMYgCVxCeb37D7nl9duKa1yjdNNkHCNBIojPFKbG50cWeHhVjR3LKn3iQn7V5gav7//xPBdD56/kKRF34xmxwOGtqhkZpXWuH96ucY3UDINCdQTRAkSeA3ggp7w+srjG8dtRfRIeH5QS8weeY3vJOuQpEZ8rSAy6bvasdXj/eu127eqcioaRJkwavkcQrUQSOOi6iUPXSx7beCpvndunvSIJfBw9WSRKxKd5R4zxflV/7lpx7fZrJXXfrnP5ZFmgW0QQbfbC4xhkUUBFvSvq4NXb/3k0q2S7XzdmCBxHG78OAoXvOsiDYhhIbPD6/p5X5Jjl9qlS40A+Mg5BtPUGEIAiCvD4NVwrrhlV1eBeM6pP4hqHR/2JyHMVVNdEotQl0Q0TpglIAm/xqfrCgsran1c2eHoahkH96giiPV5+jZu+6gavbeeFgpeLa5xjR/SO/0GEIm7jGCNtIlHqOpimifgIC3TTeKi0zvWDG7frFnhVHRxjFEIgiCCIk2maOJtb2a+kxrXJ5dNWWiRhqSzw18g67Q9tyYMTP4hKiLB83TSw5Vxe5QKvXwfPMVCWN0EE6ZFkDFZZQFWDm3vvaNbXDl8v2X65sPrLAs/Rxp1EKZQXPsAYRtY0eNdnldb9vdbpS+EYg0CjyQmiQyCJPESex60ye/qKvVeXnM6teF8SuPsogkGiFHJiJPF8pNun/+Bace3BwmrHJL9u8owFCvwoeE0QHQeeY5BFHi6/Ku67XLzgZHb5Hp+qf0sWeSuJ072HXNN2WOCaZjxebnd9r6TWOc2n6tTNmyA6AU3Zr1eKapIKqxr+rhn6uJ4JkX/iOXaarEOi1Pm8IwAch4Rqp/e7t2scL1fVe2IFniNBIohOhkXk4fZp2Hm+cF6vxMjR/btHrVQkfonHZ9jJOiRKnUSMGHya8VR2qf2nFfXuEX7VoEmwBNFJMRHI0OM4hoLKhpSyOvdvBI5Ne3RA9x+JPHeULESi1GHhOAbdNBOcHvVn2WX2F51e1coAiNSVgSA6//PNAmdNmmFg+/nCR87nV20f3TdxuSxyfxJ4roZOm9rIzmSCNvKOGBNUTZ99q7x+7+Wimm+4fKqV5xgN3yOIUNvJcwyywKGy3hOx+2LRD0tq3dvqnL4nRIEDo7oO8pSCL0gMAPoVVTv+K6+i/gtOn2bhGrPqCIII0ee+sZRD0w2czql4pLLBs2n8oO5LFZF/nenIIQuRpxQU74gBImN4ud7j33K1qOaLDq9qEWj4HkF0nRcoFyi6LaxqCHv/aPYPz+ZWZgocm8uxxu0qQaLULkZjDIaJAZphrs+rrF9RXu8eCAZqoEoQXRSLJIDnGC4V1QzYdi7//Ztlda/zPJdCdU0kSu3gsnNWVTNeuF5Sd+xWuX2WqhkCBwrXEURXh+cYJJ6D3e2Tt50tePloVtkBwzCfk0Wep7Om5kNnSs0So8CCMwzj4TK76zslte75Lq+fao4IgvjkS7Wxy/+5vMq+ZbWutz0+/eFeCZFLBZ67St1bSJRajWGa8Pl1q8P0/aCwyvGlSoenOwMjQSII4jOxSQIqGzz48HLhVwd2j5nUt3vUEpssLGcMfrIOidLde0do7Etn4lG7y/eraofvcbdPhcAzSvskCOJzMREYwW4YJq6X1PbJr274iyRwM3onRn0zLtxyk2MMOnW+/AS03f9UDwlxHr/6y6vFtbtL61yP+1QNVIdAEMRdv2Q5Bknk4dd0bv3JnElrj2cfrrC7/sOn6RGSwFGWHonSZ8MzBqskTiirc205k1PxizqXN4wxKoIlCKLlMATOmiSRR2G1I+G3m87+bcuZvLVevzaW5yh9/ONQ+K5p0QQKXntUOzzfrXZ4n61zeWNNEzSanCCINhUnkefg13ScyamYWufwPTSyb/xf0uIi/gGgnCxEohTwjjgGr09fWOPw/r/bdc4hqmYEGjDS9oUgiHuA2NjgNafC3q3E7vr96D4Js9O6hf+MY2xvVz8h6NJuQKC2iCV6/PqyGyV17xRWOYaYhgmRpzgvQRD3DrPx/WORBOi6gSNZpaN2XijYWtng+QMDorpy3WOXFCXGAIHnFL+qz80ttx+6VFj9NZ+mSzxl1hEE0c40Fd3WufyW9Sdu/XDvldu7VN2YLgtdM5AldMUFoBvGfVUNnh/frnUudPpUns6NCIII+suYYwBMnMkpH13lcG8akBi1sk9S9F8FjsvrSonjXUqUeJ7B4VX/I6+y/ltVdk8f3TSpXx1BEB0IBqskoLCyQbpd7fxWmd0zYXS/xL9IAvePrmKBLvFG5hgDY2yI16dtvlxQ/ZfyOncfaqBKEERHxASgiAI4xnC1uPr+jR/lrrQ7ve8xhhSB5xDqJwxd4a0c4VW1b+ZVNhy6VW6f7fHrvMhz1ECVIIgODc8xiAKPeo9X2n6h8Au7LxYdr3P6ngGYJZTfXyEbvmOB3cbIMrvrJ9lldU+5fXpgLDlpEUEQneg9JnAcTABXb9ekFtY4/jGsV7cZo/ok/EFk7CKJUmf5UjyL1kzj+8XVjhernN4kXTMgCRx1mSIIotOKk0Xk4fL4+WPXSxfWOb0jh6TG/m39yZxVlwqrPalx4fBpOqySgOIaB6KsMgamxOD4zTL0S4pEn8QoXCuuhdunwjCBHrHhuHq7Gt0iLKh1+jAoJRpXCmoRZhEwfnAKSmqcyK2oR7+kKEwcnAKr3H5SEVKixBgDx9hj2aX2P1bY3cO9qg6eC3T0JkEiCKIzYwKQJR66buJSfnXP/ErHK5V9vU/FR1h+xHHsTKgEgULiTKmxL103XTd+k1/RsCO3on64qgcy6+jsiCCIkBEmM/C+s8gCPH6N7b1S9Nih6yUHHR71PwGEhcKk204tSoZhgjEmuP3azPyqhm0XCqp+6vD4FZ6jFkEEQYQ2AscgCzzK7S7bu0duvHI6t2K9V9XHSwLfqSNDnTZ8xzEADGkNbt+PbpbUPdfg8Vl5jgvZbt5m4//ohgHdMGGYJoUkiWY9J7IoUH5PKItTY4PX0zkVU6sbPCN7dot468H0uD9wjFWTKLUTPMfg8upP51c7flRh99zvV3UIAh9SD55hmtB1E6ZpgnEMDAw8z5AUbUWUTYEi8pAEDpROSHyqIHEMLq+K7DI7fI3nq0Ro0hQdyimvjymtc32vwauOig6z/FHg2fbOdtc7lShxjIFj6FVS5/51XoV9ntunyoyxQKp3J4cB0A0Tft2ApuuwyiJSYsOQ3i0cw3p1w8CUGKTHRcAqCxB4DgIX+kV0ROufl5uldfjuO8dQ4nbCItNQgFCGMcAiCdAME2fzKsaU1bmHPpAeuwqM/ZnnWElneV10ilXKArs+xafqs6saPH+8XetK5RgDz4WGGJkAnD4VpgkkRloxul8CRvVJxCMDkpASE0ZPG9FibIoIxtCmoV7GAL9qQjM0KJJIvnpH85oYA8fzKLO7bKXnnd+pafBO1nTzB7LE73H7NQ1mxw78d3hRMk2A59lDVfXebxbXOJ73+FUm8nxo7GwAqLoBt09F99gwPDWsJ6Y8mIYhqbE06ZZoEwyj7V9Ahgn0ToiAZhjIqaiHRRTIa++A7xaBYzA54NjN0sE3S+vWTRic/G6v+Ii/+DTzFolSi8MP4MIU6bu3yuv/s7rBk6ybQKgIEgB4VA0WQcQXxvTCM+MGYEByND1NRIffJPo1DYNTo/HFx+7D33dfwo7zBbBIAnhSpg4oTgw2WUSdy2fbeaHwq/2SIscP65nwV6lbxCoSpbsMD4gc90BuZf0fKxvcU1xeFTzHQuagVjdMeP0aBvWIwXemP4ixA7pDoOawRGcRJjD4VQN9EiPx+8UPIynShneO3IBmArLIk4E6IIrIQzNMXCqsHVhS41pa4/Q8Hh9l/RHHsfwO54x0qA8TyDKL9vi0H2eV1u3Nq6if4vNrIVUE69cM+FQNTw5Lw6ovP4aJg1NIkIhO6TF5/RpssogfzR6GXy0YhZgwBQ6PCtOkYoWOt5EIZC1bJB71XlXYcb5gwcmb5UdcHvU5nmO2jvQO6jCeEs9x8Pi1x0tqHP9VZndP8ao6pBBqD8QA+DQDDMCXHr8P357+AGSBdpVECKxtxrDg4b7olRCJ320+h7O55Yi0ytRNpYMicAyM45FVUptyu8bx9pDUbrNTYsN+Iwn8hY7wvu0Q8ijyXJzPr/3+XF7l2sJqxxS/ZoSUIAGAapiQBA7fnTkU3585lASJCDmG94rHkpfGIWNUb7h9GnTDoMy8Duw5yQIPl1fDR7fK5qw+enN7ncv7U5ssKsG+Z0EVJY4xmMCU4lr3npvl9h/VunyxgVRvFlKCpBsGTMPE16fcj5cmDqTMOiJk6R5tw+8XP4L/ePIBCBwHj6aTUTqwMEkCB8Yx5JTXdz90/fZvPrpVvkUzzIeDeX4flPCdbpjgONat1uX7cVGV88tOn2oDTIgcF4I33oTTr+FLEwfhS48PppAGEfJYJAHfnvYA+iRE4k+Z51FU5YBNEcEzRq2xOqAw8YzBIglw+TSczqmYUmn/aNSIvgl/io+wvA6gsr3vWburAGOAVRZGGIa5I6uk7jtOr9/GMYTsy7rerWLykFR8d8YwEiSiSzF9WDqWvjQBw3snwOH2Q9UpnNeRaRrzk1/piFp/Iue3Z3Ir13OMDWtvr6ndRUnkuUnzRvV+d3TfxBEOjwoTZsguVLdfw8DkaPxo1jBYJDpDIroeg3vE4NWXxmHRo/2g6QZ8mk6Fth0YBkDgGZw+FX7VGDcgOfodReQXhbIofRnA+70SIvv/z7OP4utT74emm/DpesgJk26YsIgCvjppMHrFR9JqJ7osCZFW/GrhKPxozkMIs4jw+DUySgelaePw3PgBWPLyOPSMj+gN4DUA/w1ACiVRsgD4M4AlAOIBIFwR8d3pD+JX80chTJbgauz9FgqYAPyajjEDuuPJYT1ppRNdHlng8eKEQfjfZ8YgLS4cDW4/DKpn6lB4/Dpkkcf3Zw7Dz+eOREyY0vSfwgD8BMC7AOJCQZT6AngPwHcBiP/0yxnDwkf74tUXx2FAcgwcHt896dXV7l6SbiJMEbHo0T6N4yUIggCA8YOS8dcXxmHcoO5wePzQdIPCeUHfRJuod/uREmvD77/wCL48afDH31sy/q+f7wIAGwEM68yiNAbAOgAZn/WXRvdLxJKXxmHq0HQ4vH5oeuc+Z/JrOob3jse4gcm04gniXxiUEoO/PD8WX3xsMEwAXpXOmYK2gTZM2F1+DO8dj7+9MBZThqT+619h+OehbeMArAUwpzOKUgaA9QAebM5fTusWgT89MwZfmXQfdNMMHIh21p0HM/GlxwbTiieITyE2TMFPMkbgV/NHIcoqw+lVySjtyJ35bZqOuaP7YMlL43F/arMjc30A/APANzuTKH0DwDsAEu/mh8IUAT+a/RB+NX8komwKXJ3sQJQxwOPXMDQ1DsN6xtPKJ4jPeV7mP9wHf31+HPonRaPB44dO50zt855SdQgcwzenDsHvFo1GYpT1bi8TAeCvAH7Z1jrS1qLEAPy48cPaWmYwhoWP9MUrz49B/+7RqPf4oRudI5zHwODyqZj+UE/wPMUjCKI5jO6XgBVfmoApD6TCr2rwa1TPdK8wzcD5UbRNwq/mj8a3pj0Ai9TiHgo8gF8A+HVbaklbihIH4OcAfoc26BQxum8ilr40Do8PToHbp3WKwju/piMxyob702Jp9RPEXdAjLhz/++wYfG3yEAgcg8uvkTC1MYZhwuFRMSA5Gn97cTxmjezZVjb+SaMz0uFE6QeNrlybkdYtAn9+bixefmwQwABfBz4QZQxwqxoGdI9GelwEPQEEcZeEKSK+M/1B/G7xw+gWrqDBo1JborZ4N6FxhpuqY9rQNCx7eQJG9Ulo61/zSwAvdiRRWtjowrU5UTYJP579EH45fzSiwmS4fB3znMk0AcM0kR4fgSibTE8CQbSQmcN7YtkXJ2BYrzi4vGpIlIkEE59mQNcNfHnSYPzh6UfQM/6ebJoFAH9BIDsv6KI0BMAf8C81SG0JxzHMH90bf35uDHonRKLe7e9wC9UwTVhFAWlx4SEzIZcggsWD6d3w6kvjMXdUb/h1A37qNt6ijbLTq0ISOfxk7kh8d8ZQRFjvaVOGKAB/BNCqWpjWipKCwDlSensY+ZF+Sfj7i+PwxP0pcPpUaB1oXothmrBIApKjbfQ0EEQbkBRlw++efhjfnfEAJIGD00dp43clSD4/eidE4pXnxuCZsf3aa7M8GoHzpRbnFTT7B8+ePftPX/iBB4ZAkqQXAMxtT2P3S4rCn54dg+V7r+D9ozfhVXUoogAzyNFn0wQkgUdsuEJPBEG0EQLH4SuT7kdaXAT+sOUcCqscCLeIYFRt+29hLNBRxuPXMH5QCn44axgGdI9u74/xIoBjANbcU1Favnzl/3kFhoFXXvlzT0mSfhEMw0fZZPxo1kPo2S0Cr+y8iOoGL8IUMaiLwTBN8DwHW5A/B0GEIlMfTENaXDj+sOUcTmSXQRGFkBsG2mpBQiAZTNUMLBrTD9+d/uDH+9e1J1YAvzMM42Rubm7hxzcQffr0+dwfbnb4Ljw8/ON/ohsaGv6KuyyObdsdAcOiR/vhf58Zgz6JkWjw+BHsYyaegc6TCOIeMTAlBq+8MBbPjusP1TDg8evkMX0Ml0+DwHP4zoyh/9pQNRj0rK+v/21hYSEKCgru/GkOzRalnj3T0bNnOnr37oW4uNgf/eMf7zyVnZ0d9BsxdmB3LP/SRDw2OAUevxZo8BiMD2IGGszSqHOCuHfENLYn+vGc4bDIAhrcfphdvAuECcDt05AcY8Mfnn4E35hyf9AbQefnF+D1199Y7PerX/y/9nnNezc2+5NLkgRZlsEY6+12e2bk5xdgxYpVOHHiZNBvSq/4CPzl+bF4+bGBMMHg9mvB20FRPIEg7m1EguPw/LgB+NsL4zAgOQounwbDNLtcsS1jgfojh0fFsF6BbMXpw9KD/rlOnz6L5ctX4MqVa1x2ds6XEhISwiMjIxEZ2by5cs0WJVmWYbFY4PP5pzqdzn4Wi4yGhga8/fY72LRpE3w+f1ANEWmV8OPZw/HTjOEIt4hwePz09BJECDN+UHcseWk8pj6YBq9fD3R96SLK1HR+5PKpmDksHX97YRzuTw1uJxnDMLBjx0689dZbqKmpgcWioKqqcojT6ZzG83yzHYW78vFUVbW43c4puq4LAIMsyzBNE9u378Sbb76J2tq6oN+sp8f0w19fGI++SRFwev3kuBBECNMrIRK/f/phfHnSfdAME+4uMtXWq+rgOQ7fnHI//vCFR1rSULVNcTgceOed97B581ZomgZFUcBxHOrq6pS8vPwnJElqdkeBuxIlTdP619XVD9b1QCGbaZoQBAGSJOH06TNYtmw58vPzg37Dxg5IwpKXJuCx+3rA08HqmQiCaFsiLBK+N/NB/GbBKERbFbi8GkL2mMkEPD4NMeEKfr1gFL4zYyisshDUj1RUVIwVK1biyJGjEAQekiTBNE0wxuD3+1FVVTUuLMzWIympeXlxzRalW7dyUFZW/ihjrNe/umEcx0FRFOTl5WHp0uX46KNTQb93fRKj8MpzY/HChEFQNQMelSrCCSJU4RjDgkf64u8vjcMD6XFw+9XAOVOI7EYZAmUnDR4/+iVH45XnxiBjVG9wQf6CFy6cx9KlS3H16jXIsgSO4/4p8YQxhtLSsuTS0tL73W5324qSaZqC0+ns6XK5wPP8J43GGBRFgd1ux9tvv4Nt2zKhacGtwA6ziPhJxnD8dO4I2GSRBokRRIgzqk8CXn1pHJ56qBc8Pq2xiXPnViYGwK8bcHo1PD4kBa++NB6j+iYG9TOZpoF9+/bjjTf+gerqGthstn9rZ57n4Xa7bLm5eePKysqbdSOaLUo9evRIiIiImK+q6mfeZFmWoes6tmzZinfeeQ/19fVBv6nPjRuAV54fg37do0mYCCLE6R5tw++ffhjfmjYEPMfg8vo7bfieIdBQFQC++Ngg/PnZMejZLTyon8nhcOCDD9Zi3br1UFUVivLp9VAcx8HpdMLn86f17ds3rE1Fqa6uLsLhcKSKoviZdQEfP2c6evQYVq5cifz8gqDf3PGDkrH85Ql4bHAKHJ7AORNBEKGJLPL49pMP4neLH0H3mDC4fGqnK9dgYHB4NYQpIn40+yH8YNYwRFqDO4Hg9u0SvPba69i3bz84jgPP85+pB4wxcByHqqrKh69fv9G7TUVJ07QEp9MJjmvejzSdM12/noWlS5fi/PnzQb/J6fHh+PPzY/DsuP7wawa8XSRThyC6Kk8N74llX5yIEb0T4W4qru8EbpNpmrC7fUjrFob/eeYRPDduAEQ+uAWxN27cwJIlS3Hp0mXIstwsLTBNEzzPw+VyJxYWFjUr5tjsbxkZGTlN0+7uJc4Yg9Vqhd1ej9dffwMffrgHqhpcIYiwSPjZ3JH4yZwRCLNIcPtImAgilBmcEo2/vzQW80b3hlc14PFpHXpYqGaYcPl0jBmQhCUvjcfEwSlB/UyGoePw4aNYvnwVKiurPvX86NMQBAHl5eV48MEHmtX3qNm5hJqmPdxcL+kTrrQsQ1U1rF+/AZWVlZg5cwaioqKCZmSBZ3hhwgD0TYzA7zafQ1ZZHWyyAI4xmFTYRBAhR1y4Bb9eOBo9EyKxYs8VNHj8CFPEDvW8MxaoPwKARY/2xbenDUF8ZHDrj5xOFzIzM3H48BEYhgGLRbnrtk4cx8Hj8aK+3t6/TT0lt9ud1tIslsA5Ew9BEHDgwEGsWvU6ioqKg74IHh3QHX99cSwmDEpGvcsPTTepnokgQhSR5/DlxwfjT8+OQd+kKDS4/egoLhMD4PJqEHiG780Yip/NHRF0QSovr8Brr72G3bv33MkVaGmfQVEUUFRUNKpNRcnr9US0NrWy6Zzp2rVrWLp0GS5evBT0xdA3MTCf6fnxA+FTjTs7FYIgQpPH70vB0pcDYbEGlxeaHtykJ9M04fCqiI+04H++8Ci+9PhgKCIf1M908+ZNLFu2HBcuXITVavm3ZUB35wUyeL3e9DYVJY/HK7VFvj9jDDabDVVVVXjzzbewd+8+3O1ZVVsTY5Pxi/kj8dOMhxBlleHx63d2LwRBhB694iPx1xfH4rkJA6Gb5p1nvr29I8Mw4fJreKhXN/z9pXF4cmh6UO1iGCaOHDmOVateR0lJCcLCwtBW732/X41rzt9t9pmSqqpcWxahWSwKvF4vNmzYiMrKSjz11EyEhwcv/57nGJ6fMBDp8RH449bzuFZcg0irFDhnomeYIEKOcEXCz+eNRL+kKCzZdQWVDR6EK0K7PO+MBeqPfH4ds0b0xPdmDkNKjC2o9vB6Pdi2bQf27z8Aw9Ahy3Ibfl8Gw9CbdcFmi1JbzywxzUBWhmEY2LNnH8rLK7Bo0UIkJ3cP6o0ZPygZ3WPC8N8bT+PQ9RKEKRIEmpFEECEJzxi+MKY/BiRF4xcbTuNacQ3CLBJ4hnuaBOHxaQBj+PqU+/CNKUNgkYLbv666uhpr167H6dOnIMuWO/3r2lKUNK15osQFfVHwPCwWBZcvX8aKFStw+fLVoC/UvomR+PuL4/H8+IHQDQOqRoW2BBHKPNQ7HsteHo8pD6TB5VXvdFG4F7j9GmLCFPxq/ih8b8bQoAtSdvYtLF++EmfOnIXFYoUoCvdkcKJpms3Sm6CLkmma4DgOVqsVpaVlePPNN3HgwEHoQT58jLRK+MW8kfjJnOEIswhUz0QQIU5qXDj+9Oyj+Mbk+yFyrE2Tnpoaqrp8KgYkR+OvL47Dokf7BrUvn2maOH78OFasWIWCggJYLMonGqq29a9szl8SOsqCYCwwn8nlcmHNmrWoqKjErFkzYbUGLy2S5xieHTcAqXHh+PXGM8gptyPCIgW9My9BEPeGcEXE92YORZ/ESLyy4yKKqp0IU0RwXMvDeYzhTgeZ8YOT8cv5I5EWFxHU7+nz+bBjxy7s3r0bpmm26flRa+E62qIQRRGMMXz44Yd4/fU3UFlZGfTPNH5QMlZ8cQLGDUiGw+OHblDqA0GEMrNG9ML/PjcGw3rGwe72taqG0evXoekGnh03AH99fmzQBamurg7vvPMuMjO3AwAkSepQtuc64oIInDNZcP78RSxbtgI3b94M+mfqmxSFv74wFi9MGAhNN6DrJEwEEcoM7xWPV18ejwUP94FP1eBvwZGCTzVglQX8NGMEfjp3RNAbqubk5GLFilU4efIjyLKEz2uwTaL0Ty4vg8ViQVFREVasWIVDhw4H3Xix4Uqgb17GCIgiD49fp7ZEBBHCJEXZ8LunH8H3Zw6FReLhbWbvTsM04far6B5jxV+eH4fnxge/oeqJEyewfPkKZGdn32moanbAFxjXkRcEY4CiKHA4HFi9+gNs2LAJPp8vuF4cx/DsuP7487NjkBIbhgaPHwYpE0GELBLP4StP3I8/PP0oukeHocGjwjD+fTiPAVB1Aw6viuE9E7D05QmYMCi4ZS6qqmLHjh145533YLfbYbFYOvTgQ6FTLApJgmEY2LlzJ2prazBv3lzExsYG9TM9dl8yukdb8fstZ3H0Ril4juv0Ey4Jgvh0nhjSAykxYfjt5rM4eqMENkX8J+8nMJBPh6oZWPBwH3x/5jDER1iC+pnr6uqwbds2HD16HDzPQ1GUDukddRpP6Z8+aGPfvJMnP8Ly5Stw82Z20D/TgORo/OX5sXh2/ACougFV00G6RHSoXSfPgWcMptlGzYZZIJXYr+vQu2CEYGBKNP7WeLasG+advnmMAV5Nh8jz+N7Mofj1glFBF6S8vHysXLkKBw8egSiKnzuQj0SpJc9D43ymwGHdShw/fiLonyk2TMFPM0bgh089BFkSqKEr0bFEiWNgbdgqq0nYPH6ty2ahxoYr+OncEfjFvBFQJAE+TYfLpyIuTMFvF43G1ybfD0UMbhDq3LlzWLZsGW7cyILFonSqKI7QGReF1WqFw+HAP/7xNqqrqzFt2jRIkhi0zyPyHL7yxGAM7dUN3YK8OyKIj6OIPASea9OEHMM0Uev0wafqQBdd7iLP4ekx/dEjLgK/WPsRwi0ifj5vJB7qFR/Uz6VpGg4cOIgtW7bA6/XBZrN1OtsKnXVRNJ0zZWZuR3V1DTIyZiM6Ojp4LifHMLpvAr0FiQ6FLAmwSDzMNmwzysBgd/lQ5/J1+U3Y2AFJeOvrj4MxhtS48KB+loaGBmzdug3Hjh0PbEgUpVPaVOjMC4LjOEiShOPHj6OiohwLFy5A79696U1EEE2bN4FDtFUOdCRoKy9B4FDn8iG71I5+SVFd3sZp3SKC/hmKi4uxevUHyMq6CUVROnXSFRcKi0KWZdy8mY1ly5bjzJkz9CYiiCZR4nnERVggML7NQngiz6HG4cPV2zVk4A7ApUuXsHTpcly9er3TC1Kn95TuhBMaBwfW1tbhrbfeRlVVFSZPngxBEGjFEl0aUeCQFG0DzzOYMMHQFgPbAJ4DTt2qQK3Ti5gwhQwdBAzDwIEDh7Bt2zY4HA6EhdlCoiyFC6WbZLFYoOs6tm7NxDvvvIeGhgZauUSXJyUmLDCsso08JdMEIqwyLuRX4nIReUvBwOVyY/Xq1Vi/fj28Xm+HL4jtsqIEBPrmcRyHo0ePYtmyFSgqKqYVTHRpEqOtiLC27dA2nmPgGMPbh26ARjO3L2Vl5Vi5chX27TsAjuM6TUSIMdY55indoy8Pi8WC69evY+nSZTh37jytZKLL0jM+Aj1iwtpUO0zTRIRFwvGsMuy6WEBGbieuXbuGZcuW48KFC53KO2qcm8d3WVFqIiwsDFVVVfjHP97G7t0fwjBogizR9UiKsiI5pu3rVUwAgsBh5d5rqHJ4ydD3EMMwsH//Qbz22hsoKSlBeHh4yLY140L9ZiqKAp/Ph02bNuO9996Hw+GgFU50KRhjGJASA4FnbR5pEzgON0vrsHzPFRg0Z+ye4PV6sW7deqxduxZut7vT1h+RKH38wREE8DyPAwcOYuXKVSgrK6WVTnQpJg/pAUXk0dazVhgL1AuuO3EL7x/LJkO3MdXV1Xj99Tfw4Yd7wPN8p84obu6ZJtdVbm5T37wrV65iyZLluHz5Kq14osuQ3i0CfRKjod0Db0bkGfy6jv/NPI8tZ/LI2G3EjRs3sGTJUpw9e65T1x81nidBVdVmfQGuq91om82G0tJSvPHGG9i7dz+dMxFdhkWP9IHD42/zl5sJwCoKcPs0/HrjGaw9eYuM3UoOHjyIlStfQ0FBYcike5On9BlYLBa43W6sW7cO77+/Gl6vh54CIuR5tH939IyPhNunoa1fcSYAqyzA7fPjD5vP4S/bL8DlU8nod4nf78e6deuxZs06OJ1OWK3WLjenjeuqN79pvsiBAwexYsUqVFVV0xNBhDSx4Qpmj+wFh9eHezX4SxYEqLqBlXuv4ptvHMbZvEqazNxM6urq8Prrb+HDD/eAMQZJkrqkHbp0Hx6O42CxWHDp0mXY7XYsWLAAgwYNpKeDCFmmDknF+pO3UNXgRZgi4F7oBc8x8JKAQ9dLcLmoBrOG98JTw9MxMDkGssjTTfg33Lx5E+vWbUBubl6nm39EntI9wGKxoLCwqLFKej8ZhAhZBqRE48mhaTBN854P6YuyynB4/Hjr4A187bVD+K93j+PdI1m4XFhzTxIuOitHjx7FihWrkJub2+UFqct7Sv8qTE6nE2vXrkV1dTXmzs2AKIpkGCK0dqGMYdaI3th/pQTl9S7Iwr3zXAzThFUWoIsmalw+7DhfgL1XipEUbUFClA1x4RakxNgQZZVhkUVI96COqgkGQDdMeFUdg3vEYGTveHBccPfkmqZh+/Yd2L37Q/j9KqxWKy1QEqV/RpZl6LqOPXv2ora2DgsWzEdcXCwZhggphqTGYvqwNLx+8DpM854dLwEIlEVxjMEi8jBFHoZpoqzOg9JaN0w09dALyMa9+hyMMfhUHT5Nx5QhqXjsvpSgC1JNTS02btyE06fPgOMYFEWmhUmi9O/heR48z+PcuXOoqqrCwoXzMWDAADIMEVJ8YUw/7L96G4VVDkhC+7ygGQCeMfBC+4WnGAPcPg0wgZcnDMS3ZzyICCW4CQS5uXn44IM1yMvLC/nuDC3y5pv7F0VRNM0ulEUjyzIKCgqwfPnKO+OFCSJU6B4Thu/NePCenysFkyZBirRI+MncEfh/c4YHXZDOnDmLZcuWIycnhwSptaLEGOtyJ5MWiwUOhwPvvPMuNm3aAr/fTyuGCBmeGJKKxY/2Ra3LF3LfzTRNuH0aeidE4s/PjcHz4weA54MXslNVFdu378Rbb/0DtbV1dH70GVD47nNQFAWapmHnzp2oqqrC/PnzEBMTTYYhQoKvTb4P14prcSavElE2qdPPRmIM8Kk6/JqOsYOS8YuMEeiZEBnUz1RfX48NGzbi5MmPGsfqkIfUJp5Sl1ZuQYAkSTh9+jSWLl2KnJxcMgoREiRG2fCDWcOQEm2Dx6d1ekFy+3T4NQOLHu2HPz8zJuiCVFxchOXLV+DYseOQJIkyettYlLp8YYGiKMjJycWyZcvx0Ucf0eohQoKRfRLww9nDYBEF6HrnfMwZAI9fg00W8JOM4fj5vJGIDQ+uR3Lu3HksXboCN25kUbjubpwAMsFdqLJpIiwsDHV1dXjnnfdQWVmFadOm0u6H6PQ8NbwXqhw+/GnLOTDGgeNYJ3ouAY+qoWd8BH40ezgmDk4O6ufRNA179uzD9u074PG4YbPZYFKrJRKleylMFosFqqoiM3M7KisrMXduBqKj6ZyJ6Ny8NGEgHG4fluy+AlFgkISO3xJI0w24fBoe6ZeEX8wfif7do4L6eZxOJzZu3ISjR481nh9ZaGGRKLUPTd7R8eMnUFVVjcWLFyE9PY0MQ3RaGAO+OXUITABLdl+BbmiwSB3zFdEUrtMNE/Mf7oMfzByGbpHBFYDS0lKsXr0G169fp3TvVkCJDq3EarUiOzsby5evwPnz58kgROfepfIcvjl1CH7w1DAIHA+fqqOjBfIYA9x+DVZZxHdnPojfLno46IJ0+fIVLF26DNevXyfviDyl4NIUzqusrMTrr7+JGTMqMHnyE516bDHRxaMAPIevPDEYCVEW/Pems3B6/JBFrtE/Cb6H5PCoSI0Lx08yRmDS/SlB/0y7d3+IzMztcLtdsFisdH5EotQxsFgs8Pv92LRpC0pLy7Bw4XyEh4eTYYhOy+wRvZAYZcOvN5xGdmkdJJGHGMQCVN0w4PbrGJreDb9ZOAqDUmKCah+fz4u1a9fj6NFjMAwDFgtl2LUFFL5rQyRJgiDwOHnyJJYtW4HS0jIyCtGpGd03Acu/NAEzHkqHaZpwetVAE9f29I4Y4NcCBbEzH0rH0pfHB12QKisrsWLFKhw9egwcx0GWqaEqiVJHNWjjAr15MxuvvroEly9fIaMQnZq0uHD8zzNj8PN5I5EaFw67ywefpqM9xv4wBji9GgSOw39MexC/X/wwEqOC65FcuXIVf//7Ely6dBmCIIDnaXAhiVInQFFklJeXY9Wq17Bz5y6KMxOdOwogcFj8aD+89pWJeHbcAMgiD4dHhWma99RrcnhUdAtX8PunH8Y3pw6BVQ5uTeC+ffuwatXruH37NmRZ7vID+e4FdKZ0D7FYLPB6vdi0aTOqq6sxf/48yswhOjV9EqPw64WjMGtET/zjUBZO3CyF26dBFDjwHNdm3pNhBlK+70+Nw8/mDcdDPeOD+r29Xi+2bt2G/fv3wzBM6tBAotSJd5iSBF3XcfjwYdTU1OLppxchISGBDEN0WniOYWSfBDyQFofTORV479hNXCqoRpXDA44BAsdB5Dlw7O4nyTIAPs2Abhh4clgafjjrISRH24L6fSsrK7Bu3QZcuHCxsQ8mhetaQnM3LCRK7fEQ8zw4jseVK1fx6qtLsWDBfAwZcj8ZhujUyCKPsQO7Y8yA7jidW4FjWaU4cr0UuRX1cHo1GKYBSRQgCxx4juHzItgMgNOnNqak34dvTRkCSQyuANy4kYXVq9egpITCda3BNM1mT/slUWrHXYLFIqO0tBSvvfY65syZjYkTJ4LWOBEKa3tUnwSM6pOApx/th2u3a3EyuxzXbteguMaJ8lo3/LoBSQh4UDzPwN9Z+P/3ADh9fsSGWfDdGUOx6NG+Qf9ex4+fwPr161Ff3wCrleqP2gsSpXbdLQTOmTweD1avXoOqqirMnDmD4tNEyJAUbUNStA2T7u+Bercf+ZX1yK1oQF55A4qqG3C71oXyehca3L47gmSaJnTDxH09YvH/5gzHqL6JQf0OHo8HO3fuwp49e6FpGgkSiVLou7GyLDd2Et6LiopKLFgwD4mJiWQcIqSItEp4ML0bHkzvBiDQGsjj0+BRNTg8Kho8Pjg8fnj8OhgYhqTFIjUuuAXn1dXVWLt2Pc6fPw+e5yHLMgkSiVLXEKbAOROHCxcuoqqqCl/4wmIMGDCAjEOELFZJgFXquK+c3NxcvPfe+8jPL4DFYqHzozaEMQZNa94QSapTCvKNslotKCkpwfLlK+60KyEIon356KOPsHz5ShQUFMJms5Eg3YN3na7r5Cl1Fq/JYrHA6XTh/fdXo7y8AtOnT6NzJoJoB3w+H3bt2o09e/bA5/PDZrPRxvAeChOJUicSJkVRoKoqdu3ahcrKCsyfPx/x8d3IOARxj7Db7VizZi1OnToFQRChKAoJUgeARKkDCVNTH60zZ86ipqYGixcvQt++fck4BNHG5OcX4IMP1iA7OxuKooDjOEpo6CDQmVIHdHFtNhsKCgqxYsUqnDhxkoxCEG3I2bNnsXz5CuTm5sJmszW7qJMgT6lLe00WiwX19fV45513UVFRgSefnEbt8QmiFaiqip07d2P37l1QVZXSvUmUiLsVJlmW4ff7kZmZifLyCixcOB8xMTFkHIK4SxoaGrBu3XqcOHGycbyMQoJEokS0RJhEUQLHcThz5gxqamrw7LNPIy0tnYxDEM2kpKQE77+/GtnZtyCKIgRBIEHqwFAwteNL053K8oKCArz66jKcOXOWzEIQzeDs2XN49dUluHkzG6Iogud5EqRQ8ZToMDC4MMYgSRLq6ux44403UVpaiieffBKiSM4uQfwrum7gww93IzNzJ3w+LxRFIaOEmigJgkAJ/B0ARQmcM23dug1VVVVYsGA+IiIiyDAE0YjD4cTmzZtx+PARcBxHghSqokR0DEzTvDM48MSJk6itrcXixYvQo0cPMg7R5bl9uxhr127A9evXIQgiBIHCdZ0Nisl1UmEKZBDJyMq6iaVLl+Ps2XNkGKJLc+HCJSxduhzXrl2DJEngeSqIDWlPyaS72+FgjEFRFFRVVeGNN95EdXUVnnjiCfA8jWsmug6GYeDw4cNYv34jfD4fheu6iigBIFHqoCiKAr/fj3XrNqC6ugZPPTWTzpmILoHD4cSOHTuxf//+O88C7Z+7jigRHZSPnzMdOHAQlZVVmDcvA6mpqWQcImQpKSnFunXrcfXqVQiCQPVHJEpERxOmpnOmK1euoLKyEosXL8IDDwwh4xAhx40bN/DOO++jrKyUGqqGGJToEGIwxmCxWFBZWYmVK1dh//4DzZ74SBAdHV03cPjwESxfvhLl5WWwWq1UQ0meEtEZsFgsjedM61FVVYUZM6YjLCyMDEN0WtxuN7Zv34EDBw5B1zVYrVbyjkiUiM5C0zmTpmnYs2cvysrKsXDhfHTv3p2MQ3Q6KioqsWbNWly6dBGiKEGSJBIkEiWiMwoTz/NgjOHixYuoqanG4sWLMXjwIDIO0WnIzs7G6tUfID+/AFarFYwxEqQQhoKxXeEmcxxsNhtKSsqwatVrOHz4EI19JjrFpurYseNYsWIViouLYbPZwBgjw5CnRIQKFosCj8eDDz5Yj4qKwDmT1WolwxAdDq/Xix07dmLv3n3QdaOx/ojsQqJEhN4NFwTouo5du3ajrKwCixbNR0JCAhmG6DBUV9dg3br1OH36NGRZhigKJEgh4PWSKBGfStN8pvPnz6G2thpPP/00+vfvR4Yhgk5ubi7WrFmL7OxbsFgslO4dQjDWvHtJd7yLwnEcrFYriotvY+XKlTh+/AQdHhPB3Evj5MmTWLFiJXJz86j+qAtDnlKX3rkEGro6HE688867KC0txcyZM6ihJdGu+Hw+7NixEx9+uAe6rtP6I1EiujqiKELXdezcuQsVFZVYvHghYmNjyTDEPcdut2P9+g04efIjCIIASZLIKCRKBPF/50xnz56F3W7H4sUL0bt3bzIMcc/Iy8vH+vXrkZV1E7Isg+dpIF+owhhrdrszCtoS/7cYGs+Z8vLysHLlKpw48RFlPRH3hI8+OoUVK1YiK+smNVTtIjS3NpI8JeITKIqC2to6vP3226ioKMeMGdMhiiIZhmg1mqZh9+4PsX37dqiqBovFQkYhSJSIz6epb962bZmora3FvHkZiIyMIsMQLaahoR6bN2/FkSNHIQgCZFkmoxAkSsRdLA5BAM/zOHr0OGpqajB//nz07JlOhiHumsLCIqxduxZZWTchSRKlexOfCq0M4jMJzGdSkJV1E0uXLsfp06fJKMRdcf78BSxZsgTXr2dBlmUSJII8JaL1whQ4Z6rBG2+8haqqakydOgU8z5NxiE9F13Xs338AW7ZshdfrhdVK50cEiRLRhiiKAk3TsHnzFtTU1GD27NmIiAgnwxCfwOl0YvPmrTh69AhME1QQS5AoEfdowQgCDCMwkrqiohKLFi1Ajx49yDDEHUpKSvDBB2tx/fp1Oj8i7hpaLcTdLxqOgyzLuHbtGl59dSnOn79ARiEAAFeuXMGSJUtx5cqVO/VHBEGiRLQLVqsVlZWVeOONN7Fnz55mV2wToYdhGNi//yBWrXoD5eUVsNlsZBSiRVD4jmi1MPn9fmzcuAkVFVXIyJhNL6QuhtPpwtatW3Ho0BEAJhXEEu0jSoIgGKZp0jhi4hOIogjDMHDw4EFUVlZi0aKFSE7uTobpAlRWVmL16jW4dOkSFEWh9wPRfqLE8xy1piI+laZzpitXrqC2tgaLFi3E/fffT4YJYW7cyMKaNWtQWFgEi8VCgkS0zbuETEC0FYwxWK1WlJSU4rXX3sDBg4fIKCGIYRg4dOgwVqxYiaKiYlitVhIkov09JdOESeuOaA5WqxVutwcffLAGpaVlmD37KTpnChF8Ph82bdqMgwcPQdcNOj8igilKFLwjmo8kiY0ZWftRUVGBZ555GvHx8WSYTkxtbS3ef381Lly4CFEUIcs0kI9oeyh8R9y7xdV4znT58hUsWbIct27dIqN0Um7dysGSJUtx4cLFOwP5CIJEieh0BM6ZLLh9uxjLlq3AoUNHmj3si+gYHD58GMuWrUB+fgEURabzI+KeQnVKRLugKAoaGhrwwQcfoLS0DPPnZ9DgwA6OrhvYvHkT9u7dD02jgXwEiRIRYsiyDF3XsXfvHtTUVOOZZ55GdHQ0GaYDUldXh7Vr1+PMmTM0kI8gUSJCF57noSgKzp+/ALvdjsWLF6FPn95kmA5ETk4O1qxZh7y8PMgyheuI9oXOlIh2p2lwYH5+PpYtW47Dh4+SUToIJ06cxLJly5Gbm0sdGgjylIiuhaIoqK+vx3vvvYeamhrMmPEkJInSjIOB3+/Hhx/uQWbm9g51fkStzUiUiBBG1/XGTt4mTJOBsUA4TRCCtwxkWYamadi+fTuqq6swf/48OmdqZ+rq6rBx4yZ89NGpO1OGgy1EmqbBMAwEyiMDa1UQBEpFJ1EiQgHTNOH1emGxWNCnTx906xYHgKGmphp5eQVwu11BDdU0vWxOnTqNmpoaLFy4AL169aIb1w4UFBRg9eo1uHXrVocI1zWt1cjISPTsmY6oqCgYhoGysnIUFhbA4/FQFmAnpblLi0SpCwiS2+1B//79MHnyE+jXr9+dEeZOpxM5ObnYsWMnbt26BavVGsQFG9ih37qVg6VLl2HBgoUYNWoE3cB7yPnzF7B69RrU1FTDarUi2E1bDMOA1+vFsGFD8cQTT6Bnz/Q7XlttbR1u3LiBDz/ci6KiQmoA2zlliUSpq6PrOkzTxBNPPI7p05/8RFgsLCwMDz74AHr06IFVq15DTk4OFEUJ2svJNAOzeGpr6/DWW2+hsrICU6ZMpnOmNkZVVezZsxc7d+6Cx+PpEIJkmib8fj9GjhyB559/7hO9EmNiovHoo4+gb9++2LJlK06dOgVRFGmybQhCdzREvSOv1wtZlrF48SIsXrzoM89pYmNjMGvWTISFhQW920KTMOm6jq1bM/Huu++hvr6ebmob0dDQgHfffRebNm2G3++HxWJBR2hraRgGEhISMGvWZzfvjY/vhhdffB5z584Bz3Pwer2gtpyhBXlKoeQcMwZVVeH3+9GrV08sWDAfAwYMaNbP9unTGz17puPq1WsdwjNpGhx47NhxVFVVY/HiRUhLS6Wb3Apu3y7B6tUf4Pr161AUBRzHdZgXumEYGDCgP5KTk5u1Np588kkkJydj48bNKCoqgizLEASBBKoD09wNL3lKISRIgV0jMGHCBHz9619rtiABgCCIiI+P71Bxeo7jYLVakZ2djWXLluPcufN0o1vIpUuXsWzZcmRlZcFms3W4sBfHcUhISLirn3nggQfwjW98DY8++ghUVYPP56Nzpg78ftJ1nTylroTH40F4eDjmzJmNMWMeves0b8YYGOM63EPdFM6rrKzEm28GzpkmT55MqcHNRFU17N+/H9u377iTudYRvQnGWIuEMiEhAc8//xzS09OxZctWeDyeoKe0E62DRCkEXGK/34/09HQsWrQA/fr1a/F1amqqO2QH7yZh8vl82LBhEyoqqjB37hyEh4fTAvgM3G431q5dj6NHj94ZI9JRw1u6rqOqqrpFPytJEp54YhK6d0/C+vUbUVxcTEkQJEpEMPD5/OB5DuPGjcGsWbNaVXRaUFCA/PyCDu2BSJIEXddx5MgRVFSU45lnnkFycndaCP+GyspKvPPOe7hx4wZEUezwniVjDDdv3kRlZRXi47u16BqDBw9GUlISNm/egtOnz8Dn81Ej2U4IbSU6GYwxmKYJl8uN8HAbFiyYh+eff75VguR2u7Fz5y7Y7XYIQsd+eTU1dM3OzsHSpUtx9epVWhT/wrVr1/H3vy/BzZs3IUlSpwh18jyPkpIS7N69u7HrSMuIiYnBSy+9iIyMObDZbHA6nZT8QJ4ScS8xDANutxu9evXCvHkZGDx4cKuuV1FRiXXr1uH8+QuN5w2dww6KIqOiohIrVqzC7NlPYeLEiV3+nMk0Tezbtw9bt2bC7XZ3qrMVxhhEUcShQ4dgmsDs2U8hMjKyxdeaMmUyUlJSsH79RuTn58FqtVISBIkS0dYEimGB8ePHY86cWa3uEXf58mVs3LgJBQWFna51i2makGUZXq8Xa9asQ0lJCRYsWAiLpWsecrvdbmzatBmHDh2GYZid8rCf4ziIooQDBw6ioqICc+bMQt++fVt8vcGDByExMRGZmdtx8uTJOx4ZQaJEtMEL2O/3Izw8HDNnzsD48eNbFWYLdITei71798LlcnXqXaQkSdA0DYcPH0VVVQ0WLpyPHj16dKn1kZ+fj/XrN+DmzWzwPA9J6ryPtSAIsFgYsrKysGJFBWbMmI7x48e1OGkhNjYGzz77BaSl9cCWLdvgcDggSTI4jrwmEiWixd6Rx+NBr169sGjRQgwY0L9V16uoqMSmTZtx+vQZSJIYEgfBTQ1ds7Ky8Le//R1PPfUURo0aGfKH3D6fDydOnMD27TtRX18PSZI6fYjKNE1wHAdFUdDQ0ID33/8ARUVFmDVrFqKiWhbO43keEydORPfuyVi7dh1ycnKhKHJQu+MTJEqdEk3ToGkaxowZi4yM2YiLi23V9a5evYYNGzagoKAwqM1X7wWMMUiShIYGB955513cuHEDU6dODdkuEIWFhdi5czfOnDkDnhdCsj+gKIowTRMHDhxEWVkZ5s+fh969Wz6luH//fvj617+G7du349ix41BVFZIkUSIEiRLRHFRVhdVqxaxZT2Hs2DEQRbFV19q9+0Ps3bsPDocj5ATpX19kmqbhxImTyMnJxaRJj+PRRx9FWJgtJL6f3W7H8eMncOjQYVRVVUGSpDsv71CEMQabzYasrJtYunQ5nnxyGh57bAI4rmXh67i4WDz77DPo2bMntm7NhN1e12ELikmUiA6BrusfK4ZdiP79+7XqejU1NVi7di3On78IACE/i8Y0TQiCAKvVitraWqxfvwHnzp3DxIkTMWLEQxAEsVN+L7/fj1OnTmP//oMoLi6GaRp3Nhdd4YVqtVpht9djzZq1KCgoxPz5c1ucncfzPMaPH4eUlGR88MFa5OTkQJIkCud1NlGidMp7T1PvrkceeQQZGbMRG9u6cF1WVhZWr/4At2+XQJKkLlPh3jRCW5ZlGIaBvLx8FBQU4sSJk5g06TH069ev04izy+VCVtZNHDhwALdu5cA0TYii0CW7FShK4H4eP34cZWVlWLRoIfr27dPi6/Xu3Rvf+tY3sHXrNhw/foKKbTubKImioJOLe+9CFE6nE1FRUZg+/UlMnDihVeE6n8+HQ4cOYfv2nV2+FxjHcXfOW27cyEJWVhYGDRqI4cOHY8CA/ujWrVuH/NwVFRW4cuUKzp49h1u3chrTpcUu/6xwHAeLxYLCwkIsW7YcM2ZMx5gxj7ZYTCIjI/GFL3wBPXumY8uWbaipqbmTjUrvu47vKdE9uke7+qZi2IULF7Q6u660tAzbtm3DqVOnIQhCh+531t5IUuDs5cKFi7h69Rq6d0/CAw88gH79+qJ3796fOcenPbDb7cjNzUN2djauXLmK8vIyaJoBm40KP/8VWZbhdDrx/vurkZOTgzlzZiM+Pr5F1+J5DmPHjkVycjLWr9+AGzey7oz2IDqwKBFtj6ZpME0TY8Y8gjlzMhAbG9Oq6125chUbNmxEQUEBFEWh+TKf4pWGh4dDVTXcvl2CkpJSHD58FD16JCMtLQ2DBw9C37592y2M43Q6cetWDm7cuIH8/EKUlpbA7XY3djiQYbHwdA8/ZTMnSRJUVcWJEydRVlaBhQvnYeDAgS2+Zq9evfC1r30V27Zl4tixE1BVlbzTYDyjzV3wv/jFr0rKy8u7U0V061+KhmHA6/UhIiIc06c/iccff6xVleZN4wl27twNl8sZEvUq7YVhGDAMA7qugzEONpsVNlsY0tLS0KtXOtLSUhEVFYWwsDDIstzi+6RpGjweD1wuF+rr65GXl4+cnByUlpbC6XTB4/HANAFB4MFxHN2/uxSopuLyQHbexFYlLQTOrU5g+/YdqKyshKIoYIwDQJuDlqLrOrp16+b97//+9ece5t7NnaM70gaC1PRyaupdd99997XqmlVV1di0aTPOnDkLjmN0UHuXcBwHjuPueJV+vx8+Xw2qq6tw+vQpMMYQExOD+PhuiIqKQlRUJMLDI2Cz2aAoMhRFAc8L4HnuzsOnaTq8Xi+8Xi9cLhcaGhyw2+tQV1eHysoq2O12AIH5QTzP3amxIlr+XDW1nFq3bgMKCgowZ84cdOsW1+I1MXbsGCQlJWHTpk24du06JEmGKFJgqT0gK7fjg6OqKjRNx9ix4/DUUzOQkBDfqmteu3Yda9euR2FhATWcbKN71PTPJqECAmc91dXV0DQNuq5DEITG7tsCBIEHz/ONO2nANAOeV9O99vt90HW98e8KEEWRNg73cIMhigxHjx5HSUkp5s2bi/vvb/mmr0+f3vja176KzMztOHToMIXzSJRCL7wQFhaGGTOmY9y4cZCkli9uTdOwb98+7Nq1G3Z7fdAP6EP+IWkUk4/fz0DYT4fPp33izCcwxZdBEHhIUtg/bRbofOjebyzCw8NQUFCA119/A1OnTsGkSY+3WEzCw8OxePFC9OnTGxs3bkJNTS1EUaQNIIlS50XXdaiqipSUFDz99CIMGDCgVderqqrGli1bcfr0KZgmSJDacWPxr7vy5mZnkRC1PzabDS6XC5s2bUZ+fgHmz5/b4vR/xjiMHDkSycnJeP/9D5CVlQWeFyicR6LU+fD7/QCAESOGY+HCBYiJaV123fXr17Fu3QYUFRVBlmXarRHEZyBJEgzDwNmzZ1FaWoLFixdj8OBBLb5ecnIyvvGNr2HbtkwcOnQYHo8n5DukkCiFEF6vF2FhYXjyySfx2GMTWnWQ7ff7cfjwEWzbFhjeRr26CKJ5NHUcLysrx/LlKzB9+jQ89thjLT7Xs9lsWLx4EdLT07Ft2zaUlpZRtIJEqePj8XjQs2c65s+fj4EDWxeuq64OZNd99NGpOw8YCRJB3B2KosDn82HDho3Izy/AnDmzkJTUvcXXe/jh0UhNTcWGDRtx8eJFyLJMxbYkSh0PTdNgGAYeeeRhzJkzG3Fxca263vXrN7Bu3ToUFBRBliUqhiWIFtJUbKtpOk6dOo2SkhLMnTsXw4YNbfE1k5O748tf/iJ27NiFffv2U+88EqWOteC9Xi/Cw8MxY8Y0TJz4WKtSRzVNw8GDh5GZmQmXywWLRaFeXATRBs8pz3OwWq0oL6/Am2++hZKSEkyZMrnF4XWLxYJ58zKQmtoDW7ZsQVlZ+Z0ia3peSZSCgmEYd3rXzZ8/F4MHD27V9aqra7B16xacPHkKPM/Tzosg2pimYltVVbF58xYUFhZi9uxZSElJafE1R44cge7dk7Bhw0Zcvnz5zuBFEiYSpXZd2KqqQtd1PPLIw5g7d26LK8ibuHr1GjZu3ITc3FxYrVbabRHEPYTnAy2dzpw5h5KSUsyfPxfDhg1r8fVSUlLwxS9+EXv27MG+ffvg9fqgKNQQmUSpXcIAgfEQ4eE2TJ06FY89NrFV2XWGYWD//gPIzNwBh6MBNpsNHMfRYiaIdthc2mxWlJeX4/XX38TkycWYOnUqFKVlEYqwMBsyMuYgPT0dmzZtRmlpaZeaZfbZ783mvc9IlFogIF6vF+npPVvdlRgAamtrsWnTFpw6dQrA/02GJUEiiPbDYrFA0zRs374DxcXFmDNndqvCecOGDW0M523AuXMXIQh8l25R1BRZIlFqY/x+P3Rdx8MPj8Ls2bORkJDQqutlZd3E2rXrUFBQQCmlBBFkmnodnj9/ASUlpcjImI0RI0a0uEg9MTERX/nKV5CZuR379++H2+2FxSIDoKJ3EqU2wOfzwWq1YurUqZg06bFWJSCoqorDh48iMzMTDQ0NVBVOEB0Iq9WKqqoqvPXW27h9uxRTpkyGzWZt0bVEUURGxhz07JmOTZu2oLj4NhSFNqAkSq2gKd07PT0N8+fPw6BBg1p1verqamzblomPPjoFwzBgtVopVEcQHeyZVxQFfr8fmZmZKCoqQkbGHKSm9mjxNYcOHYru3btj06YtOHv2LARBAM2mI1FqkUdjGAZGjhzRJr3rbty4gfXrNyA/vwCSJNGocoLowMIUGE/C4/LlyygtLUVGxhyMHj2qxddMSEjAiy8+jx49UrBz5y74fD4ayEmi1Hw8Hg/CwmyYPHkypk2b2qpJlpqm4fDhI9i6dVtjMSwlMxBEZxCmptZedXV1ePPNt3D79m1MnToFYWFhLbqmoiiYMWM6UlN7YMOGjSgsLGocFEleE4nSv4ExBl0PTA3t2TMdc+bMwpAhD7TqmjU1Ndi2bTuOHz9OxbAE0UkRRRGmaWLHjl0oLi5GRsYcpKWltfh6Q4YMQWJiEjZv3oKPPjoFQTCo2JZE6ZP4/So0zY+HHx6NjIw5LZ6/0sTNm1lYt24jcnJyYLFY6HCTIDr5plVRZFy8eAllZeWYOXMGxo4d0+Lrxcd3w8svv4iUlGTs3r0bLpenxfVRJEohKUh+KIqC2bNnYtKkSa3yaEzTxMGDB7F1aybq6+tpVDlBhJAw2Ww2VFdX4/33V6OkpASzZj3V4gxaQRAwffqTSE1NxaZNm1BQUNjly0O6vCg1FcOmpaVh7ty5GDLkvlZdz263Y8uWrTh58hQMQ4fVaqUnmSBCDEVRoOs69u7dh9u3b2PevLlIT09v8fXuv/8+JCUl3gnnMcZa1SWGRKmT0tS7buTIka0al9xEILtuI/Lz8yHLcpeu4CaIUKepd961a9dRVlaOOXNm4+GHR7c4aSEuLg7PPfccUlNTkZm5HW63u0tOmO6youTz+WCxWDBlyhOYPHkKZLl1vesOHz6CzZu3wOFwUDEsQXQRGGOwWq2or6/H22+/jaKiYkyfPg2RkZEtup4sS5gyZTJSUlKwYcPGO91eulJzZqGrLSDDMOD3+5CS0gPz5s3F/fe3LlxXV2fHtm3bcOzYcZimSYJEEF0M0zQbR2Fo2LdvH0pKbmP27Fno27dvi685ePAgJCYmIDNzO44fPwFd17tM5EVovuE7/5f1+/3QNA2jRo3EnDlzkJAQ36rrZWdnY/36jcjNzYUoijQZliC6sDAJAg+OY7h+/QYqKsoxc+ZTGDt2TIuTFmJjY/GFLzyN7t2TsH37TjgcDiiKEvLhvGaLEs9zRmd94QZGTXgbC9dmYurUJ1qVXadpGo4cOYItW7bd6V1Hk2EJguA4DhaLBXZ7A957730UFhYiI2NOi4ttRVHE5MmTkZycjE2btiAvLy/kw3nNFiVBEPTO9uWawnVerw9paamYPXsWHnywdcWwdrsdmZmZOHLkOAATNpuNxIggiH9CkiQYhoEDBw6irKwcGRlz0LdvnxZfb/DgwUhK6o5t2zJx4sQJaJoWsm3KQvZMiTF2Z9TE6NEjMWfObMTHty5cd+vWLaxfvwE5Obl3+mKRIBEE8Wlek9VqRVZWFpYvX4EZM6ZjwoTxLQ7nxcRE47nnnkFaWg9s3rwVDocTihJ62Xkhe6bk9XohyzKeemomJk9+og2KYQ9h69ZAuK4prkuCRBDE52GxWNDQ0IDVqz9AUVExZs9+ClFRUS0WuokTJyIlJQVr1qy7E84LpWLbuxAlXesMXyiQXedHcnIy5syZjWHDhrbqeg0NDdi6dRsOHz5yZ4ERBEHcDbIsQ9N0HDlyBKWlJZg/f16rsvP69u2Lb3zj69i+fQeOHTsGTdMhSaGRnRcy4bumcJ1pmhg5cgQyMua0QbguBxs3bkRWVjYN5iIIosWYpgme58BxMnJycrF06TJMnz4dEydOaPEEgqZwXmpqD2zdug11dXV3kq5IlDoAbnegmeGTT07F1KlTW5XT3xSuy8zcAbu9DlYreUcEQbTN5tliscDlcmHt2rUoLr6NOXNmITo6usXXnDBhPJKTu2PDhg3Izr4FSZI7dXlKpxelwGRYH1JS2j5cZxhUDEsQRNu/syRJhq4HwnllZWWYNy8D/fv3b/E1+/bti69//WvYvn0njhw5Br/f32lHYXRqUdI0DZqmY9SoEZg9ezYSExNadb3s7EC4LicnB4IgQJapGJYgiHsjTE3Zebm5uVixYiWmTZuKiRMntjjKExkZhUWLFiItLQ2bNm1GbW1tpwznCZ31hvp8PsiyhBkzpuPJJ6e1ajKsrus4fPgItm3bjvp6O2XXEQTRbiiKAofDiQ8+WIeCgkCxbVxcXIuuxfM8xox5FN27d8fateuQnZ0NUZQgCJ1nsu3dvMmDLrdNk2F9Ph+SkpIwd24GHnpoWKuuWV9fj+3bd+DAgUNgjLLrCIJof2RZgqYZOHnyFMrKyrF48UL069evxdfr1asnvv71r2LHjp04cuTonXBeSIkSx3FqsAXp49l1s2fPQlJSUquumZubi02bNuP69RuNh4NUDEsQRPtjmgDPc7BYZBQVFWHp0uWYPn1aK8N5kXj66cVIT0/Dli3bUFFREbSBo6ZpNvv33kXvO94dzJvm8XggSRJmzHgSjz/+eKs8Gl3XcezYMWzdmom6OjsUxQLGQIJEEESQYZBlGW63G2vXrkNubh7mzZuHbt3iWnzFRx55BElJSVi3bgOuX78BRZFbPPOpNTRXXO/CU+IdwXhpN02GTUpKwoIF8zB0aOuy6+rr67F16zYcOXIEpglYLAo9BwRBdChEUYRh8Dh58hQqKioxd25Gq8bs9OzZE9/4xtewffsOHD58pN3DeaZpQhTFZrlKza4GFQQhr71vTCC7TsOIEcPxrW99o9WCVFBQgJUrV+HQoUMQBBGKQoJEEETHhOM4hIXZUFxcjNdffwM7d+6Cz+dr8fXCwsKwaNFCPP/8c4iNjYXb7YZhGGiPaF7jrLlmNfVutqfkdrtOAHixvW6Ix+OBxWLFtGlTMWXKE61SddM0cOTIMWzbth12ex0UxXLHUARBEB0ZRVHgdruxYcMmFBQUYe7c2UhIaHn5y+jRo5CUlIT169fj6tVrEEUJonjvErEDCWoGrFZreZuKUllZ+cX2KMYyTRNutwfJyUnIyMjA8OEPtep6DocTW7ZsxuHDRwGgVY1ZCYIg2ptAsa0ETdNw6tRHKC8vxbx58zBkyP0tvmZaWiq++tWvYMeOnTh48CBUVb2nxba6rsNqtVxpU1FijLltNhvsdvs9OyTTdR26rmH48GGYN29uG2TX5WHjxk24du0aZFluVS0TQRBEMIWJ53lYrVaUlJTitddew9SpU/HYY4+1+Fw8LCwM8+fPQ8+ePbF58xZUVFRAltt+FIZpmjBNA3379t3ZpqLUp09vZ12dvVTX9e73QpR8Ph8URcb06U9i8uTJUJSWezS6ruPkyRPYujUTtbV1sNlstKoJguj0MBbIzvP5/Ni4cRPy8/Mxb968Fnez4TgOI0eOQHJyMtatW4dLly5DFMVW9Q79VwzDQHh4OMLDw0qa8/f5X/7yl8268M6du7xut3uAqqpD27JbtmEYcLncSEpKwLPPPoMJE8a3yqNpaGjApk2bsW1bJrzezlMwRhAEcTdiwvM8CguLcPNmFmJj41rVZi0iIhwPPDAEAFBcXAyv19tmkSVVVZGYmORWFPm1gQMHFH/ud2v+y97hY4zdsFqtMIy2iTs2dWcYPvwhfOtb32x1dl1+fiC7bu/efWCMgyRRuI4giND1mmw2K8rKyvH6629g27bt8Hg8Lb6e1WrF/Pnz8NJLL6F79yS43R6YJloVzmOMQdM0JCUlHkpISLjenJ9p9ls7NbUHDMO4VlJSajdNIwpoXQhPVVUIgojZs2dj8uRJrSqGNQwDx46dwPbtmaisrL7ThJCS6wiCCHUURYHP58OWLVtQUFCAjIzZSElJafH1HnpoGLp3T8K6detx4cIlSJLYYq9J13UoioLw8PA8r9dnb1NREgQBqqqeFgT+BsdxD7dGQJqKYefNm9vq3nVOpwubN2/G0aPHmjI8aJUSBNFlME0TgiCA4zicO3cOJSUlWLhwfuMYn5Z5OUlJSfjyl7+EXbt2Y9++/fD7/RBF8a69JsMwEBER4Y2MjDiiKHKz3AThbi4uimJdRETEGZfLPdo0TXY3H7Cpd52uGxg2bCjmzs1AcnJyq25GUVER1qxZi+vXb0CWZUr3Jgiiy8JxHGw2G2pqavDGG2/h9u3bmDRpEqxWa4uuZ7FYkJExB6mpqdi6dRuKi2/faVHU3NRxxhhiY2PzrVbrOU3TmucA3Y2oANAVxbJLUeQXPR5v+N38rMfjgaIomD79CUye/ESLDdW4N8DJkx9hy5atqKqqbuW1CIIgQgdJkqDrOrZt2478/ELMnTunVeG84cMfQlJSIrZsycTp06cgSVKzapqa0tjj4mL3A7jtdjevfWqzRcnpdAEAeJ4/KYrSKa/XN6m5rqXb7UZiYiIWLJjf6smwdrsdO3fuwqFDhxp711moMwNBEMS/eE2iKOLcufMoKbmNjIwMjB49qsXXS05OxksvvYDU1GTs3LkbXq/3cyNTuq4jNjamIS0tdadhGH6eb15eXbNFSVXVpn/Wh4XZtrjd7sd1Xf/M+J2madB1HQ8+OBTz589DcnLrimHz8wuwdu26O51uJUkkQSIIgvg3MMYQFmZDVVU13n77Hdy+fRszZkxvcc9Pi0XBzJkz0aNHKjZu3ITy8nLwPI9PLxFiSExMPCvL8j6/39/2oyv8ft/Hv+xSRVG+09DQ0PtfC2mbJrYGimEtmDbtMUybNrVVzU8Nw8Dp02ewceNmVFdXwWq1gOM4EiSCIIjPFRMLNE3D7t0fori4GPPmzUWPHj1afL0HH3wAKSnJWLduA86fPw/TND/hNRmGAVmW0KdPn2UOh/OuZvE1u3h23779d/6/aZqIjY2rd7lcs3Vdv6OAjLGPFcMmYtGihZg06fFWFWE5HE5s3rwF27ZthdvtvidtMAiCIEIZjuPAcRxKS8tw5cpVREZGtOqcyWq1YujQB8EYQ0FBIdxu950uEIwxeL0+DBjQ/3BERMQPdV2HYRgwDAMDBw5oO1E6evQYeF6484fjuEs8z09wuVzpTe6brhvw+bx46KFheO65ZzBo0MBWGbKgoABvv/02Tp48CZ4X7mknW4IgiFCGMQZRFOF0OnHp0mX4fD6kpqa2uOsNx3EYMKA/evRIQVlZOaqqqiCKIlRVRUxMrPeBB4a8wHFcMWMMTX8GDOj/uddt9lu+vr7+E+6Zoij/HRkZ+ZDdbg8HArVMs2bNwpQpk1tVDAsAJ0+exJYtW1BWVgmbzUrFsARBEK2kKdSmqip27tyFwsJCzJ2bgfT09BZfc8iQIUhMTMLWrdtw4sQJiKKEQYMGvm2xWE7qun7X12u2KHm93k+IksViORgXF/eP2trab8XExGDx4oWtbhXkdDqRmbkdhw8fhaapCAujZqoEQRBtKUxNxbZXrlxFaWkZZs+ejUcffRgt7WsaH98NL730AhITE5CVlX1t8OBB/2Oz2YyWiBJrbrLA9773X5/4YjabFVarLdVms76XkTFnbGtilABQVFSMtWvX4/r1wKiJtmz8ShAEQXwSv98PnucxadJjmDZtGsLCwlpzuars7JvPOZ3u3bIsfyIZ7b77BredpxQf3+2f1YwBhmHC5XIVTZs25aWUlJQ3AIxr6Tc5deo0Nm7chKqqqlaH/giCIIjmIcsydF3Hrl0forj4NmbNmoXevXu15FL1AF4GsLs1mdF31Wbo37pajMHn8+UA+AKADwCMuZsP4HK5kZmZiYMHD0NV/SRIBEEQ7YhpmuA4DrIs4/LlK7h9uwSzZs3E+PHj7+YyHgD/ASDTNE0YhtE43O/uxanV6WyGYSAsLBwAbgN4CcC7AJpVOlxcXIzVq9cgK+smBIFvVS0TQRAE0XIYY7BarbDb7Xj33dWNXtNTCA//3I5yBoAfAngHAHr16g3TNFtcutMmOdYfO/u5BeArjcJ0/2cp85kzZ7Fhw0ZUV1dDUaj2iCAIoiOgKAp0XcfBg4dQVlaGefPmoWfP9M8SpF8BWNL0L1o7tfZeZBJcAvACgKx/9x8dDgc2bdqEN9/8B+rq6qAoCgkSQRBEB4LneciyjKysm1iyZCkOHz6MT8mk+xuAPwJos4Kde5Xedh7AMwByP/4v8/PzsGrVa8jM3AHTNNp0DjxBEATR9l5TIJz3Pt577300NPxTveqbAH4GwNeWv/Netkg4B+BFAO8BSD158iNs3rwZlZVVUBTlrmZyEARBEO2PaZpQFAWqquLAgYMoLS1FRsZc9O/fdz2AbwNwtfXvvNd9e446HI6v7t277929e/fG+nz+O7OPSJAIgiA6hzAJggDTNJGXl48PP/xwV1xc7PdiY2Oc9+L33fPq1IKCwl0nTpz8ZmRk1K2mfHiCIAiic2AYBvx+P8LCwj1Dhz64LCUleRFgFt+r39cuHU7Dw8PXWK3Wi6Io/qa+vj7D7/dzTQ36CIIgiI4HY+xOt4fU1B6XevXq9T+maa7RNM24l7+3XUTJNA1wHJdltVpftNls22pqav7L7XbfbxgGCRNBEEQHo6kANiYm2p2U1H1Vr169XgWMvJqa2s+dONta2q25XOPwP6cgCO9GR0c9lp6e+nOr1VrOcdydbhF0zkQQBBEcETJN887xiiRJ3rS0tMw+ffqMCQsL+54gCHntdfQiBOPLA6hmjPtNcnL3tz0e7/fq6+sf93q9A/1+PwcEYpj/OtGWIAiCaFuahu9xHAee5xEVFVVls9lORkSEv1FdXb1NEBKgqtqntpkLCVH6F3EqUhTl24qi9Kqvr58GYKbdbh8IIFXTNKiqesdYBEEQRNsIUZPXoygKOI5zRkREZFut1j2RkZEfchx3yOfzwTSDE70K+ijXxthlnizLS2VZel8QhF6yLE+qqKjoFRUVNd7v9w9wu913jPjxBAk6jyIIgvjs9+vH/3AcB4vFApvN6mCM22OxWG7GxMSedDodFyVJvK1pGgQhuLIgdCTjGYZhFwTxvCAI52VZFrp3755eV1eXputaTEJC/GjTZA95vd4Ut9sd4ff7RVVVSZUIgiD+DRzHmYoia4pi8VoslkpFka/X1tYdNQy9MD09rdbr9WV5PF6HxWJBfb0dhsGD44IflWKUXEAQBEF0GDElExAEQRAkSgRBEARBokQQBEGQKBEEQRAEiRJBEARBokQQBEEQJEoEQRBEZ+X/DwAGKngzNKRjOwAAAA5lWElmTU0AKgAAAAgAAAAAAAAA0lOTAAAAAElFTkSuQmCC;" vertex="1" parent="YHFHDH8k9fAFt5fq1yZ0-5">
          <mxGeometry x="964.3000000000001" y="465" width="81.41" height="70" as="geometry" />
        </mxCell>
        <mxCell id="wUrpgRFkoYMwGQCjtp_t-11" value="LocalStack" style="shape=image;verticalLabelPosition=bottom;labelBackgroundColor=default;verticalAlign=top;aspect=fixed;imageAspect=0;image=https://docs.localstack.cloud/images/localstack.svg;" vertex="1" parent="YHFHDH8k9fAFt5fq1yZ0-5">
          <mxGeometry x="965.48" y="290" width="79.04" height="80" as="geometry" />
        </mxCell>
        <mxCell id="wUrpgRFkoYMwGQCjtp_t-14" style="edgeStyle=orthogonalEdgeStyle;rounded=0;orthogonalLoop=1;jettySize=auto;html=1;entryX=0;entryY=0.5;entryDx=0;entryDy=0;exitX=0.999;exitY=0.724;exitDx=0;exitDy=0;exitPerimeter=0;" edge="1" parent="YHFHDH8k9fAFt5fq1yZ0-5" source="YHFHDH8k9fAFt5fq1yZ0-24" target="wUrpgRFkoYMwGQCjtp_t-5">
          <mxGeometry relative="1" as="geometry" />
        </mxCell>
        <mxCell id="wUrpgRFkoYMwGQCjtp_t-19" value="" style="endArrow=classic;startArrow=classic;html=1;rounded=0;exitX=1.006;exitY=0.32;exitDx=0;exitDy=0;exitPerimeter=0;" edge="1" parent="YHFHDH8k9fAFt5fq1yZ0-5" source="YHFHDH8k9fAFt5fq1yZ0-18">
          <mxGeometry width="50" height="50" relative="1" as="geometry">
            <mxPoint x="870" y="350" as="sourcePoint" />
            <mxPoint x="929" y="330" as="targetPoint" />
          </mxGeometry>
        </mxCell>
      </root>
    </mxGraphModel>
  </diagram>
</mxfile>
